<?xml version="1.0" standalone="no"?>
<!DOCTYPE svg PUBLIC "-//W3C//DTD SVG 1.1//EN" "http://www.w3.org/Graphics/SVG/1.1/DTD/svg11.dtd" >
<svg xmlns="http://www.w3.org/2000/svg">
<metadata>
This is a custom SVG webfont generated by Font Squirrel.
Copyright   : Copyright  2000 Adobe Systems Incorporated  All Rights Reserved Patent Des pending
Designer    : Akira Kobayashi
Foundry URL : httpwwwadobecomtype
</metadata>
<defs>
<font id="CalciteProBold" horiz-adv-x="1024" >
<font-face units-per-em="2048" ascent="1587" descent="-461" />
<missing-glyph horiz-adv-x="323" />
<glyph unicode=" "  horiz-adv-x="323" />
<glyph unicode="&#x09;" horiz-adv-x="323" />
<glyph unicode="&#xa0;" horiz-adv-x="323" />
<glyph unicode="!" horiz-adv-x="507" d="M84 0l20 274h269l-21 -274h-268zM123 438l49 955h309l-108 -955h-250z" />
<glyph unicode="&#x22;" horiz-adv-x="673" d="M158 1128v439h207l-56 -439h-151zM463 1128v439h207l-56 -439h-151z" />
<glyph unicode="#" d="M111 557l12 143h131l37 228h-146l11 143h159l54 322h166l-54 -322h146l51 322h166l-53 -322h141l-12 -143h-150l-37 -228h174l-12 -143h-180l-58 -358h-165l57 358h-154l-63 -358h-166l65 358h-120zM418 700h151l37 228h-149z" />
<glyph unicode="$" horiz-adv-x="862" d="M109 92l16 211h317l13 146l-183 256q-109 154 -108 282q0 143 80 236.5t192 111.5l8 127h154l-8 -125q53 0 176 -22l-21 -213h-280l-10 -127l157 -225q139 -199 140 -332q0 -145 -73 -239.5t-200 -115.5l-12 -126h-156l13 124q-123 6 -215 31z" />
<glyph unicode="%" horiz-adv-x="1306" d="M80 958q0 240 84 361q68 92 215 92h756v-127l-791 -1284h-207l793 1268h-332q23 -41 23 -121q0 -281 -101 -381q-63 -68 -190 -68q-250 0 -250 260zM276 854h117l33 414h-117zM723 240v2q0 238 86 358q74 98 203 98q74 0 127 -24.5t78.5 -67.5t37 -86t11.5 -92 q0 -281 -103 -383q-63 -68 -190 -68q-250 1 -250 263zM920 131h116l33 416h-117z" />
<glyph unicode="&#x26;" horiz-adv-x="980" d="M45 322q0 121 55.5 230.5t155.5 178.5q-109 131 -109 301q0 168 105 273q106 106 323 106q117 0 236 -27l-18 -223h-342l-27 -332h96l-18 -229h-119l-33 -377h209l49 606h385l-41 -231h-80l-36 -487q-162 -135 -424 -136q-168 0 -267.5 92.5t-99.5 254.5z" />
<glyph unicode="'" horiz-adv-x="368" d="M158 1128v439h207l-56 -439h-151z" />
<glyph unicode="(" horiz-adv-x="473" d="M66 399q0 303 70.5 607.5t191.5 488.5h143q-86 -211 -138 -522t-52 -565q0 -487 79 -795h-143q-70 131 -110.5 348t-40.5 438z" />
<glyph unicode=")" horiz-adv-x="473" d="M25 -385q88 213 140 523.5t52 563.5q0 489 -82 795h146q70 -133 110.5 -350t40.5 -436q0 -303 -70.5 -607.5t-191.5 -488.5h-145z" />
<glyph unicode="*" horiz-adv-x="509" d="M78 1108l137 57l-129 60q4 27 24.5 62.5t41.5 49.5l102 -88l-10 146q35 14 73 14q41 0 70 -16l-35 -150l115 94q20 -20 36.5 -56t16.5 -62l-139 -58l129 -55q-2 -31 -21.5 -71t-44.5 -52l-104 96l12 -149q-29 -16 -78 -17q-43 0 -65 17l33 151l-113 -94q-20 16 -35.5 52 t-15.5 69z" />
<glyph unicode="+" d="M98 518v193h316v315h200v-315h316v-193h-316v-315h-200v315h-316z" />
<glyph unicode="," horiz-adv-x="450" d="M27 -262l65 555h260l-61 -252q-20 -88 -45 -148.5t-73 -107.5t-112 -47h-34z" />
<glyph unicode="-" horiz-adv-x="491" d="M57 485l17 205h370l-16 -205h-371z" />
<glyph unicode="." horiz-adv-x="475" d="M66 0l24 293h277l-25 -293h-276z" />
<glyph unicode="/" horiz-adv-x="591" d="M-27 0l490 1393h188l-491 -1393h-187z" />
<glyph unicode="0" horiz-adv-x="862" d="M37 502v2q0 190 36 400t111 327q51 80 132 134t178 54q195 0 275.5 -140t80.5 -388q0 -205 -38 -430t-118 -338q-53 -76 -120.5 -115t-186.5 -39q-98 0 -170 46t-109.5 126t-54 168.5t-16.5 192.5zM315 229h179l73 932h-178z" />
<glyph unicode="1" horiz-adv-x="862" d="M223 1163l25 230h414l-107 -1393h-299l96 1163h-129z" />
<glyph unicode="2" horiz-adv-x="862" d="M59 0l21 203l393 739l16 213h-309l23 229q129 31 274 31q326 0 326 -289q0 -168 -119 -389l-270 -499h350l-41 -238h-664z" />
<glyph unicode="3" horiz-adv-x="862" d="M72 12l18 226h354l27 360h-278l20 231h252l24 324h-325l16 231q152 25 264 25q350 0 351 -307q0 -106 -53.5 -214t-151.5 -165q86 -35 133 -117t47 -182q0 -223 -131 -348q-100 -98 -303 -99q-114 0 -264 35z" />
<glyph unicode="4" horiz-adv-x="862" d="M45 465q0 41 16 135l140 793h245l-135 -856h164l72 856h272l-67 -856h122l-40 -230h-97l-24 -307h-275l25 307h-256q-70 0 -116 40t-46 118z" />
<glyph unicode="5" horiz-adv-x="862" d="M90 12l21 226h358l29 372h-211q-74 0 -109 35t-35 111l72 637h608l-41 -240h-317l-43 -317h65q88 0 151.5 -36t93.5 -93.5t42 -109.5t12 -105q0 -123 -34.5 -235t-94.5 -173q-102 -104 -311 -104q-121 -1 -256 32z" />
<glyph unicode="6" horiz-adv-x="862" d="M63 453q0 221 47.5 459.5t143.5 359.5q115 145 340 145q123 0 211 -24l-19 -240h-366l-19 -238h70q365 0 365 -395q0 -121 -35 -243.5t-90 -186.5q-100 -117 -285 -117q-96 0 -166 33t-106.5 79t-58 116.5t-27 126t-5.5 125.5zM342 227h178l37 475h-178z" />
<glyph unicode="7" horiz-adv-x="862" d="M121 0l387 1153h-356l18 240h676l-19 -179l-385 -1214h-321z" />
<glyph unicode="8" horiz-adv-x="862" d="M37 291q0 113 49 223.5t141 181.5q-127 127 -127 308q0 197 113 313q98 102 289 102q106 0 182 -31.5t110.5 -86t49 -105.5t14.5 -111v-2q0 -115 -52 -219t-130 -162q145 -129 145 -329q0 -193 -108 -301q-104 -104 -307 -105q-193 0 -281 93.5t-88 230.5zM319 213h195 l29 383h-193zM360 811h193l27 358h-191z" />
<glyph unicode="9" horiz-adv-x="862" d="M68 834q0 135 35.5 263t93.5 195q104 127 284 127q80 0 142.5 -21.5t99.5 -63.5t62.5 -87t35.5 -105.5t14.5 -105.5t4.5 -102q0 -215 -41 -460t-121 -349q-111 -145 -352 -145q-125 0 -252 32l18 228h389l19 223h-76q-109 0 -183.5 34.5t-110.5 94t-49 117t-13 125.5z M346 674h178l41 489h-178z" />
<glyph unicode=":" horiz-adv-x="487" d="M76 66l20 274h260l-20 -274h-260zM125 705l20 274h261l-21 -274h-260z" />
<glyph unicode=";" horiz-adv-x="487" d="M43 -205l66 553h245l-57 -252q-70 -301 -219 -301h-35zM125 705l20 274h261l-21 -274h-260z" />
<glyph unicode="&#x3c;" d="M131 526v158l756 322v-238l-459 -162l459 -164v-235z" />
<glyph unicode="=" d="M127 334v201h772v-201h-772zM127 686v201h772v-201h-772z" />
<glyph unicode="&#x3e;" d="M137 207v235l459 164l-459 162v238l756 -322v-158z" />
<glyph unicode="?" horiz-adv-x="694" d="M100 1157l21 227q115 33 258 33q338 0 338 -287q0 -221 -166 -397l-141 -147l-13 -148h-258l21 228l219 282l18 209h-297zM109 0l20 274h268l-20 -274h-268z" />
<glyph unicode="@" horiz-adv-x="1345" d="M78 469q0 199 50 427t148 341q162 180 496 180q281 0 409 -121.5t128 -375.5q0 -147 -41 -315.5t-111 -250.5q-39 -45 -104.5 -76.5t-137.5 -31.5q-125 0 -161 106q-78 -104 -187 -104q-164 0 -164 254q0 150 41 308.5t117 240.5q88 94 244 94q102 0 184 -43l-63 -676 h131l67 801h-747l-88 -1063h815l-12 -129q-219 -72 -484 -72q-287 0 -405 119q-125 125 -125 387zM610 426h127l43 528h-125z" />
<glyph unicode="A" horiz-adv-x="899" d="M-33 0l338 1393h502v-1393h-291v381h-182l-74 -381h-293zM367 592h153v579h-41z" />
<glyph unicode="B" horiz-adv-x="942" d="M72 162l96 1231h426q98 0 165.5 -30t96.5 -79t39 -92t10 -90q0 -150 -58.5 -242t-141.5 -125q86 -37 133 -123t47 -194q0 -53 -10.5 -106.5t-37 -111t-67.5 -100.5t-110.5 -71.5t-157.5 -28.5h-244q-186 0 -186 162zM362 229h203l29 385h-201zM406 809h184l28 354h-184z " />
<glyph unicode="C" horiz-adv-x="747" d="M63 473q0 207 40 416t126 334q135 195 369 194q96 0 180 -24l-22 -240h-316l-71 -915h333l-18 -218q-100 -47 -229 -47q-102 0 -177 34t-115 83t-63.5 121t-30 131t-6.5 131z" />
<glyph unicode="D" horiz-adv-x="1009" d="M72 162l98 1231h424q94 0 163.5 -31t108.5 -77t61.5 -114.5t30 -129t7.5 -136.5q0 -195 -37 -410.5t-111 -338.5q-109 -156 -319 -156h-240q-186 0 -186 162zM373 229h221l74 934h-222z" />
<glyph unicode="E" horiz-adv-x="731" d="M72 160l98 1233h578l-21 -240h-285l-26 -330h241l-16 -225h-240l-28 -360h309l-41 -238h-383q-186 0 -186 160z" />
<glyph unicode="F" horiz-adv-x="694" d="M63 0l109 1393h571l-20 -240h-279l-30 -397h229l-18 -232h-224l-39 -524h-299z" />
<glyph unicode="G" horiz-adv-x="925" d="M63 471q0 211 39 420t127 332q135 195 394 194q127 0 235 -24l-22 -240h-400l-74 -924h211l29 361h-104l16 225h371l-58 -711q-139 -125 -356 -124q-106 0 -184 32.5t-120 80.5t-66.5 120t-31 129t-6.5 129z" />
<glyph unicode="H" horiz-adv-x="1015" d="M63 0l111 1393h297l-47 -570h213l45 570h297l-111 -1393h-295l48 596h-213l-48 -596h-297z" />
<glyph unicode="I" horiz-adv-x="509" d="M63 0l111 1393h299l-111 -1393h-299z" />
<glyph unicode="J" horiz-adv-x="512" d="M-86 -127h143l117 1520h301l-110 -1416q-18 -152 -88 -237.5t-234 -85.5q-82 0 -129 18v201z" />
<glyph unicode="K" horiz-adv-x="966" d="M63 0l111 1393h287l-53 -605h65q49 94 117.5 285t99.5 320h320q-37 -133 -133.5 -342t-165.5 -301q72 -18 96 -73.5t24 -152.5v-295h91l-17 -202q-90 -45 -203 -45q-70 0 -112.5 35.5t-42.5 111.5v457h-148l-49 -586h-287z" />
<glyph unicode="L" horiz-adv-x="688" d="M72 158l98 1235h299l-98 -1155h305l-43 -238h-375q-186 0 -186 158z" />
<glyph unicode="M" horiz-adv-x="1378" d="M-12 0l268 1393h375l22 -1037h15l227 1037h385v-1393h-295l33 983h-14l-154 -688q-61 -295 -242 -295q-70 0 -145 27l-45 956h-15l-145 -983h-270z" />
<glyph unicode="N" horiz-adv-x="1040" d="M63 0l111 1393h356l156 -1057h14l43 1057h261l-105 -1366q-113 -43 -207 -43q-84 0 -134 41t-62 139l-119 770h-15l-45 -934h-254z" />
<glyph unicode="O" horiz-adv-x="1019" d="M72 500v2q0 184 39 397t114 330q125 190 348 190q401 0 402 -528q0 -201 -41 -426t-125 -340q-121 -156 -330 -156q-106 0 -184 33t-120 81t-66.5 124t-30.5 140.5t-6 152.5zM373 229h227l74 932h-228z" />
<glyph unicode="P" horiz-adv-x="923" d="M63 0l109 1393h414q338 0 338 -365q0 -53 -6.5 -109.5t-21.5 -127t-47 -132t-77 -113.5t-116.5 -83t-161.5 -31h-101l-31 -432h-299zM403 662h183l39 501h-183z" />
<glyph unicode="Q" horiz-adv-x="1019" d="M72 502q0 184 39 397t114 330q125 190 348 190q401 0 402 -528q0 -199 -44 -424t-132 -334q-82 -100 -221 -127l-13 -121h264l-34 -190q-119 -41 -260 -41q-240 0 -240 180q0 78 45 172q-268 60 -268 496zM373 229h227l74 932h-228z" />
<glyph unicode="R" horiz-adv-x="962" d="M66 0l110 1393h416q86 0 149.5 -21.5t96 -51.5t52 -73t24 -74.5t4.5 -70.5q0 -141 -56.5 -249t-138.5 -155q68 -25 92.5 -79t24.5 -148v-242h90l-19 -202q-90 -45 -200 -45q-70 0 -113 35.5t-43 111.5v422h-154l-43 -551h-292zM408 764h180l33 399h-183z" />
<glyph unicode="S" horiz-adv-x="741" d="M23 6l18 232h336l16 170l-198 321q-102 164 -103 305q0 186 110.5 282.5t293.5 96.5q113 0 219 -20l-21 -240h-286l-17 -147l154 -248q147 -236 147 -383q0 -182 -106.5 -291t-284.5 -109q-133 0 -278 31z" />
<glyph unicode="T" horiz-adv-x="741" d="M33 1151l20 242h783l-43 -242h-224l-84 -1151h-299l88 1151h-241z" />
<glyph unicode="U" horiz-adv-x="999" d="M72 182l96 1211h295l-92 -1164h194l92 1164h297l-94 -1164h88l-14 -190q-102 -57 -225 -57q-145 0 -146 98v20q-57 -47 -140 -82.5t-159 -35.5q-192 -1 -192 200z" />
<glyph unicode="V" horiz-adv-x="935" d="M127 29v1364h307l-33 -1162h45q55 168 126 545t96 617h311q-37 -252 -127 -638t-162 -546q-49 -106 -119.5 -169t-195.5 -63q-119 1 -248 52z" />
<glyph unicode="W" horiz-adv-x="1441" d="M127 29v1364h307l-33 -1162h43q59 166 129 557.5t74 604.5h279l-19 -1162h45q55 174 126 552t91 610h314q-35 -250 -126 -637t-163 -547q-106 -231 -301 -232q-106 0 -188 50l8 534h-15q-43 -289 -108 -428q-76 -156 -248 -156q-121 1 -215 52z" />
<glyph unicode="X" horiz-adv-x="876" d="M-39 0q39 162 123 381t164 354l-139 658h315l63 -545q88 264 138 545h293q-33 -150 -116 -371t-159 -346l94 -447h101l-19 -202q-86 -45 -198 -45q-139 0 -162 157l-58 391q-82 -213 -143 -530h-297z" />
<glyph unicode="Y" horiz-adv-x="858" d="M57 1393h322l78 -697q43 104 104.5 321.5t95.5 375.5h299q-63 -211 -182 -503t-223 -468l-33 -422h-301l45 428z" />
<glyph unicode="Z" horiz-adv-x="804" d="M-8 141q0 72 57 183l418 829h-340l18 240h523q160 0 159 -140q0 -72 -79 -231l-398 -784h406l-41 -238h-568q-66 0 -110.5 32.5t-44.5 108.5z" />
<glyph unicode="[" horiz-adv-x="485" d="M37 -295l131 1704q8 57 25.5 75.5t58.5 18.5h246l-11 -131h-118l-125 -1630h133l-10 -131h-246q-43 0 -63.5 19.5t-20.5 74.5z" />
<glyph unicode="\" horiz-adv-x="591" d="M96 1393h185l241 -1393h-184z" />
<glyph unicode="]" horiz-adv-x="485" d="M2 -389l10 131h119l125 1630h-133l8 131h248q43 0 63.5 -19.5t20.5 -74.5l-131 -1704q-8 -57 -25.5 -75.5t-58.5 -18.5h-246z" />
<glyph unicode="^" d="M94 580l330 755h174l330 -755h-240l-176 473l-178 -473h-240z" />
<glyph unicode="_" d="M-127 -256l21 102h1024l-21 -102h-1024z" />
<glyph unicode="`" d="M342 1393h272l95 -248h-193z" />
<glyph unicode="a" horiz-adv-x="915" d="M53 326q0 162 45 338t144 272q135 129 362 129q131 0 238 -37l-66 -825h98l-14 -176q-92 -49 -209 -50q-68 0 -108.5 27t-40.5 74v22q-94 -123 -226 -123q-223 1 -223 349zM330 203h168l51 637h-170z" />
<glyph unicode="b" horiz-adv-x="890" d="M61 76l119 1491h287l-59 -602q92 92 208 92q72 0 121 -37t69.5 -96.5t28 -106.5t7.5 -96q0 -166 -37 -352.5t-119 -276.5q-109 -121 -293 -121q-96 0 -188.5 30t-143.5 75zM348 205h168l51 637h-170z" />
<glyph unicode="c" horiz-adv-x="653" d="M55 377q0 365 154 563q100 131 274 131q100 0 185 -27l-17 -204h-260l-49 -635h270l-16 -176q-31 -25 -97.5 -41.5t-125.5 -16.5q-318 0 -318 406z" />
<glyph unicode="d" horiz-adv-x="911" d="M55 326q0 164 44 339t145 271q125 123 321 123l37 508h283l-109 -1364h98l-14 -176q-92 -49 -207 -50q-70 0 -110.5 27t-40.5 74v22q-90 -123 -223 -123q-224 1 -224 349zM332 203h168l49 637h-168z" />
<glyph unicode="e" horiz-adv-x="792" d="M51 373q0 156 40 305t120 246q121 150 299 149q145 0 204.5 -72.5t59.5 -181.5q0 -219 -139 -323q-109 -82 -291 -82l-16 -209h366l-14 -176q-133 -57 -277 -58q-352 1 -352 402zM350 578h174l21 262h-172z" />
<glyph unicode="f" horiz-adv-x="548" d="M-82 -240h154l80 1080h-103l14 204h103l12 181q6 72 22.5 127t53.5 111.5t109.5 88t175.5 31.5q51 0 153 -18l-18 -211h-205l-25 -310h191l-35 -204h-168l-72 -932q-10 -139 -86.5 -246.5t-232.5 -107.5q-72 0 -123 22v184z" />
<glyph unicode="g" horiz-adv-x="888" d="M-76 -256q0 100 91 159.5t221 65.5l-17 -209h242l26 332q-94 -86 -206 -86q-90 0 -144.5 58.5t-69 123t-14.5 140.5q0 162 44 337t145 271q131 129 360 129q125 0 240 -37l-70 -889q-23 -317 -123 -438q-121 -141 -413 -141q-312 0 -312 184zM330 205h168l51 635h-170z " />
<glyph unicode="h" horiz-adv-x="942" d="M61 0l125 1567h287l-51 -617q55 47 132 81t148 34q76 0 120 -44t44 -128l-63 -688h96l-14 -178q-96 -45 -213 -45q-158 0 -158 133l61 725h-159l-64 -840h-291z" />
<glyph unicode="i" horiz-adv-x="495" d="M66 115l75 929h293l-78 -839h97l-15 -178q-90 -45 -215 -45q-157 0 -157 133zM152 1200l20 248h297l-20 -248h-297z" />
<glyph unicode="j" horiz-adv-x="485" d="M-106 -240h147l102 1284h289l-92 -1150q-4 -59 -23.5 -116t-55.5 -109t-97.5 -83.5t-140.5 -31.5q-78 0 -129 18v188zM145 1200l21 248h297l-21 -248h-297z" />
<glyph unicode="k" horiz-adv-x="866" d="M61 0l125 1567h279l-80 -924l143 2l41 399h271l-17 -143q-14 -143 -42.5 -216t-84.5 -116l70 -364h88l-16 -178q-86 -45 -183 -45q-147 0 -157 143l-39 350l-80 -31l-37 -444h-281z" />
<glyph unicode="l" horiz-adv-x="499" d="M63 115l115 1452h297l-119 -1362h101l-17 -178q-100 -45 -219 -45q-158 0 -158 133z" />
<glyph unicode="m" horiz-adv-x="1374" d="M61 0l82 1044h285l-6 -94q139 115 276 115q121 0 152 -115q150 115 285 115q76 0 119.5 -44t43.5 -128l-63 -688h96l-14 -178q-96 -45 -213 -45q-158 0 -158 133l62 725h-162l-66 -840h-274l67 840h-155l-66 -840h-291z" />
<glyph unicode="n" horiz-adv-x="942" d="M61 0l82 1044h285l-6 -94q55 47 132 81t148 34q76 0 120 -44t44 -128l-63 -688h96l-14 -178q-96 -45 -213 -45q-158 0 -158 133l61 725h-157l-66 -840h-291z" />
<glyph unicode="o" horiz-adv-x="909" d="M57 389v2q0 330 127 518q106 164 301 164q94 0 164 -31.5t108 -76.5t60.5 -109.5t28.5 -115t6 -107.5q0 -139 -32 -287.5t-93 -232.5q-113 -141 -299 -142q-96 0 -168 32t-109.5 75t-60 105.5t-28 108.5t-5.5 97zM338 205h184l51 635h-184z" />
<glyph unicode="p" horiz-adv-x="886" d="M16 -434l113 1419q193 84 371 84q160 0 248 -93t88 -274q0 -162 -39 -342t-131 -268q-98 -92 -246 -92h-84l-33 -434h-287zM340 205h170l51 637h-170z" />
<glyph unicode="q" horiz-adv-x="899" d="M53 326q0 164 44 339t145 271q70 70 153.5 99.5t208.5 29.5q119 0 238 -37l-117 -1462h-285l49 520q-88 -98 -202 -98q-59 0 -104.5 25.5t-69 61.5t-38 85t-18.5 87t-4 79zM330 203h168l51 637h-170z" />
<glyph unicode="r" horiz-adv-x="602" d="M61 0l82 1044h267l-9 -98q92 147 273 148l-29 -254h-229l-62 -840h-293z" />
<glyph unicode="s" horiz-adv-x="630" d="M14 0l21 205h295l-154 295q-100 164 -100 284.5t76.5 200.5t250.5 80q109 0 201 -21l-16 -202h-262l110 -215q139 -244 139 -363q0 -141 -76.5 -212.5t-242.5 -71.5q-133 0 -242 20z" />
<glyph unicode="t" horiz-adv-x="575" d="M53 840l19 204h98l78 275h213l-23 -275h185l-19 -204h-174l-24 -318l-29 -317h162l-19 -178q-111 -45 -250 -45q-180 0 -180 141l31 360l29 357h-97z" />
<glyph unicode="u" horiz-adv-x="940" d="M63 160l72 884h289l-70 -839h160l70 839h284l-71 -839h98l-16 -178q-90 -45 -209 -45q-152 0 -152 100v18q-125 -121 -282 -120q-173 0 -173 180z" />
<glyph unicode="v" horiz-adv-x="862" d="M111 20v1024h297l-37 -841h37q49 125 107 391t79 450h285q-29 -201 -108 -482t-142 -402q-94 -182 -287 -183q-125 0 -231 43z" />
<glyph unicode="w" horiz-adv-x="1308" d="M109 20v1024h297l-39 -841h36q51 121 117 405.5t72 435.5h262l-37 -841h37q49 125 107.5 391t78.5 450h285q-29 -201 -107.5 -481t-140.5 -397q-94 -188 -282 -189q-84 0 -166 39l18 414h-14q-41 -211 -105 -326q-74 -127 -227 -127q-102 0 -192 43z" />
<glyph unicode="x" horiz-adv-x="821" d="M-16 0q25 104 102.5 288.5t138.5 284.5l-57 269h-94l16 186q25 12 79 23.5t87 11.5q88 0 123 -40t43 -114l31 -245q80 176 116 380h267q-20 -102 -94 -272t-146 -272l74 -295h106l-14 -178q-86 -45 -193 -45q-82 0 -111.5 33.5t-43.5 115.5l-41 258q-31 -70 -68 -190.5 t-51 -198.5h-270z" />
<glyph unicode="y" horiz-adv-x="856" d="M86 -242h205q70 127 115 310q-82 -68 -177 -68q-129 0 -129 158v886h295l-35 -847h74q31 111 81 402.5t67 444.5h284q-33 -233 -123 -629.5t-165 -602.5q-57 -152 -114.5 -208.5t-164.5 -56.5q-90 0 -213 43v168z" />
<glyph unicode="z" horiz-adv-x="708" d="M12 133q0 70 51 158l306 549h-271l21 204h428q70 0 106.5 -34.5t36.5 -100.5q0 -78 -90 -233l-268 -471h330l-35 -205h-455q-160 0 -160 133z" />
<glyph unicode="{" horiz-adv-x="505" d="M-6 502l10 129h59q57 0 80 25.5t27 99.5l25 559q4 184 135 184h188l-10 -131h-109l-41 -633q-20 -152 -135 -164q63 -14 85 -52t22 -116l-56 -661h121l-8 -131h-182q-76 0 -106.5 30.5t-30.5 102.5l71 662q0 55 -13 75.5t-63 20.5h-69z" />
<glyph unicode="|" horiz-adv-x="477" d="M150 -510v2048h180v-2048h-180z" />
<glyph unicode="}" horiz-adv-x="505" d="M2 -389l8 131h111l41 645q18 150 135 164q-63 12 -86 50t-23 116l56 651h-121l10 131h182q76 0 107 -30.5t31 -104.5l-72 -637q0 -55 13.5 -76.5t62.5 -21.5h69l-12 -129h-57q-57 0 -80 -24.5t-27 -98.5l-24 -582q-4 -184 -136 -184h-188z" />
<glyph unicode="~" d="M94 545q14 106 79 176t167 70q82 0 188 -64q109 -66 156 -65q45 0 70.5 28.5t40.5 93.5l147 -106q-14 -106 -77.5 -175t-166.5 -69q-84 0 -198 66q-100 63 -152 63q-76 0 -100 -123z" />
<glyph unicode="&#xa1;" horiz-adv-x="507" d="M37 -301l108 954h250l-49 -954h-309zM145 817l21 275h268l-20 -275h-269z" />
<glyph unicode="&#xa2;" horiz-adv-x="862" d="M100 555q4 362 152 561q66 88 172 115l8 129h152l-11 -117q72 0 138 -20l-17 -205h-256l-51 -635h268l-16 -176q-27 -16 -77 -28.5t-85 -14.5l-8 -131h-150l9 135q-228 39 -228 387z" />
<glyph unicode="&#xa3;" horiz-adv-x="862" d="M88 598l14 201h111l8 84q16 158 45 246t90 161q104 125 312 125q98 0 186 -18l-18 -217h-299l-37 -381h213l-17 -201h-213l-32 -360h376l-45 -238h-639l54 598h-109z" />
<glyph unicode="&#xa4;" d="M37 270l121 123q-66 102 -66 225q0 127 68 230l-123 123l127 129l125 -125q102 63 223 63q125 0 223 -63l125 125l127 -129l-123 -123q68 -102 68 -230q0 -123 -66 -225l121 -123l-127 -129l-123 123q-102 -66 -225 -65q-121 0 -225 65l-123 -123zM279 618.5 q0 -96.5 68.5 -165t164.5 -68.5t164.5 68.5t68.5 165t-68.5 165t-164.5 68.5h-2q-96 0 -163.5 -68.5t-67.5 -165z" />
<glyph unicode="&#xa5;" horiz-adv-x="862" d="M61 1393h306l102 -594q117 289 193 594h294q-49 -139 -142 -341t-159 -315h152l-12 -149h-224l-10 -127h225l-12 -150h-227l-23 -311h-284l32 311h-202l12 150h199l12 127h-203l12 149h148z" />
<glyph unicode="&#xa6;" horiz-adv-x="477" d="M150 -356v714h180v-714h-180zM150 666v716h180v-716h-180z" />
<glyph unicode="&#xa7;" horiz-adv-x="909" d="M72 14l16 199h307l-227 494q-76 160 -76 299q0 403 465 403q150 0 301 -20l-20 -205h-295l200 -420q104 -209 105 -369q0 -412 -428 -411q-149 -1 -348 30zM299 915l324 -735l28 301l-327 723z" />
<glyph unicode="&#xa8;" d="M287 1180l16 213h209l-16 -213h-209zM608 1180l17 213h209l-17 -213h-209z" />
<glyph unicode="&#xa9;" horiz-adv-x="1218" d="M78 465v2q0 629 192 821q121 121 414 121q246 0 350 -96q61 -57 90 -143.5t29 -237.5q0 -659 -188 -836q-123 -115 -416 -114q-246 0 -352 100q-61 57 -90 143t-29 240zM219 475q0 -225 82 -295q76 -66 254 -65q129 0 195.5 18.5t117.5 67.5q143 139 144 717 q0 225 -82 296q-76 66 -252 66q-217 0 -311 -86q-147 -135 -148 -717v-2zM346 553q0 135 27.5 270t85.5 217q90 127 250 127q92 0 147 -18l-16 -184h-213l-41 -541h219l-17 -166q-70 -35 -176 -35q-266 0 -266 330z" />
<glyph unicode="&#xaa;" horiz-adv-x="745" d="M100 924q0 98 36 211.5t102 177.5q98 90 256 90q121 0 206 -25l-41 -508h64l-12 -143q-80 -31 -144 -31q-53 0 -89 19.5t-36 52.5v18q-82 -90 -180 -90q-162 1 -162 228zM324 870h118l29 365h-119z" />
<glyph unicode="&#xab;" horiz-adv-x="714" d="M39 559l211 385h176l-184 -385l118 -354h-167zM344 559l180 385h178l-157 -385l90 -354h-168z" />
<glyph unicode="&#xac;" d="M119 598v203h774v-494h-213v291h-561z" />
<glyph unicode="&#xad;" horiz-adv-x="491" d="M57 485l17 205h370l-16 -205h-371z" />
<glyph unicode="&#xae;" horiz-adv-x="614" d="M72 1010v2q0 270 94 354q59 53 213 53q133 0 186 -45q63 -53 64 -176q0 -266 -92 -350q-66 -59 -213 -60q-141 0 -196.5 49.5t-55.5 172.5zM158 1016q0 -94 37 -123q33 -25 127 -25q113 0 157 39q63 55 64 287q0 100 -43 129q-37 25 -125 25q-109 0 -154 -35 q-63 -51 -63 -295v-2zM217 920l31 374h147q86 0 86 -82q0 -78 -53 -110q35 -12 35 -60v-57h18l-6 -59q-20 -12 -59 -13q-45 0 -45 43v105h-49l-11 -141h-94zM324 1128h57l8 97h-57z" />
<glyph unicode="&#xaf;" d="M332 1204l14 174h475l-14 -174h-475z" />
<glyph unicode="&#x2c9;" d="M332 1204l14 174h475l-14 -174h-475z" />
<glyph unicode="&#xb0;" horiz-adv-x="700" d="M115 1151q0 121 83 201t205 80h5q121 0 203.5 -80t82.5 -201t-84 -201t-206.5 -80t-205.5 80t-83 201zM256 1151q0 -66 42 -110t105 -44q66 0 108 44t42 110t-42 110t-108 44h-2q-63 0 -104 -44t-41 -110z" />
<glyph unicode="&#xb1;" d="M127 209v197h772v-197h-772zM127 731v187h287v260h200v-260h285v-187h-285v-258h-200v258h-287z" />
<glyph unicode="&#xb2;" horiz-adv-x="522" d="M68 672l12 106l219 371l8 90h-168l15 143q78 23 176 23q82 0 135 -43t53 -119q0 -104 -63 -201l-136 -221h181l-31 -149h-401z" />
<glyph unicode="&#xb3;" horiz-adv-x="522" d="M84 678l12 143h183l12 156h-144l11 129h129l12 137h-170l12 146q80 14 150 14q98 0 155.5 -41t57.5 -123q0 -53 -27.5 -108.5t-79.5 -86.5q94 -37 95 -155q0 -111 -70 -174q-51 -55 -174 -56q-88 1 -164 19z" />
<glyph unicode="&#xb4;" d="M389 1145l131 248h271l-209 -248h-193z" />
<glyph unicode="&#xb5;" horiz-adv-x="952" d="M23 -258l116 1302h287l-72 -839h170l72 839h285l-74 -839h98l-18 -178q-90 -45 -209 -45q-139 0 -139 88v16q-18 -33 -58.5 -59.5t-85.5 -26.5q-35 0 -63 18l-17 -276h-292z" />
<glyph unicode="&#x3bc;" horiz-adv-x="952" d="M23 -258l116 1302h287l-72 -839h170l72 839h285l-74 -839h98l-18 -178q-90 -45 -209 -45q-139 0 -139 88v16q-18 -33 -58.5 -59.5t-85.5 -26.5q-35 0 -63 18l-17 -276h-292z" />
<glyph unicode="&#xb6;" horiz-adv-x="845" d="M66 467q0 158 43 327t124 257q129 139 342 139q129 0 240 -43l-8 -103h-98l-76 -911h121l-6 -96q-111 -55 -291 -55q-104 0 -180 33.5t-116 81.5t-62.5 120t-27.5 126t-5 124zM387 133h133l74 911h-135z" />
<glyph unicode="&#xb7;" horiz-adv-x="475" d="M98 451l25 292h276l-24 -292h-277z" />
<glyph unicode="&#x2219;" horiz-adv-x="475" d="M98 451l25 292h276l-24 -292h-277z" />
<glyph unicode="&#xb8;" d="M326 -215h120l9 72h-119l55 143h129l-31 -72h23q39 0 71.5 -21.5t32.5 -76.5q0 -86 -88 -125t-202 -39v119z" />
<glyph unicode="&#xb9;" horiz-adv-x="522" d="M170 1253l12 140h264l-53 -721h-203l48 581h-68z" />
<glyph unicode="&#xba;" horiz-adv-x="745" d="M102 981v2q0 213 84 321.5t234 108.5q154 0 217 -87t63 -206q0 -229 -88 -329q-82 -92 -223 -93q-287 0 -287 283zM322 874h131l28 365h-131z" />
<glyph unicode="&#xbb;" horiz-adv-x="731" d="M37 205l158 385l-91 354h168l123 -354l-180 -385h-178zM313 205l185 385l-119 354h168l153 -354l-211 -385h-176z" />
<glyph unicode="&#xbc;" horiz-adv-x="1273" d="M174 1253l12 140h265l-54 -721h-202l47 581h-68zM176 0l694 1393h183l-695 -1393h-182zM702 242q0 25 9 69l86 414h153l-57 -426h78l35 426h176l-33 -426h63l-22 -147h-51l-13 -152h-178l13 152h-156q-103 0 -103 90z" />
<glyph unicode="&#xbd;" horiz-adv-x="1273" d="M174 1253l12 140h265l-54 -721h-202l47 581h-68zM176 0l694 1393h183l-695 -1393h-182zM725 0l12 106l219 371l7 90h-166l14 144q78 23 176 22q82 0 135.5 -43t53.5 -119q0 -104 -62 -200l-137 -221h186l-26 -150h-412z" />
<glyph unicode="&#xbe;" horiz-adv-x="1273" d="M84 678l12 143h183l12 156h-144l11 129h129l12 137h-170l12 146q80 14 150 14q98 0 155.5 -41t57.5 -123q0 -53 -27.5 -108.5t-79.5 -86.5q94 -37 95 -155q0 -111 -70 -174q-51 -55 -174 -56q-88 1 -164 19zM176 0l696 1393h181l-695 -1393h-182zM705 242q0 37 6 69 l88 414h153l-57 -426h78l35 426h176l-33 -426h63l-22 -147h-51l-13 -152h-178l13 152h-156q-102 0 -102 90z" />
<glyph unicode="&#xbf;" horiz-adv-x="694" d="M-4 -37q0 225 166 397l141 148l10 147h260l-20 -227l-219 -283l-19 -208h297l-20 -228q-119 -33 -260 -33q-336 0 -336 287zM313 819l21 275h268l-20 -275h-269z" />
<glyph unicode="&#xc0;" horiz-adv-x="899" d="M-33 0l338 1393h502v-1393h-291v381h-182l-74 -381h-293zM297 1712h272l95 -244h-193zM367 592h153v579h-41z" />
<glyph unicode="&#xc1;" horiz-adv-x="899" d="M-33 0l338 1393h502v-1393h-291v381h-182l-74 -381h-293zM367 592h153v579h-41zM461 1468l131 244h270l-209 -244h-192z" />
<glyph unicode="&#xc2;" horiz-adv-x="899" d="M-33 0l338 1393h502v-1393h-291v381h-182l-74 -381h-293zM276 1468l195 244h213l152 -244h-160l-109 105l-133 -105h-158zM367 592h153v579h-41z" />
<glyph unicode="&#xc3;" horiz-adv-x="899" d="M-31 0l338 1393h500v-1393h-291v381h-182l-74 -381h-291zM289 1473q0 236 164 235q53 0 114 -29l117 -51l8 84h160q0 -113 -32 -177.5t-122 -64.5q-61 0 -129 33l-116 49l-9 -79h-155zM367 592h153v579h-41z" />
<glyph unicode="&#xc4;" horiz-adv-x="899" d="M-33 0l338 1393h502v-1393h-291v381h-182l-74 -381h-293zM293 1495l16 217h209l-16 -217h-209zM367 592h153v579h-41zM612 1495l19 217h207l-17 -217h-209z" />
<glyph unicode="&#xc5;" horiz-adv-x="899" d="M-33 0l338 1393h502v-1393h-291v381h-182l-74 -381h-293zM362 1593v2q0 86 56.5 146.5t163.5 60.5q100 0 145 -49t45 -113q0 -88 -54 -147t-161 -59q-102 0 -148.5 49t-46.5 110zM367 592h153v579h-41zM496 1550h131l10 133h-131z" />
<glyph unicode="&#xc6;" horiz-adv-x="1124" d="M-51 0l368 1393h824l-21 -240h-284l-27 -330h242l-17 -225h-239l-29 -360h307l-41 -238h-348q-186 0 -186 160l18 221h-190l-88 -381h-289zM373 592h157l45 579h-61z" />
<glyph unicode="&#xc7;" horiz-adv-x="747" d="M66 473q0 209 38.5 418t126.5 332q133 195 369 194q94 0 178 -24l-20 -240h-316l-73 -915h333l-16 -218q-86 -35 -205 -40l-20 -52h22q39 0 72 -22.5t33 -75.5q0 -86 -88 -125t-203 -39v119h121l8 72h-119l49 129q-76 14 -131 53t-84.5 86t-48 112.5t-22.5 117.5t-4 118z " />
<glyph unicode="&#xc8;" horiz-adv-x="731" d="M72 160l98 1233h578l-21 -240h-285l-26 -330h241l-16 -225h-240l-28 -360h309l-41 -238h-383q-186 0 -186 160zM207 1712h270l94 -244h-190z" />
<glyph unicode="&#xc9;" horiz-adv-x="731" d="M72 160l98 1233h578l-19 -240h-285l-26 -330h241l-16 -225h-242l-28 -360h309l-41 -238h-383q-186 0 -186 160zM371 1468l129 244h272l-211 -244h-190z" />
<glyph unicode="&#xca;" horiz-adv-x="731" d="M72 160l98 1233h578l-21 -240h-285l-26 -330h241l-16 -225h-240l-28 -360h309l-41 -238h-383q-186 0 -186 160zM190 1468l195 244h211l152 -244h-158l-111 105l-131 -105h-158z" />
<glyph unicode="&#xcb;" horiz-adv-x="731" d="M72 160l98 1233h580l-21 -240h-285l-26 -330h244l-17 -225h-244l-26 -360h309l-41 -238h-385q-186 0 -186 160zM205 1495l16 217h209l-16 -217h-209zM526 1495l17 217h209l-17 -217h-209z" />
<glyph unicode="&#xcc;" horiz-adv-x="509" d="M63 0l111 1393h299l-111 -1393h-299zM63 1712h271l94 -244h-190z" />
<glyph unicode="&#xcd;" horiz-adv-x="509" d="M63 0l111 1393h299l-111 -1393h-299zM227 1468l129 244h273l-211 -244h-191z" />
<glyph unicode="&#xce;" horiz-adv-x="509" d="M47 1468l195 244h213l151 -244h-160l-108 105l-131 -105h-160zM63 0l111 1393h299l-111 -1393h-299z" />
<glyph unicode="&#xcf;" horiz-adv-x="509" d="M63 1495l17 217h209l-17 -217h-209zM66 0l108 1393h299l-108 -1393h-299zM383 1495l16 217h209l-16 -217h-209z" />
<glyph unicode="&#xd0;" horiz-adv-x="1011" d="M27 614l14 195h84l47 584h424q117 0 195.5 -43t114.5 -121t48.5 -151.5t12.5 -172.5q0 -197 -36 -411.5t-110 -337.5q-109 -156 -321 -156h-240q-186 0 -186 162l37 452h-84zM375 229h221l74 934h-221l-27 -354h113l-17 -195h-112z" />
<glyph unicode="&#xd1;" horiz-adv-x="1040" d="M63 0l111 1393h356l156 -1057h14l43 1057h258l-104 -1366q-109 -43 -205 -43q-172 0 -198 180l-117 770h-15l-45 -934h-254zM346 1473q0 236 164 235q53 0 115 -29l116 -51l9 84h159q0 -113 -31.5 -177.5t-121.5 -64.5q-61 0 -129 33l-117 49l-8 -79h-156z" />
<glyph unicode="&#xd2;" horiz-adv-x="1019" d="M72 500v2q0 184 39 397t114 330q125 190 348 190q401 0 402 -528q0 -201 -41 -426t-125 -340q-121 -156 -330 -156q-106 0 -184 33t-120 81t-66.5 124t-30.5 140.5t-6 152.5zM307 1712h271l94 -244h-191zM373 229h227l74 932h-228z" />
<glyph unicode="&#xd3;" horiz-adv-x="1019" d="M72 500v2q0 184 39 397t114 330q125 190 348 190q401 0 402 -528q0 -201 -41 -426t-125 -340q-121 -156 -330 -156q-106 0 -184 33t-120 81t-66.5 124t-30.5 140.5t-6 152.5zM373 229h227l74 932h-228zM477 1468l131 244h271l-209 -244h-193z" />
<glyph unicode="&#xd4;" horiz-adv-x="1019" d="M72 500v2q0 184 39 397t114 330q125 190 348 190q401 0 402 -528q0 -201 -41 -426t-125 -340q-121 -156 -330 -156q-106 0 -184 33t-120 81t-66.5 124t-30.5 140.5t-6 152.5zM297 1468l195 244h213l151 -244h-160l-108 105l-133 -105h-158zM373 229h227l74 932h-228z" />
<glyph unicode="&#xd5;" horiz-adv-x="1019" d="M74 500v2q0 182 38 396t113 331q125 190 348 190q399 0 400 -528q0 -203 -40 -427t-124 -339q-121 -156 -330 -156q-106 0 -184 33t-120 81t-65.5 124t-29.5 140.5t-6 152.5zM303 1473q0 236 164 235q53 0 115 -29l116 -51l9 84h159q0 -113 -31.5 -177.5t-121.5 -64.5 q-61 0 -129 33l-117 49l-8 -79h-156zM373 229h227l74 932h-228z" />
<glyph unicode="&#xd6;" horiz-adv-x="1019" d="M74 500v2q0 184 39 397t114 330q125 190 348 190q399 0 400 -528q0 -203 -40 -427t-124 -339q-121 -156 -330 -156q-106 0 -184 33t-120 81t-66.5 124t-30.5 140.5t-6 152.5zM317 1495l17 217h209l-17 -217h-209zM375 229h227l72 932h-225zM637 1495l16 217h209l-16 -217 h-209z" />
<glyph unicode="&#xd7;" d="M150 834l139 139l225 -228l227 228l136 -135l-228 -228l228 -225l-140 -139l-225 227l-225 -227l-135 135l225 227z" />
<glyph unicode="&#xd8;" horiz-adv-x="1019" d="M-8 0l129 203q-49 113 -49 295q0 186 39 400t114 331q125 190 348 190q182 0 275 -119l53 93h156l-137 -211q55 -123 55 -295q0 -197 -41 -422t-125 -340q-121 -156 -330 -156q-184 0 -286 113l-50 -82h-151zM373 229h237l47 602l-276 -479zM389 563l275 477l10 121h-236 z" />
<glyph unicode="&#xd9;" horiz-adv-x="999" d="M72 182l96 1211h295l-92 -1164h194l92 1164h297l-94 -1164h88l-14 -190q-102 -57 -225 -57q-145 0 -146 98v20q-57 -47 -140 -82.5t-159 -35.5q-192 -1 -192 200zM309 1712h271l94 -244h-191z" />
<glyph unicode="&#xda;" horiz-adv-x="999" d="M72 182l96 1211h295l-92 -1164h194l92 1164h297l-94 -1164h88l-14 -190q-102 -57 -225 -57q-145 0 -146 98v20q-57 -47 -140 -82.5t-159 -35.5q-192 -1 -192 200zM473 1468l129 244h272l-210 -244h-191z" />
<glyph unicode="&#xdb;" horiz-adv-x="999" d="M72 182l96 1211h295l-92 -1164h194l92 1164h297l-94 -1164h88l-14 -190q-102 -57 -225 -57q-145 0 -146 98v20q-57 -47 -140 -82.5t-159 -35.5q-192 -1 -192 200zM287 1468l194 244h213l152 -244h-160l-108 105l-132 -105h-159z" />
<glyph unicode="&#xdc;" horiz-adv-x="999" d="M72 182l96 1211h297l-94 -1164h196l92 1164h297l-94 -1164h88l-14 -190q-102 -57 -225 -57q-145 0 -146 98v20q-59 -47 -142 -82.5t-159 -35.5q-192 -1 -192 200zM301 1495l16 217h209l-16 -217h-209zM623 1495l16 217h209l-17 -217h-208z" />
<glyph unicode="&#xdd;" horiz-adv-x="858" d="M57 1393h322l78 -697q43 104 104.5 321.5t95.5 375.5h299q-63 -211 -182 -503t-223 -468l-33 -422h-301l45 428zM399 1468l131 244h271l-209 -244h-193z" />
<glyph unicode="&#xde;" horiz-adv-x="931" d="M63 0l111 1393h299l-14 -193h114q338 0 338 -364q0 -53 -6 -109.5t-21.5 -127.5t-47 -132t-76.5 -113.5t-117 -83t-162 -30.5h-100l-16 -240h-302zM391 469h182l39 502h-182z" />
<glyph unicode="&#xdf;" horiz-adv-x="985" d="M-84 -240h156l78 1080h-103l14 204h103l14 199q6 70 25.5 124t64.5 106.5t131 81t209 28.5q193 0 287 -84q76 -68 76 -188q0 -123 -84 -285l-129 -240l104 -225q96 -203 96 -313q0 -154 -82.5 -210t-218.5 -56q-88 0 -198 18l16 205h232l-152 342q-49 113 -49 203 q0 96 55 223l162 381h-258l-105 -1448q-10 -139 -85.5 -245.5t-235.5 -106.5q-72 0 -123 22v184z" />
<glyph unicode="&#xe0;" horiz-adv-x="915" d="M53 326q0 162 45 338t144 272q135 129 362 129q131 0 238 -37l-66 -825h98l-14 -176q-92 -49 -209 -50q-68 0 -108.5 27t-40.5 74v22q-94 -123 -226 -123q-223 1 -223 349zM317 1393h273l94 -248h-192zM330 203h168l51 637h-170z" />
<glyph unicode="&#xe1;" horiz-adv-x="915" d="M53 326q0 162 45 338t144 272q135 129 362 129q131 0 238 -37l-66 -825h98l-14 -176q-92 -49 -209 -50q-68 0 -108.5 27t-40.5 74v22q-94 -123 -226 -123q-223 1 -223 349zM330 203h168l51 637h-170zM463 1145l129 248h272l-211 -248h-190z" />
<glyph unicode="&#xe2;" horiz-adv-x="915" d="M53 326q0 162 45 338t144 272q135 129 362 129q131 0 238 -37l-66 -825h98l-14 -176q-92 -49 -209 -50q-68 0 -108.5 27t-40.5 74v22q-94 -123 -226 -123q-223 1 -223 349zM281 1145l192 248h219l148 -248h-168l-101 112l-122 -112h-168zM330 203h168l51 637h-170z" />
<glyph unicode="&#xe3;" horiz-adv-x="915" d="M55 326q0 162 45 338t144 272q72 70 155.5 99.5t206.5 29.5q129 0 236 -37l-66 -825h98l-14 -176q-92 -49 -207 -50q-70 0 -110.5 27t-40.5 74v22q-94 -123 -223 -123q-224 1 -224 349zM274 1167q0 238 164 238q53 0 115 -29l117 -51l8 84h160q0 -113 -32 -177.5 t-122 -64.5q-61 0 -129 33l-117 49l-8 -82h-156zM330 203h170l49 637h-168z" />
<glyph unicode="&#xe4;" horiz-adv-x="915" d="M55 326q0 162 45 338t144 272q135 129 362 129q127 0 238 -37l-66 -825h96l-14 -176q-92 -49 -207 -50q-68 0 -108.5 27t-40.5 74v22q-94 -123 -225 -123q-224 1 -224 349zM299 1180l16 213h209l-16 -213h-209zM332 203h168l51 637h-170zM618 1180l17 213h209l-17 -213 h-209z" />
<glyph unicode="&#xe5;" horiz-adv-x="915" d="M55 326q0 164 44 339t143 271q137 129 364 129q127 0 238 -37l-68 -825h98l-14 -176q-92 -49 -207 -50q-70 0 -110.5 27t-40.5 74v22q-94 -123 -223 -123q-224 1 -224 349zM330 203h168l51 637h-168zM362 1280v2q0 86 56.5 146.5t165.5 60.5q100 0 145 -49t45 -113 q0 -90 -54 -149.5t-163 -59.5q-102 0 -148.5 49.5t-46.5 112.5zM496 1235h133l10 135h-133z" />
<glyph unicode="&#xe6;" horiz-adv-x="1243" d="M55 330q0 160 44 335t143 271q137 129 360 129q84 0 166 -14l-12 -117q104 129 252 129q119 0 169 -72.5t50 -171.5q0 -100 -37 -187t-103 -136q-113 -82 -286 -82l-17 -209h361l-12 -176q-141 -57 -279 -58q-211 0 -305 142q-129 -133 -268 -133q-226 0 -226 350z M330 205h170l49 637h-168zM809 578h168l20 264h-168z" />
<glyph unicode="&#xe7;" horiz-adv-x="653" d="M55 377q0 367 152 563q104 131 276 131q100 0 185 -27l-17 -204h-260l-51 -635h272l-16 -178q-29 -18 -86 -31.5t-100 -15.5l-23 -52h23q39 0 71.5 -22.5t32.5 -75.5q0 -86 -88 -125t-203 -39v119h121l8 72h-119l50 127q-228 49 -228 393z" />
<glyph unicode="&#xe8;" horiz-adv-x="792" d="M51 373q0 156 40 305t120 246q121 150 299 149q145 0 204.5 -72.5t59.5 -181.5q0 -219 -139 -323q-109 -82 -291 -82l-16 -209h366l-14 -176q-133 -57 -277 -58q-352 1 -352 402zM238 1393h270l94 -248h-190zM350 578h174l21 262h-172z" />
<glyph unicode="&#xe9;" horiz-adv-x="792" d="M51 373q0 156 40 305t120 246q121 150 299 149q145 0 204.5 -72.5t59.5 -181.5q0 -219 -139 -323q-109 -82 -291 -82l-16 -209h366l-14 -176q-133 -57 -277 -58q-352 1 -352 402zM350 578h174l21 262h-172zM393 1145l129 248h271l-209 -248h-191z" />
<glyph unicode="&#xea;" horiz-adv-x="792" d="M51 373q0 156 40 305t120 246q121 150 299 149q145 0 204.5 -72.5t59.5 -181.5q0 -219 -139 -323q-109 -82 -291 -82l-16 -209h366l-14 -176q-133 -57 -277 -58q-352 1 -352 402zM219 1145l191 248h219l147 -248h-168l-100 112l-123 -112h-166zM350 578h174l21 262h-172z " />
<glyph unicode="&#xeb;" horiz-adv-x="792" d="M51 373q0 156 40 305t120 246q121 150 299 149q145 0 204.5 -72.5t59.5 -181.5q0 -219 -139 -323q-109 -82 -291 -82l-16 -209h368l-16 -176q-133 -57 -277 -58q-352 1 -352 402zM231 1180l17 213h209l-17 -213h-209zM350 578h174l21 262h-172zM553 1180l16 213h209 l-16 -213h-209z" />
<glyph unicode="&#xec;" horiz-adv-x="495" d="M53 1393h271l94 -248h-191zM66 115l75 929h291l-76 -839h97l-15 -178q-94 -45 -215 -45q-157 0 -157 133z" />
<glyph unicode="&#xed;" horiz-adv-x="495" d="M66 115l75 929h291l-76 -839h97l-15 -178q-94 -45 -215 -45q-157 0 -157 133zM190 1145l132 248h270l-211 -248h-191z" />
<glyph unicode="&#xee;" horiz-adv-x="495" d="M18 1145l193 248h219l148 -248h-170l-99 112l-123 -112h-168zM66 115l75 929h291l-78 -839h97l-15 -178q-90 -45 -213 -45q-43 0 -72.5 6t-57 38t-27.5 89z" />
<glyph unicode="&#xef;" horiz-adv-x="495" d="M66 115l73 929h293l-78 -839h99l-15 -178q-94 -45 -215 -45q-43 0 -72.5 6t-57 38t-27.5 89zM70 1180l16 213h201l-17 -213h-200zM348 1180l17 213h200l-16 -213h-201z" />
<glyph unicode="&#xf0;" horiz-adv-x="901" d="M55 389q0 143 33 284.5t98 229.5q100 141 357 141l-111 173l-246 -130l15 195l143 70l-141 215h235q61 -49 117 -121l223 110l-16 -194l-100 -51q188 -266 188 -621q0 -172 -32 -334.5t-95 -244.5q-111 -139 -297 -140q-371 0 -371 418zM336 205h184l51 635h-184z" />
<glyph unicode="&#xf1;" horiz-adv-x="942" d="M61 0l82 1044h283l-6 -94q139 115 285 115q74 0 116.5 -43t42.5 -129l-63 -688h96l-14 -178q-96 -45 -213 -45q-158 0 -158 133l63 725h-159l-66 -840h-289zM256 1167q0 238 164 238q53 0 115 -29l116 -51l8 84h160q0 -113 -31.5 -177.5t-121.5 -64.5q-61 0 -129 33 l-117 49l-8 -82h-156z" />
<glyph unicode="&#xf2;" horiz-adv-x="909" d="M57 389v2q0 330 127 518q106 164 301 164q94 0 164 -31.5t108 -76.5t60.5 -109.5t28.5 -115t6 -107.5q0 -139 -32 -287.5t-93 -232.5q-113 -141 -299 -142q-96 0 -168 32t-109.5 75t-60 105.5t-28 108.5t-5.5 97zM240 1393h272l94 -248h-192zM338 205h184l51 635h-184z " />
<glyph unicode="&#xf3;" horiz-adv-x="909" d="M57 389v2q0 330 127 518q106 164 301 164q94 0 164 -31.5t108 -76.5t60.5 -109.5t28.5 -115t6 -107.5q0 -139 -32 -287.5t-93 -232.5q-113 -141 -299 -142q-96 0 -168 32t-109.5 75t-60 105.5t-28 108.5t-5.5 97zM338 205h184l51 635h-184zM401 1145l129 248h273 l-211 -248h-191z" />
<glyph unicode="&#xf4;" horiz-adv-x="909" d="M57 389v2q0 330 127 518q106 164 301 164q94 0 164 -31.5t108 -76.5t60.5 -109.5t28.5 -115t6 -107.5q0 -139 -32 -287.5t-93 -232.5q-113 -141 -299 -142q-96 0 -168 32t-109.5 75t-60 105.5t-28 108.5t-5.5 97zM221 1145l193 248h219l147 -248h-168l-100 112l-123 -112 h-168zM338 205h184l51 635h-184z" />
<glyph unicode="&#xf5;" horiz-adv-x="909" d="M59 389v2q0 139 32 281.5t93 236.5q106 164 301 164q94 0 164 -31.5t107 -76.5t59.5 -109.5t28.5 -115t6 -107.5q0 -137 -32 -286.5t-91 -233.5q-113 -141 -299 -142q-96 0 -168 32t-108.5 75t-59 105.5t-28 108.5t-5.5 97zM225 1167q0 238 164 238q53 0 115 -29l117 -51 l8 84h159q0 -113 -31.5 -177.5t-121.5 -64.5q-61 0 -129 33l-117 49l-8 -82h-156zM338 205h184l51 635h-184z" />
<glyph unicode="&#xf6;" horiz-adv-x="909" d="M59 389v2q0 141 32 283.5t95 234.5q106 164 299 164q94 0 164 -31.5t108 -76.5t60.5 -109.5t28.5 -115t6 -107.5q0 -139 -32 -287.5t-93 -232.5q-109 -141 -297 -142q-96 0 -168 32t-109.5 75t-60 105.5t-28 108.5t-5.5 97zM238 1180l16 213h209l-17 -213h-208zM340 205 h184l51 635h-182zM557 1180l16 213h209l-16 -213h-209z" />
<glyph unicode="&#xf7;" d="M98 508v192h830v-192h-830zM391 287q0 51 35 86t86 35h2q49 0 84 -35t35 -86t-35 -86t-86 -35t-86 35t-35 86zM391 921.5q0 51.5 35 86t86 34.5h2q49 0 84 -34.5t35 -86t-35 -86t-86 -34.5t-86 34.5t-35 86z" />
<glyph unicode="&#xf8;" horiz-adv-x="909" d="M-2 0l117 162q-53 88 -54 237q0 326 125 510q106 164 301 164q152 0 238 -94l41 65h147l-118 -163q55 -102 55 -256q0 -139 -31 -283.5t-92 -228.5q-109 -141 -299 -142q-143 0 -246 92l-41 -63h-143zM340 205h192l33 409l-219 -348zM350 436l223 352l2 52h-192z" />
<glyph unicode="&#xf9;" horiz-adv-x="940" d="M63 160l72 884h289l-70 -839h160l70 839h284l-71 -839h98l-16 -178q-90 -45 -209 -45q-152 0 -152 100v18q-125 -121 -282 -120q-173 0 -173 180zM258 1393h270l95 -248h-191z" />
<glyph unicode="&#xfa;" horiz-adv-x="940" d="M63 160l72 884h289l-70 -839h160l70 839h284l-71 -839h98l-16 -178q-90 -45 -209 -45q-152 0 -152 100v18q-125 -121 -282 -120q-173 0 -173 180zM418 1145l131 248h270l-209 -248h-192z" />
<glyph unicode="&#xfb;" horiz-adv-x="940" d="M63 160l72 884h289l-70 -839h160l70 839h284l-71 -839h98l-16 -178q-90 -45 -209 -45q-152 0 -152 100v18q-125 -121 -282 -120q-173 0 -173 180zM238 1145l192 248h219l148 -248h-168l-101 112l-122 -112h-168z" />
<glyph unicode="&#xfc;" horiz-adv-x="940" d="M63 160l72 884h289l-70 -839h162l68 839h284l-71 -839h98l-14 -178q-94 -45 -209 -45q-152 0 -152 100v18q-129 -121 -284 -120q-173 0 -173 180zM250 1180l16 213h209l-16 -213h-209zM571 1180l17 213h209l-17 -213h-209z" />
<glyph unicode="&#xfd;" horiz-adv-x="856" d="M86 -242h205q70 127 115 310q-82 -68 -177 -68q-129 0 -129 158v886h295l-35 -847h74q31 111 81 402.5t67 444.5h284q-33 -233 -123 -629.5t-165 -602.5q-57 -152 -114.5 -208.5t-164.5 -56.5q-90 0 -213 43v168zM385 1145l129 248h270l-209 -248h-190z" />
<glyph unicode="&#xfe;" horiz-adv-x="892" d="M20 -434l160 2001h285l-57 -602q92 92 206 92q72 0 121 -37t69.5 -98.5t28 -109.5t7.5 -101q0 -100 -10.5 -201.5t-50.5 -229.5t-107 -188q-100 -92 -246 -92h-84l-33 -434h-289zM344 205h170l51 637h-170z" />
<glyph unicode="&#xff;" horiz-adv-x="862" d="M86 -242h205q70 127 115 310q-82 -68 -177 -68q-129 0 -129 158v886h295l-35 -847h78q31 113 80 405.5t66 441.5h282q-33 -233 -123 -629.5t-165 -602.5q-57 -152 -114.5 -208.5t-164.5 -56.5q-90 0 -213 43v168zM238 1180l16 213h209l-17 -213h-208zM557 1180l16 213 h209l-16 -213h-209z" />
<glyph unicode="&#x152;" horiz-adv-x="1228" d="M72 498q0 197 37.5 403.5t109.5 315.5q119 176 336 176h692l-20 -240h-285l-27 -330h242l-16 -225h-240l-29 -360h310l-41 -238h-701q-92 0 -160.5 30.5t-107.5 77t-62.5 115t-30.5 133t-7 142.5zM375 229h213l76 934h-215z" />
<glyph unicode="&#x153;" horiz-adv-x="1267" d="M57 391q0 324 127 516q113 166 303 166q172 0 252 -135q45 59 116 97t146 38q135 0 192.5 -74.5t57.5 -179.5q0 -221 -139 -323q-113 -82 -287 -82l-14 -209h358l-14 -176q-119 -57 -250 -58q-172 0 -248 115q-94 -115 -251 -115q-90 0 -158 32t-103.5 75t-56 105.5 t-26 109.5t-5.5 98zM338 205h184l51 635h-184zM827 578h174l23 262h-176z" />
<glyph unicode="&#x178;" horiz-adv-x="858" d="M57 1393h322l78 -697q43 104 104.5 321.5t95.5 375.5h299q-61 -211 -180 -502t-225 -469l-33 -422h-301l45 428zM256 1495l16 217h209l-16 -217h-209zM578 1495l16 217h209l-17 -217h-208z" />
<glyph unicode="&#x2c6;" d="M281 1145l192 248h219l148 -248h-170l-99 112l-122 -112h-168z" />
<glyph unicode="&#x2dc;" d="M289 1167q0 238 164 238q53 0 114 -29l117 -51l8 84h160q0 -113 -32 -177.5t-122 -64.5q-61 0 -129 33l-116 49l-9 -82h-155z" />
<glyph unicode="&#x2000;" horiz-adv-x="901" />
<glyph unicode="&#x2001;" horiz-adv-x="1802" />
<glyph unicode="&#x2002;" horiz-adv-x="901" />
<glyph unicode="&#x2003;" horiz-adv-x="1802" />
<glyph unicode="&#x2004;" horiz-adv-x="600" />
<glyph unicode="&#x2005;" horiz-adv-x="450" />
<glyph unicode="&#x2006;" horiz-adv-x="299" />
<glyph unicode="&#x2007;" horiz-adv-x="299" />
<glyph unicode="&#x2008;" horiz-adv-x="225" />
<glyph unicode="&#x2009;" horiz-adv-x="360" />
<glyph unicode="&#x200a;" horiz-adv-x="98" />
<glyph unicode="&#x2010;" horiz-adv-x="491" d="M57 485l17 205h370l-16 -205h-371z" />
<glyph unicode="&#x2011;" horiz-adv-x="491" d="M57 485l17 205h370l-16 -205h-371z" />
<glyph unicode="&#x2012;" horiz-adv-x="491" d="M57 485l17 205h370l-16 -205h-371z" />
<glyph unicode="&#x2013;" horiz-adv-x="681" d="M57 506l15 184h571l-14 -184h-572z" />
<glyph unicode="&#x2014;" d="M57 506l17 184h903l-16 -184h-904z" />
<glyph unicode="&#x2018;" horiz-adv-x="354" d="M109 1118l45 219q45 229 190 230h29l-41 -449h-223z" />
<glyph unicode="&#x2019;" horiz-adv-x="354" d="M121 1118l41 449h223l-45 -219q-45 -229 -190 -230h-29z" />
<glyph unicode="&#x201a;" horiz-adv-x="354" d="M25 -96l41 448h223l-45 -219q-45 -229 -191 -229h-28z" />
<glyph unicode="&#x201c;" horiz-adv-x="634" d="M98 1118l49 219q25 104 67 167t126 63h20l-45 -449h-217zM393 1118l45 219q45 229 191 230h22l-41 -449h-217z" />
<glyph unicode="&#x201d;" horiz-adv-x="634" d="M121 1118l41 449h217l-45 -219q-45 -229 -191 -230h-22zM412 1118l45 449h217l-49 -219q-25 -104 -67 -167t-126 -63h-20z" />
<glyph unicode="&#x201e;" horiz-adv-x="634" d="M25 -94l41 448h217l-45 -219q-45 -229 -191 -229h-22zM315 -94l45 448h218l-50 -219q-25 -104 -66.5 -166.5t-125.5 -62.5h-21z" />
<glyph unicode="&#x2022;" d="M254 700v2q0 129 72.5 214t214.5 85q131 0 187 -81.5t56 -176.5q0 -135 -73.5 -219t-212.5 -84q-94 0 -152.5 47.5t-75 100.5t-16.5 112z" />
<glyph unicode="&#x2026;" horiz-adv-x="1431" d="M66 0l24 293h277l-25 -293h-276zM541 0l24 293h277l-25 -293h-276zM1016 0l24 293h277l-25 -293h-276z" />
<glyph unicode="&#x202f;" horiz-adv-x="360" />
<glyph unicode="&#x2039;" horiz-adv-x="444" d="M41 559l205 385h188l-162 -385l95 -354h-179z" />
<glyph unicode="&#x203a;" horiz-adv-x="444" d="M20 205l162 385l-96 356h180l148 -356l-205 -385h-189z" />
<glyph unicode="&#x205f;" horiz-adv-x="450" />
<glyph unicode="&#x20ac;" horiz-adv-x="862" d="M25 500l12 155h94q4 39 10 84h-96l12 156h111q41 217 131 338q70 96 151.5 139t206.5 43q86 0 203 -31l-18 -229h-361l-20 -260h373l-13 -156h-370l-9 -84h375l-12 -155h-373l-22 -260h393l-17 -215q-127 -51 -266 -52q-217 0 -306 136.5t-89 390.5h-100z" />
<glyph unicode="&#x2122;" horiz-adv-x="972" d="M106 1286l9 107h303l-15 -107h-77l-27 -332h-133l27 332h-87zM393 954l82 439h178l6 -310h11l57 310h195v-439h-129l12 303h-10l-52 -219q-18 -86 -104 -86q-29 0 -64 11l-12 292h-10l-41 -301h-119z" />
<glyph unicode="&#xe000;" horiz-adv-x="1065" d="M0 1065h1065v-1065h-1065v1065z" />
<glyph unicode="&#xfb01;" horiz-adv-x="1013" d="M-82 -240h154l80 1080h-103l14 204h103l12 181q4 53 13.5 98t32 95t57 85t93 57.5t136.5 22.5q68 0 137 -18l-18 -211h-160l-25 -310h502l-76 -839h97l-15 -178q-94 -45 -215 -45q-158 0 -157 133l65 725h-211l-72 -932q-4 -63 -23.5 -120.5t-55 -113t-98 -88 t-144.5 -32.5q-72 0 -123 22v184zM684 1200l21 248h280l-20 -248h-281z" />
<glyph unicode="&#xfb02;" horiz-adv-x="1001" d="M-84 -424l2 184h154l80 1080h-103l14 204h103l14 181q4 57 13.5 101t37 95.5t69.5 84t118 55t178 22.5q197 0 381 -47l-111 -1331h99l-17 -178q-94 -45 -215 -45q-158 0 -158 133l87 893l-89 -168h-141l-72 -932q-4 -63 -23.5 -120.5t-55 -113t-98 -88t-144.5 -32.5 q-72 -1 -123 22zM444 1044h222l22 310h-219z" />
<glyph unicode="&#xfb03;" horiz-adv-x="1505" d="M-84 -240h154l80 1080h-103l14 204h103l12 181q6 66 20.5 115t48.5 98t99.5 74.5t159.5 25.5q127 0 227 -39q88 84 264 84q76 0 146 -18l-17 -211h-161l-25 -310h504l-78 -839h98l-16 -178q-94 -45 -215 -45q-158 0 -158 133l66 725h-213l-78 -1123h-287l84 1123h-213 l-72 -932q-4 -63 -23.5 -120.5t-55 -113t-98 -88t-144.5 -32.5q-72 0 -123 22v184zM438 1044h224l20 279h-221zM1178 1200l20 248h281l-21 -248h-280z" />
<glyph unicode="&#xfb04;" horiz-adv-x="1495" d="M-84 -240h154l80 1080h-103l14 204h103l12 181q6 66 20.5 115t48.5 98t99.5 74.5t159.5 25.5q127 0 246 -45q84 90 325 90q209 0 398 -47l-113 -1331h100l-16 -178q-94 -45 -215 -45q-158 0 -158 133l86 893l-88 -168h-141l-80 -1123h-285l84 1123h-213l-72 -932 q-4 -63 -23.5 -120.5t-55 -113t-98 -88t-144.5 -32.5q-72 0 -123 22zM438 1044h219l23 279h-219zM938 1044h219l25 310h-219z" />
</font>
</defs>
</svg>
