<?xml version="1.0" standalone="no"?>
<!DOCTYPE svg PUBLIC "-//W3C//DTD SVG 1.1//EN" "http://www.w3.org/Graphics/SVG/1.1/DTD/svg11.dtd" >
<svg xmlns="http://www.w3.org/2000/svg">
<metadata>
This is a custom SVG webfont generated by Font Squirrel.
Copyright   : Copyright  2000 Adobe Systems Incorporated  All Rights Reserved Patent Des pending
Designer    : Akira Kobayashi
Foundry URL : httpwwwadobecomtype
</metadata>
<defs>
<font id="CalciteProRegular" horiz-adv-x="1024" >
<font-face units-per-em="2048" ascent="1587" descent="-461" />
<missing-glyph horiz-adv-x="307" />
<glyph unicode=" "  horiz-adv-x="307" />
<glyph unicode="&#x09;" horiz-adv-x="307" />
<glyph unicode="&#xa0;" horiz-adv-x="307" />
<glyph unicode="!" horiz-adv-x="397" d="M76 0l16 205h162l-16 -205h-162zM111 420l59 973h188l-100 -973h-147z" />
<glyph unicode="&#x22;" horiz-adv-x="620" d="M164 1128v439h164l-56 -439h-108zM446 1128v439h164l-55 -439h-109z" />
<glyph unicode="#" d="M123 580l8 110h143l48 252h-164l8 111h172l63 340h127l-63 -340h156l57 340h127l-64 -340h160l-8 -111h-168l-45 -252h197l-11 -110h-198l-64 -381h-127l66 381h-164l-72 -381h-127l78 381h-135zM397 690h162l45 252h-158z" />
<glyph unicode="$" horiz-adv-x="735" d="M113 98l10 135h303l18 246l-178 250q-104 147 -104 279q0 61 17.5 120.5t72.5 118t141 70.5l8 133h119l-10 -131q41 0 123 -21l-19 -137h-274l-14 -207l159 -237q125 -186 125 -320q0 -285 -227 -323l-12 -121h-119l10 119q-88 8 -149 26z" />
<glyph unicode="%" horiz-adv-x="1179" d="M98 950q0 86 17.5 199t56.5 176q53 86 195 86h673v-92l-784 -1319h-150l789 1305h-365q25 -47 25 -129q0 -301 -90 -400q-55 -61 -162 -61q-205 -1 -205 235zM233 836h154l37 469h-154zM647 219v2q0 86 18.5 198.5t57.5 174.5q57 92 170 92q66 0 111 -23.5t65.5 -63.5 t28.5 -77t8 -78q0 -301 -92 -399q-55 -61 -162 -61q-205 -1 -205 235zM780 100h156l37 471h-156z" />
<glyph unicode="&#x26;" horiz-adv-x="843" d="M70 299q0 127 51 243.5t149 192.5q-96 135 -96 299q0 168 90 277q88 102 250 102q96 0 188 -20l-12 -144h-315l-35 -456h119l-10 -150h-158l-47 -500h272l53 650h265l-27 -152h-78l-41 -530q-117 -131 -313 -131q-84 0 -144.5 23.5t-90 56t-47 81.5t-20.5 82t-3 76z" />
<glyph unicode="'" horiz-adv-x="337" d="M164 1128v439h164l-56 -439h-108z" />
<glyph unicode="(" horiz-adv-x="417" d="M66 399q0 303 70.5 607.5t191.5 488.5h86q-86 -211 -138.5 -522t-52.5 -565q0 -487 80 -795h-86q-70 131 -110.5 348t-40.5 438z" />
<glyph unicode=")" horiz-adv-x="417" d="M23 -385q88 213 140 523.5t52 563.5q0 489 -82 795h88q68 -131 109 -348t41 -438q0 -303 -70 -607.5t-190 -488.5h-88z" />
<glyph unicode="*" horiz-adv-x="483" d="M80 1098l131 67l-121 70q2 18 17.5 46t31.5 40l107 -90v151q27 10 51 11q29 0 53 -11l-24 -155l116 96q43 -43 43 -90l-137 -74l127 -67q-14 -66 -51 -91l-109 93v-154q-25 -10 -55.5 -10t-50.5 10l27 160l-113 -92q-16 10 -29.5 38.5t-13.5 51.5z" />
<glyph unicode="+" d="M106 551v131h338v336h140v-336h336v-131h-336v-338h-140v338h-338z" />
<glyph unicode="," horiz-adv-x="354" d="M29 -248l49 453h168l-53 -232q-49 -221 -142 -221h-22z" />
<glyph unicode="-" horiz-adv-x="468" d="M61 498l15 161h344l-14 -161h-345z" />
<glyph unicode="." horiz-adv-x="378" d="M61 0l17 205h184l-16 -205h-185z" />
<glyph unicode="/" horiz-adv-x="544" d="M-35 0l504 1393h139l-504 -1393h-139z" />
<glyph unicode="0" horiz-adv-x="735" d="M59 453v2q0 197 29 429t92 345q51 90 106.5 137t141.5 47q53 0 96 -18.5t70 -48t46 -69.5t27.5 -82t14.5 -85t4 -81t0 -66v-23q0 -211 -35 -462t-110 -369q-41 -66 -90.5 -101t-141.5 -35q-102 0 -159.5 68t-74 164t-16.5 248zM209 156h233l86 1079h-233z" />
<glyph unicode="1" horiz-adv-x="735" d="M215 1235l18 158h293l-106 -1393h-176l100 1235h-129z" />
<glyph unicode="2" horiz-adv-x="735" d="M66 0l18 156l379 784l24 295h-303l15 149q96 23 209 23q139 0 198.5 -60.5t59.5 -181.5q0 -174 -91 -356l-321 -653h352l-26 -156h-514z" />
<glyph unicode="3" horiz-adv-x="735" d="M76 12l12 144h348l37 487h-276l12 156h250l35 436h-326l12 149q129 23 217 23q141 0 205 -69.5t64 -204.5q0 -104 -48.5 -228.5t-128.5 -181.5q78 -25 114 -100.5t36 -171.5q0 -236 -104 -367q-80 -104 -259 -104q-94 -1 -200 32z" />
<glyph unicode="4" horiz-adv-x="735" d="M43 477q0 37 16 113l160 803h152l-168 -895h223l72 895h164l-72 -895h121l-25 -148h-108l-27 -350h-158l27 350h-240q-137 0 -137 127z" />
<glyph unicode="5" horiz-adv-x="735" d="M72 12l10 144h354l39 512h-227q-59 0 -82 24.5t-23 79.5l72 621h477l-26 -158h-306l-55 -420h72q78 0 134 -31.5t83 -84t38 -100.5t11 -97q0 -285 -104 -416q-82 -106 -254 -106q-117 -1 -213 32z" />
<glyph unicode="6" horiz-adv-x="735" d="M66 414q0 244 43 500.5t129 369.5q98 127 272 127q84 0 147 -18l-10 -158h-336l-26 -348h108q78 0 135.5 -24.5t87 -60.5t47 -89.5t21.5 -95.5t4 -97q0 -117 -30.5 -246t-79.5 -190q-86 -104 -238 -104q-72 0 -125 28.5t-81 69.5t-44 103.5t-20 113.5t-4 119zM227 156 h248l45 575h-248z" />
<glyph unicode="7" horiz-adv-x="735" d="M121 0l395 1235h-356l10 158h530l-14 -136l-385 -1257h-180z" />
<glyph unicode="8" horiz-adv-x="735" d="M33 281q0 115 45 231.5t127 183.5q-113 113 -113 299q0 205 90 314q84 104 238 104q84 0 143.5 -28.5t87 -78t39.5 -99.5t12 -107v-2q0 -115 -46 -223.5t-117 -167.5q127 -121 127 -318q0 -201 -93 -315q-86 -100 -245 -101q-162 0 -228.5 90.5t-66.5 217.5zM199 143h260 l39 492h-260zM252 784h250l35 461h-250z" />
<glyph unicode="9" horiz-adv-x="735" d="M66 14l12 144h368l29 317h-88q-102 0 -171 33t-97.5 91t-37.5 106.5t-9 109.5q0 133 31.5 271.5t84.5 205.5q92 121 236 121q74 0 126 -30.5t79.5 -72.5t43 -109.5t18.5 -117t3 -118.5q0 -215 -38 -488.5t-99 -363.5q-86 -131 -281 -131q-104 -1 -210 32zM242 629h245 l50 606h-246z" />
<glyph unicode=":" horiz-adv-x="409" d="M72 74l16 205h184l-16 -205h-184zM123 764l16 205h185l-17 -205h-184z" />
<glyph unicode=";" horiz-adv-x="409" d="M51 -158l49 453h168l-53 -232q-49 -221 -141 -221h-23zM123 764l16 205h185l-17 -205h-184z" />
<glyph unicode="&#x3c;" d="M131 559v94l756 322v-158l-561 -209l561 -211v-157z" />
<glyph unicode="=" d="M141 379v139h742v-139h-742zM141 700v140h742v-140h-742z" />
<glyph unicode="&#x3e;" d="M137 240v157l561 211l-561 209v158l756 -322v-94z" />
<glyph unicode="?" horiz-adv-x="573" d="M98 1243l15 141q96 23 209 23q139 0 198.5 -60.5t59.5 -181.5q0 -242 -138 -397l-123 -145l-16 -203h-156l19 242l211 278l24 303h-303zM115 0l16 205h162l-17 -205h-161z" />
<glyph unicode="@" horiz-adv-x="1206" d="M92 434q0 205 41 448.5t129 356.5q127 164 412 164q141 0 236.5 -30t146.5 -89t71.5 -135t20.5 -182q0 -158 -37 -353.5t-100 -277.5q-66 -84 -181 -84q-102 0 -129 94q-25 -37 -76 -64.5t-100 -27.5q-156 0 -155 227q0 141 35.5 308t99.5 241q82 94 219 94q96 0 149 -37 l-65 -702h137l74 864h-688l-94 -1110h751l-10 -98q-178 -63 -449 -64q-250 0 -346 113q-92 106 -92 344zM504 385h170l49 596h-166z" />
<glyph unicode="A" horiz-adv-x="763" d="M-25 0l359 1393h315v-1393h-170v418h-231l-101 -418h-172zM281 573h198v676h-39z" />
<glyph unicode="B" horiz-adv-x="811" d="M74 147l96 1246h311q266 0 267 -275q0 -156 -53.5 -255t-133.5 -128q174 -57 174 -303q0 -55 -12 -118.5t-41 -139.5t-93.5 -125t-154.5 -49h-192q-168 0 -168 147zM248 156h278l37 485h-276zM293 791h250l35 444h-250z" />
<glyph unicode="C" horiz-adv-x="624" d="M78 449q0 197 30.5 429t88.5 345q96 190 297 190q80 0 161 -20l-12 -158h-313l-86 -1079h342l-11 -129q-84 -47 -200 -47q-61 0 -108.5 16t-78 40.5t-53 66.5t-33 77t-16.5 90.5t-7 89.5t-1 89z" />
<glyph unicode="D" horiz-adv-x="860" d="M74 147l98 1246h334q78 0 134 -28t87 -66.5t48.5 -101t21.5 -114t4 -120.5q0 -190 -35 -440.5t-107 -385.5q-78 -137 -249 -137h-168q-168 0 -168 147zM246 156h305l86 1079h-307z" />
<glyph unicode="E" horiz-adv-x="612" d="M74 147l98 1246h459l-15 -158h-284l-35 -438h242l-11 -152h-241l-39 -489h301l-27 -156h-280q-168 0 -168 147z" />
<glyph unicode="F" horiz-adv-x="581" d="M66 0l110 1393h457l-15 -158h-284l-39 -512h233l-10 -150h-229l-45 -573h-178z" />
<glyph unicode="G" horiz-adv-x="796" d="M78 446q0 199 30.5 431.5t88.5 345.5q98 190 317 190q96 0 193 -20l-13 -158h-366l-88 -1079h282l39 487h-133l10 150h305l-53 -678q-53 -57 -136 -93t-169 -36q-70 0 -124 19.5t-86 58t-53.5 79.5t-29.5 99.5t-11 101.5t-3 102z" />
<glyph unicode="H" horiz-adv-x="870" d="M66 0l110 1393h178l-49 -600h295l45 600h178l-110 -1393h-176l49 637h-291l-51 -637h-178z" />
<glyph unicode="I" horiz-adv-x="401" d="M66 0l110 1393h178l-110 -1393h-178z" />
<glyph unicode="J" horiz-adv-x="403" d="M-80 -176h139l117 1569h180l-110 -1420q-12 -102 -29.5 -164.5t-66 -110.5t-125.5 -48q-59 0 -105 18v156z" />
<glyph unicode="K" horiz-adv-x="808" d="M66 0l110 1393h172l-53 -623h74q63 100 155 295t138 328h192q-39 -113 -152.5 -326t-183.5 -307q80 0 109.5 -52.5t29.5 -164.5v-387h95l-9 -129q-74 -41 -149 -41q-63 0 -85 36.5t-22 100.5v504h-198l-51 -627h-172z" />
<glyph unicode="L" horiz-adv-x="565" d="M74 143l98 1250h178l-104 -1237h305l-27 -156h-282q-168 0 -168 143z" />
<glyph unicode="M" horiz-adv-x="1163" d="M-10 0l278 1393h226l45 -1149h14l270 1149h226v-1393h-177l33 1098h-14l-199 -828q-31 -129 -72.5 -199.5t-113.5 -70.5q-57 0 -100 18l-48 1080h-14l-186 -1098h-168z" />
<glyph unicode="N" horiz-adv-x="886" d="M66 0l110 1393h211l209 -1176h14l62 1176h168l-105 -1366q-86 -37 -149 -37q-55 0 -82 35.5t-41 117.5l-154 879h-14l-64 -1022h-165z" />
<glyph unicode="O" horiz-adv-x="876" d="M80 446v3q0 188 31.5 425.5t93.5 354.5q96 184 287 184q88 0 151.5 -33.5t96 -80t51 -117t22.5 -122.5t4 -120q0 -207 -37 -460t-112 -371q-37 -59 -109 -97.5t-160 -38.5q-86 0 -145 26t-93 65.5t-52.5 106.5t-23.5 127t-5 148zM244 156h321l84 1079h-319z" />
<glyph unicode="P" horiz-adv-x="763" d="M66 0l110 1393h287q82 0 139 -26t87 -59.5t45.5 -87t18.5 -88t3 -81.5q0 -59 -6.5 -123t-29 -153t-60 -156.5t-110.5 -115.5t-169 -48h-107l-30 -455h-178zM287 610h241l47 625h-241z" />
<glyph unicode="Q" horiz-adv-x="876" d="M80 453q0 188 31.5 423.5t93.5 352.5q96 184 287 184q88 0 151.5 -33.5t96 -80t51 -117t22.5 -122.5t4 -120q0 -205 -37 -457t-110 -364q-27 -43 -86.5 -76t-122.5 -43l-17 -176h265l-23 -127q-115 -37 -213 -37q-37 0 -64.5 4t-61.5 18.5t-51 49.5t-17 86q0 82 38 172 q-68 6 -115.5 44t-70 82t-35 115.5t-14.5 112.5t-2 109zM244 156h321l84 1079h-319z" />
<glyph unicode="R" horiz-adv-x="811" d="M66 0l110 1393h309q268 0 269 -275q0 -147 -47.5 -273t-135.5 -181q68 -25 84.5 -74t16.5 -154v-280h94l-10 -129q-78 -41 -150 -41q-66 0 -86 35.5t-20 101.5v473h-215l-47 -596h-172zM293 745h242l38 490h-243z" />
<glyph unicode="S" horiz-adv-x="604" d="M12 6l13 150h333l27 270l-209 362q-86 147 -86 295q0 51 14.5 102.5t48 106t105.5 88t170 33.5q84 0 156 -20l-13 -158h-284l-25 -225l152 -265q133 -233 133 -385q0 -381 -324 -380q-100 -1 -211 26z" />
<glyph unicode="T" horiz-adv-x="628" d="M29 1235l14 158h672l-27 -158h-231l-95 -1235h-180l99 1235h-252z" />
<glyph unicode="U" horiz-adv-x="847" d="M74 143l98 1250h178l-102 -1237h270l98 1237h179l-103 -1237h94l-8 -129q-70 -41 -155 -41q-102 0 -103 80v26q-164 -109 -289 -108q-76 0 -116.5 35.5t-40.5 123.5z" />
<glyph unicode="V" horiz-adv-x="786" d="M135 27v1366h191l-29 -1237h70q61 154 151 576.5t117 660.5h190q-37 -236 -136 -647.5t-163 -565.5q-82 -193 -229 -192q-84 0 -162 39z" />
<glyph unicode="W" horiz-adv-x="1261" d="M135 27v1366h191l-29 -1237h70q76 203 158.5 612.5t82.5 624.5h168v-1237h68q59 154 149 577.5t117 659.5h190q-37 -236 -136 -647.5t-163 -565.5q-80 -193 -229 -192q-86 0 -141 37l8 622h-14q-59 -369 -125 -508q-63 -152 -203 -151q-88 0 -162 39z" />
<glyph unicode="X" horiz-adv-x="712" d="M-31 0q49 176 130 385t159 340l-131 668h186l76 -570q35 86 90.5 261.5t85.5 308.5h178q-35 -139 -117.5 -352.5t-156.5 -340.5l104 -544h97l-13 -129q-72 -41 -141 -41q-94 0 -113 139l-67 453q-104 -221 -191 -578h-176z" />
<glyph unicode="Y" horiz-adv-x="710" d="M70 1393h186l102 -777q53 119 129 351.5t123 425.5h183q-70 -231 -179.5 -508t-205.5 -459l-31 -426h-178l43 430z" />
<glyph unicode="Z" horiz-adv-x="667" d="M-2 121q0 61 49 166l445 948h-373l12 158h416q66 0 98.5 -23.5t32.5 -83.5q0 -70 -86 -252l-414 -878h434l-26 -156h-449q-139 0 -139 121z" />
<glyph unicode="[" horiz-adv-x="417" d="M45 -295l129 1698q8 57 25.5 75.5t58.5 18.5h172l-8 -104h-111l-125 -1678h121l-8 -104h-172q-43 0 -62.5 19.5t-19.5 74.5z" />
<glyph unicode="\" horiz-adv-x="544" d="M88 1393h133l258 -1393h-133z" />
<glyph unicode="]" horiz-adv-x="417" d="M-2 -389l8 104h111l125 1678h-121l6 104h172q43 0 63.5 -19.5t20.5 -74.5l-129 -1698q-8 -57 -25.5 -75.5t-58.5 -18.5h-172z" />
<glyph unicode="^" d="M109 580l337 755h127l340 -755h-163l-240 589l-238 -589h-163z" />
<glyph unicode="_" d="M-121 -256l21 102h1024l-21 -102h-1024z" />
<glyph unicode="`" d="M424 1393h174l78 -244h-123z" />
<glyph unicode="a" horiz-adv-x="770" d="M68 315q0 162 41 350.5t133 284.5q119 115 286 115q80 0 162 -35l-69 -887h96l-8 -116q-66 -47 -148 -47q-100 0 -100 81v35q-86 -117 -193 -116q-200 -1 -200 335zM225 143h232l59 758h-231z" />
<glyph unicode="b" horiz-adv-x="751" d="M66 68l120 1499h172l-57 -629q25 41 76 73.5t110 32.5q201 0 201 -317q0 -150 -31.5 -349.5t-107.5 -291.5q-86 -104 -232 -104q-68 0 -138 24.5t-113 61.5zM238 143h233l59 758h-233z" />
<glyph unicode="c" horiz-adv-x="577" d="M68 356q0 395 141 592q82 115 225 115q80 0 150 -16l-11 -146h-280l-60 -758h293l-10 -116q-84 -47 -197 -47q-251 -1 -251 376z" />
<glyph unicode="d" horiz-adv-x="772" d="M68 315q0 164 41 352.5t133 282.5q115 115 286 115l35 502h168l-110 -1424h96l-8 -116q-66 -47 -148 -47q-100 0 -100 81v35q-86 -117 -193 -116q-200 -1 -200 335zM225 143h232l59 758h-231z" />
<glyph unicode="e" horiz-adv-x="679" d="M68 352q0 399 157 590q98 121 228 121q199 0 198 -207q0 -92 -34.5 -186.5t-104.5 -149.5q-109 -86 -268 -86l-23 -291h352l-8 -116q-102 -47 -209 -47q-80 0 -136 27.5t-85 64.5t-45 94t-19 96t-3 90zM250 580h223l27 321h-224z" />
<glyph unicode="f" horiz-adv-x="446" d="M-80 -293h152l88 1194h-103l11 143h102l16 218q8 133 78 227t215 94q59 0 109 -16l-10 -146h-209l-31 -377h186l-24 -143h-170l-82 -1026q-10 -125 -67.5 -217t-172.5 -92q-51 0 -88 18v123z" />
<glyph unicode="g" horiz-adv-x="749" d="M-74 -229q0 82 52.5 142t132.5 69l-25 -275h336l31 381q-74 -88 -183 -88q-203 0 -202 313q0 166 39.5 354.5t134.5 282.5q113 115 282 115q82 0 166 -33l-69 -907q-25 -346 -99 -442q-88 -117 -329 -117q-267 0 -267 205zM225 143h232l59 758h-231z" />
<glyph unicode="h" horiz-adv-x="796" d="M70 0l123 1567h174l-52 -623q47 45 126 83t145 38q127 0 127 -150l-70 -772h94l-8 -116q-70 -41 -156 -41q-49 0 -77.5 22.5t-28.5 85.5l72 807h-224l-67 -901h-178z" />
<glyph unicode="i" horiz-adv-x="401" d="M72 94l78 950h180l-82 -901h94l-8 -116q-66 -41 -156 -41q-49 0 -77.5 22.5t-28.5 85.5zM164 1235l16 213h185l-17 -213h-184z" />
<glyph unicode="j" horiz-adv-x="387" d="M-94 -293h141l105 1337h174l-95 -1196q-10 -106 -60 -194t-146 -88q-74 0 -119 16v125zM156 1235l16 213h184l-16 -213h-184z" />
<glyph unicode="k" horiz-adv-x="712" d="M70 0l123 1567h172l-86 -969h186l45 446h168l-14 -120q-20 -168 -55.5 -253t-96.5 -128l88 -400h100l-10 -116q-66 -41 -143 -41q-53 0 -77 29.5t-36 99.5l-69 366l-95 -37l-32 -444h-168z" />
<glyph unicode="l" horiz-adv-x="399" d="M72 94l116 1473h177l-121 -1424h98l-10 -116q-66 -41 -154 -41q-49 0 -77.5 22.5t-28.5 85.5z" />
<glyph unicode="m" horiz-adv-x="1179" d="M70 0l82 1044h172l-9 -100q49 45 124 83t136 38q53 0 83 -36t34 -85q55 45 133 83t144 38q127 0 127 -150l-70 -772h94l-8 -116q-70 -41 -156 -41q-49 0 -77.5 22.5t-28.5 85.5l72 807h-228l-67 -901h-172l75 901h-213l-69 -901h-178z" />
<glyph unicode="n" horiz-adv-x="796" d="M70 0l82 1044h172l-9 -100q47 45 126 83t145 38q127 0 127 -150l-70 -772h94l-8 -116q-70 -41 -156 -41q-49 0 -77.5 22.5t-28.5 85.5l72 807h-222l-69 -901h-178z" />
<glyph unicode="o" horiz-adv-x="765" d="M68 348v2q0 129 23.5 287t68.5 250q86 178 258 178q279 0 278 -379q0 -135 -27.5 -311t-84.5 -264q-86 -131 -244 -131q-272 -1 -272 368zM225 143h252l60 758h-252z" />
<glyph unicode="p" horiz-adv-x="751" d="M27 -434l110 1399q147 98 309 98q78 0 129.5 -28.5t75 -82t30.5 -103.5t7 -122q0 -84 -8 -185.5t-47 -248t-105 -209.5q-51 -49 -98 -66.5t-125 -17.5h-78l-32 -434h-168zM238 143h233l59 758h-233z" />
<glyph unicode="q" horiz-adv-x="759" d="M68 315q0 162 41 350.5t133 284.5q111 115 286 115q74 0 160 -35l-110 -1464h-170l49 522q-72 -88 -170 -88q-219 0 -219 315zM225 143h232l59 758h-231z" />
<glyph unicode="r" horiz-adv-x="493" d="M70 0l82 1044h170l-11 -100q74 131 238 131l-21 -174h-217l-63 -901h-178z" />
<glyph unicode="s" horiz-adv-x="532" d="M4 0l12 143h334l-194 435q-72 160 -72 262q0 104 68.5 163.5t197.5 59.5q90 0 158 -19l-10 -143h-289l137 -305q117 -266 117 -373q0 -125 -62.5 -183t-193.5 -58q-121 0 -203 18z" />
<glyph unicode="t" horiz-adv-x="475" d="M51 901l12 143h109l78 275h106l-22 -275h186l-14 -143h-176l-31 -379l-33 -379h166l-10 -116q-106 -41 -205 -41q-121 0 -121 123l33 397l33 395h-111z" />
<glyph unicode="u" horiz-adv-x="792" d="M72 143l71 901h174l-73 -901h221l76 901h174l-80 -901h96l-10 -116q-66 -41 -150 -41q-102 0 -102 80v26q-43 -41 -114.5 -76.5t-141.5 -35.5q-141 -1 -141 163z" />
<glyph unicode="v" horiz-adv-x="729" d="M119 14v1030h186l-35 -901h58q61 141 136 426t97 475h180q-29 -180 -116.5 -476t-155.5 -423q-84 -158 -219 -157q-61 -1 -131 26z" />
<glyph unicode="w" horiz-adv-x="1142" d="M119 14v1030h184l-35 -901h54q63 133 149 434.5t90 466.5h160l-35 -901h57q59 143 134 427t98 474h180q-29 -176 -117 -473t-149 -415q-43 -86 -95.5 -127t-127.5 -41q-47 0 -113 26l27 535h-15q-20 -100 -62 -236.5t-71 -195.5q-63 -129 -182 -129q-61 -1 -131 26z" />
<glyph unicode="x" horiz-adv-x="657" d="M-12 0q31 111 112.5 293t141.5 272l-66 336h-110l12 127q61 29 133 29q61 0 86 -35t33 -100l37 -281q39 88 82 214t55 189h166q-20 -90 -100.5 -266t-149.5 -293l80 -342h110l-8 -116q-70 -41 -143 -41q-51 0 -74 27.5t-33 80.5l-57 320q-33 -70 -79 -205t-62 -209h-166z " />
<glyph unicode="y" horiz-adv-x="729" d="M51 -293h164q29 53 73 164t66 195q-78 -66 -151 -66q-90 0 -90 143v901h184l-35 -901h109q33 92 96 422t84 479h182q-45 -244 -136 -618.5t-163 -579.5q-63 -174 -111.5 -227t-125.5 -53q-72 0 -146 35v106z" />
<glyph unicode="z" horiz-adv-x="571" d="M-2 115q0 59 51 149l336 637h-295l12 143h340q117 0 117 -108q0 -45 -21.5 -95t-78.5 -155l-295 -543h362l-24 -143h-344q-160 0 -160 115z" />
<glyph unicode="{" horiz-adv-x="471" d="M16 518l9 92h59q55 0 78.5 26t25.5 99l25 578q4 184 139 184h131l-8 -104h-113l-40 -660q-20 -152 -136 -164q63 -14 85 -52t22 -116l-57 -686h122l-8 -104h-125q-76 0 -106.5 30.5t-30.5 102.5l74 678q0 55 -13.5 75.5t-62.5 20.5h-70z" />
<glyph unicode="|" horiz-adv-x="442" d="M160 -510v2048h125v-2048h-125z" />
<glyph unicode="}" horiz-adv-x="471" d="M-2 -389l8 104h115l39 680q18 150 135 164q-63 12 -85 50t-22 116l58 668h-123l8 104h125q76 0 106.5 -30.5t30.5 -104.5l-74 -655q0 -55 13.5 -77t62.5 -22h70l-8 -92h-60q-55 0 -78.5 -24.5t-25.5 -98.5l-25 -598q-4 -184 -139 -184h-131z" />
<glyph unicode="~" d="M106 557q20 92 80 145.5t152 53.5q74 0 190 -64q119 -61 166 -61q84 0 113 121l119 -74q-20 -92 -80 -145.5t-150 -53.5q-84 0 -211 68q-104 59 -155 59q-74 0 -105 -123z" />
<glyph unicode="&#xa1;" horiz-adv-x="397" d="M29 -317l100 972h147l-59 -972h-188zM133 870l17 205h161l-16 -205h-162z" />
<glyph unicode="&#xa2;" horiz-adv-x="735" d="M137 532q4 401 142 592q66 88 161 107l6 112h117l-10 -110q43 0 96 -12l-10 -144h-277l-59 -758h289l-10 -112q-49 -27 -123 -35l-8 -123h-119l6 127q-207 24 -201 356z" />
<glyph unicode="&#xa3;" horiz-adv-x="735" d="M84 623l10 133h109l12 127q16 158 42 246t81 161q94 125 274 125q86 0 150 -18l-12 -148h-332l-51 -493h194l-10 -133h-195l-45 -467h394l-33 -156h-535l56 623h-109z" />
<glyph unicode="&#xa4;" d="M53 262l115 115q-76 109 -76 241q0 137 78 244l-117 117l103 104l118 -118q106 74 238 73q135 0 238 -73l118 118l103 -104l-117 -117q78 -106 78 -244q0 -133 -76 -241l115 -115l-103 -104l-116 116q-104 -76 -240 -75q-131 0 -240 75l-116 -116zM240 618.5 q0 -112.5 79.5 -192.5t192.5 -80t192.5 80t79.5 192.5t-79.5 192.5t-192.5 80h-2q-111 0 -190.5 -80t-79.5 -192.5z" />
<glyph unicode="&#xa5;" horiz-adv-x="735" d="M72 371l8 106h194l13 127h-199l8 107h170l-182 682h184l123 -611q133 289 236 611h182q-164 -410 -320 -682h185l-8 -107h-217l-11 -127h219l-8 -106h-223l-29 -371h-168l37 371h-194z" />
<glyph unicode="&#xa6;" horiz-adv-x="442" d="M160 358h125v-716h-125v716zM160 666v716h125v-716h-125z" />
<glyph unicode="&#xa7;" horiz-adv-x="817" d="M66 12l12 135h356l-272 601q-68 150 -68 274q0 383 418 383q141 0 250 -23l-17 -125h-342l244 -524q94 -203 94 -342q0 -115 -32.5 -197.5t-92 -125.5t-125 -61.5t-145.5 -18.5q-139 -1 -280 24zM238 946l340 -786l28 313l-344 774z" />
<glyph unicode="&#xa8;" d="M315 1217l15 176h145l-14 -176h-146zM598 1217l14 176h146l-15 -176h-145z" />
<glyph unicode="&#xa9;" horiz-adv-x="1218" d="M78 465v2q0 629 192 821q121 121 414 121q246 0 350 -96q61 -57 90 -143.5t29 -237.5q0 -659 -188 -836q-123 -115 -416 -114q-246 0 -352 100q-61 57 -90 143t-29 240zM219 475q0 -225 82 -295q76 -66 254 -65q129 0 195.5 18.5t117.5 67.5q143 139 144 717 q0 225 -82 296q-76 66 -252 66q-217 0 -311 -86q-147 -135 -148 -717v-2zM381 532q0 133 23.5 283t64.5 225q68 131 223 131q80 0 133 -14l-8 -125h-227l-53 -676h233l-10 -110q-51 -31 -156 -31q-70 0 -116 25.5t-68.5 75t-30.5 99t-8 117.5z" />
<glyph unicode="&#xaa;" horiz-adv-x="681" d="M117 915q0 92 33.5 210t91.5 182q90 96 213 96q86 0 163 -23l-45 -546h62l-6 -107q-61 -31 -121 -31q-39 0 -61.5 17.5t-22.5 38.5v28q-94 -84 -172 -84q-135 0 -135 219zM268 834h156l35 442h-158z" />
<glyph unicode="&#xab;" horiz-adv-x="634" d="M45 559l215 385h129l-196 -385l129 -354h-119zM299 559l188 385h129l-170 -385l103 -354h-119z" />
<glyph unicode="&#xac;" d="M129 598v135h764v-426h-139v291h-625z" />
<glyph unicode="&#xad;" horiz-adv-x="468" d="M61 498l15 161h344l-14 -161h-345z" />
<glyph unicode="&#xae;" horiz-adv-x="614" d="M72 1010v2q0 270 94 354q59 53 213 53q133 0 186 -45q63 -53 64 -176q0 -266 -92 -350q-66 -59 -213 -60q-141 0 -196.5 49.5t-55.5 172.5zM158 1016q0 -94 37 -123q33 -25 127 -25q113 0 157 39q63 55 64 287q0 100 -43 129q-37 25 -125 25q-109 0 -154 -35 q-63 -51 -63 -295v-2zM221 920l29 374h143q82 0 82 -86q0 -74 -51 -108q35 -14 35 -66v-63h16l-4 -45q-20 -12 -59 -13q-35 0 -35 39v119h-64l-12 -151h-80zM315 1126h70l10 107h-71z" />
<glyph unicode="&#xaf;" d="M360 1235l11 129h424l-11 -129h-424z" />
<glyph unicode="&#x2c9;" d="M360 1235l11 129h424l-11 -129h-424z" />
<glyph unicode="&#xb0;" horiz-adv-x="681" d="M121 1151q0 117 82 195.5t200 78.5h3q117 0 198.5 -78.5t81.5 -195.5t-82 -195.5t-200.5 -78.5t-200.5 78.5t-82 195.5zM233 1151q0 -74 48.5 -125t122 -51t121.5 51t48 125t-48 125t-122 51h-2q-72 0 -120 -51t-48 -125z" />
<glyph unicode="&#xb1;" d="M141 256v135h742v-135h-742zM141 733v131h303v281h140v-281h299v-131h-299v-264h-140v264h-303z" />
<glyph unicode="&#xb2;" horiz-adv-x="409" d="M59 672l11 82l198 395l11 131h-152l10 109q66 16 133 16q72 0 111 -38t39 -101q0 -96 -47 -185l-156 -297h184l-24 -112h-318z" />
<glyph unicode="&#xb3;" horiz-adv-x="409" d="M68 678l8 102h180l16 217h-143l8 97h129l15 192h-170l10 103q63 12 139 12q158 0 158 -152q0 -51 -24.5 -112.5t-67.5 -92.5q78 -25 77 -141q0 -113 -55 -180q-45 -63 -151 -64q-74 1 -129 19z" />
<glyph unicode="&#xb4;" d="M440 1149l111 244h174l-162 -244h-123z" />
<glyph unicode="&#xb5;" horiz-adv-x="792" d="M33 -258l117 1302h172l-82 -901h225l82 901h170l-82 -901h96l-10 -116q-70 -41 -152 -41q-104 0 -104 80v26q-23 -33 -71 -62.5t-93 -29.5q-41 0 -74 27l-22 -285h-172z" />
<glyph unicode="&#x3bc;" horiz-adv-x="792" d="M33 -258l117 1302h172l-82 -901h225l82 901h170l-82 -901h96l-10 -116q-70 -41 -152 -41q-104 0 -104 80v26q-23 -33 -71 -62.5t-93 -29.5q-41 0 -74 27l-22 -285h-172z" />
<glyph unicode="&#xb6;" horiz-adv-x="819" d="M74 467q0 156 39 327t114 257q125 139 318 139q121 0 246 -43l-9 -103h-98l-78 -911h121l-6 -96q-123 -55 -289 -55q-96 0 -165.5 33.5t-105.5 81.5t-56.5 120t-25.5 126t-5 124zM338 133h149l74 911h-151z" />
<glyph unicode="&#xb7;" horiz-adv-x="378" d="M100 498l17 204h184l-16 -204h-185z" />
<glyph unicode="&#x2219;" horiz-adv-x="378" d="M100 498l17 204h184l-16 -204h-185z" />
<glyph unicode="&#xb8;" d="M354 -227h119l10 84h-118l55 143h96l-31 -76h23q98 0 98 -96q0 -84 -73.5 -120t-178.5 -36v101z" />
<glyph unicode="&#xb9;" horiz-adv-x="409" d="M152 1290l8 103h192l-53 -721h-131l49 618h-65z" />
<glyph unicode="&#xba;" horiz-adv-x="681" d="M121 965v2q0 217 61 319q70 119 215 119q221 0 221 -260q0 -250 -73 -350q-66 -90 -193 -90q-231 0 -231 260zM264 834h174l35 442h-176z" />
<glyph unicode="&#xbb;" horiz-adv-x="669" d="M47 205l170 385l-102 354h118l132 -354l-189 -385h-129zM274 205l197 385l-129 354h119l157 -354l-215 -385h-129z" />
<glyph unicode="&#xbc;" horiz-adv-x="1042" d="M121 0l643 1393h135l-641 -1393h-137zM162 1290l8 103h192l-53 -721h-131l49 618h-65zM578 246q0 12 8 61l84 418h114l-73 -457h98l35 457h125l-35 -457h63l-12 -102h-57l-15 -166h-122l12 166h-152q-29 0 -51 19.5t-22 60.5z" />
<glyph unicode="&#xbd;" horiz-adv-x="1042" d="M121 0l643 1393h135l-641 -1393h-137zM162 1290l8 103h192l-53 -721h-131l49 618h-65zM614 0l11 82l198 395l11 131h-152l10 109q66 16 133 16q72 0 111 -38t39 -101q0 -96 -47 -184l-156 -297h184l-24 -113h-318z" />
<glyph unicode="&#xbe;" horiz-adv-x="1042" d="M68 678l8 102h180l16 217h-143l8 97h129l15 192h-170l10 103q63 12 139 12q158 0 158 -152q0 -51 -24.5 -112.5t-67.5 -92.5q78 -25 77 -141q0 -113 -55 -180q-45 -63 -151 -64q-74 1 -129 19zM121 0l643 1393h135l-641 -1393h-137zM578 246q0 12 8 61l84 418h114 l-73 -457h98l35 457h125l-35 -457h63l-12 -102h-57l-15 -166h-122l12 166h-152q-29 0 -51 19.5t-22 60.5z" />
<glyph unicode="&#xbf;" horiz-adv-x="573" d="M4 -90q0 242 137 397l123 146l17 202h155l-18 -241l-211 -279l-25 -303h303l-14 -141q-96 -23 -209 -23q-139 0 -198.5 60.5t-59.5 181.5zM291 870l16 205h162l-16 -205h-162z" />
<glyph unicode="&#xc0;" horiz-adv-x="763" d="M-25 0l359 1393h315v-1393h-170v418h-231l-101 -418h-172zM281 573h198v676h-39zM313 1688h174l78 -220h-123z" />
<glyph unicode="&#xc1;" horiz-adv-x="763" d="M-25 0l359 1393h315v-1393h-170v418h-231l-101 -418h-172zM281 573h198v676h-39zM442 1468l111 220h174l-162 -220h-123z" />
<glyph unicode="&#xc2;" horiz-adv-x="763" d="M-25 0l359 1393h315v-1393h-170v418h-231l-101 -418h-172zM252 1468l184 220h146l143 -220h-113l-108 107l-139 -107h-113zM281 573h198v676h-39z" />
<glyph unicode="&#xc3;" horiz-adv-x="763" d="M-25 0l359 1393h315v-1393h-170v418h-231l-101 -418h-172zM248 1468q0 90 30.5 139.5t110.5 49.5q45 0 100 -23l127 -51l7 80h125q0 -96 -30 -143t-112 -47q-45 0 -100 22l-127 51l-6 -78h-125zM281 573h198v676h-39z" />
<glyph unicode="&#xc4;" horiz-adv-x="763" d="M-20 0l358 1393h311v-1393h-170v418h-231l-101 -418h-167zM281 573h198v676h-39zM283 1511l14 177h145l-14 -177h-145zM561 1511l14 177h150l-14 -177h-150z" />
<glyph unicode="&#xc5;" horiz-adv-x="763" d="M-25 0l359 1393h315v-1393h-170v418h-231l-101 -418h-172zM281 573h198v676h-39zM332 1591v2q0 82 49 139.5t145 57.5q90 0 129 -47t39 -107q0 -86 -47 -141t-143 -55q-90 0 -131 46t-41 105zM428 1532h158l12 162h-158z" />
<glyph unicode="&#xc6;" horiz-adv-x="976" d="M-51 0l379 1393h667l-16 -158h-283l-34 -438h241l-10 -152h-242l-39 -489h299l-26 -156h-271q-172 0 -172 147l23 271h-234l-104 -418h-178zM272 573h201l53 676h-86z" />
<glyph unicode="&#xc7;" horiz-adv-x="624" d="M78 449q0 197 30.5 429t88.5 345q96 190 297 190q80 0 161 -20l-12 -158h-313l-86 -1079h342l-11 -129q-82 -37 -180 -43l-22 -60h22q98 0 99 -96q0 -84 -74 -120t-178 -36v101h118l11 84h-119l49 129q-53 10 -92 34.5t-62.5 64.5t-39 78t-21.5 95t-7 94.5t-1 96.5z" />
<glyph unicode="&#xc8;" horiz-adv-x="612" d="M74 147l98 1246h459l-15 -158h-284l-35 -438h242l-11 -152h-241l-39 -489h301l-27 -156h-280q-168 0 -168 147zM225 1688h174l78 -220h-123z" />
<glyph unicode="&#xc9;" horiz-adv-x="612" d="M74 147l98 1246h459l-15 -158h-284l-35 -438h242l-11 -152h-241l-39 -489h301l-27 -156h-280q-168 0 -168 147zM354 1468l111 220h174l-162 -220h-123z" />
<glyph unicode="&#xca;" horiz-adv-x="612" d="M74 147l98 1246h459l-15 -158h-284l-35 -438h242l-11 -152h-241l-39 -489h301l-27 -156h-280q-168 0 -168 147zM172 1468l184 220h146l143 -220h-113l-108 107l-139 -107h-113z" />
<glyph unicode="&#xcb;" horiz-adv-x="612" d="M78 147l98 1246h455l-15 -158h-284l-35 -438h246l-11 -152h-245l-35 -489h301l-27 -156h-280q-168 0 -168 147zM201 1511l14 177h145l-14 -177h-145zM483 1511l15 177h145l-14 -177h-146z" />
<glyph unicode="&#xcc;" horiz-adv-x="401" d="M66 0l110 1393h178l-110 -1393h-178zM80 1688h174l78 -220h-123z" />
<glyph unicode="&#xcd;" horiz-adv-x="401" d="M66 0l110 1393h178l-110 -1393h-178zM209 1468l110 220h175l-162 -220h-123z" />
<glyph unicode="&#xce;" horiz-adv-x="401" d="M27 1468l184 220h145l144 -220h-113l-108 107l-140 -107h-112zM66 0l110 1393h178l-110 -1393h-178z" />
<glyph unicode="&#xcf;" horiz-adv-x="401" d="M55 1511l15 177h145l-14 -177h-146zM70 0l106 1393h182l-114 -1393h-174zM338 1511l14 177h146l-15 -177h-145z" />
<glyph unicode="&#xd0;" horiz-adv-x="860" d="M23 655l10 121h90l49 617h334q78 0 134 -28t87 -66.5t48.5 -101t21.5 -114t4 -120.5q0 -190 -35 -440.5t-107 -385.5q-78 -137 -249 -137h-168q-168 0 -168 147l41 508h-92zM246 156h305l86 1079h-307l-35 -459h154l-11 -121h-153z" />
<glyph unicode="&#xd1;" horiz-adv-x="886" d="M66 0l110 1393h211l209 -1176h14l62 1176h168l-105 -1366q-86 -37 -149 -37q-55 0 -82 35.5t-41 117.5l-154 879h-14l-64 -1022h-165zM287 1468q0 90 30.5 139.5t110.5 49.5q43 0 100 -23l127 -51l7 80h124q0 -96 -29.5 -143t-111.5 -47q-43 0 -100 22l-127 51l-6 -78 h-125z" />
<glyph unicode="&#xd2;" horiz-adv-x="876" d="M80 446v3q0 188 31.5 425.5t93.5 354.5q96 184 287 184q88 0 151.5 -33.5t96 -80t51 -117t22.5 -122.5t4 -120q0 -207 -37 -460t-112 -371q-37 -59 -109 -97.5t-160 -38.5q-86 0 -145 26t-93 65.5t-52.5 106.5t-23.5 127t-5 148zM244 156h321l84 1079h-319zM313 1688h174 l78 -220h-123z" />
<glyph unicode="&#xd3;" horiz-adv-x="876" d="M80 446v3q0 188 31.5 425.5t93.5 354.5q96 184 287 184q88 0 151.5 -33.5t96 -80t51 -117t22.5 -122.5t4 -120q0 -207 -37 -460t-112 -371q-37 -59 -109 -97.5t-160 -38.5q-86 0 -145 26t-93 65.5t-52.5 106.5t-23.5 127t-5 148zM244 156h321l84 1079h-319zM442 1468 l111 220h174l-162 -220h-123z" />
<glyph unicode="&#xd4;" horiz-adv-x="876" d="M80 446v3q0 188 31.5 425.5t93.5 354.5q96 184 287 184q88 0 151.5 -33.5t96 -80t51 -117t22.5 -122.5t4 -120q0 -207 -37 -460t-112 -371q-37 -59 -109 -97.5t-160 -38.5q-86 0 -145 26t-93 65.5t-52.5 106.5t-23.5 127t-5 148zM244 156h321l84 1079h-319zM260 1468 l184 220h146l143 -220h-112l-109 107l-139 -107h-113z" />
<glyph unicode="&#xd5;" horiz-adv-x="876" d="M80 446v3q0 188 31.5 425.5t93.5 354.5q96 184 287 184q88 0 151.5 -33.5t96 -80t51 -117t22.5 -122.5t4 -120q0 -207 -37 -460t-112 -371q-37 -59 -109 -97.5t-160 -38.5q-86 0 -145 26t-93 65.5t-52.5 106.5t-23.5 127t-5 148zM244 156h321l84 1079h-319zM250 1468 q0 90 30.5 139.5t110.5 49.5q43 0 101 -23l126 -51l7 80h125q0 -96 -30 -143t-112 -47q-43 0 -100 22l-127 51l-6 -78h-125z" />
<glyph unicode="&#xd6;" horiz-adv-x="876" d="M84 446v3q0 188 31.5 425.5t93.5 354.5q43 84 117.5 134t165.5 50q88 0 151.5 -33.5t96 -80t51 -117t22.5 -122.5t4 -120q0 -207 -37 -460t-112 -371q-35 -59 -105.5 -97.5t-163.5 -38.5q-84 0 -143 26t-92 65.5t-51.5 106.5t-23.5 127t-5 148zM248 156h321l82 1079h-317 zM289 1511l14 177h146l-15 -177h-145zM571 1511l15 177h145l-14 -177h-146z" />
<glyph unicode="&#xd7;" d="M176 854l90 90l246 -246l246 246l90 -90l-246 -246l244 -243l-90 -91l-244 244l-244 -244l-90 91l244 243z" />
<glyph unicode="&#xd8;" horiz-adv-x="876" d="M-31 0l129 219q-18 86 -18 227q0 190 31.5 428t93.5 355q96 184 287 184q164 0 247 -123l54 103h135l-133 -232q23 -109 22 -233q0 -195 -37 -448t-112 -371q-37 -59 -109 -97.5t-160 -38.5q-164 0 -247 115l-48 -88h-135zM244 156h327l62 757l-381 -665zM260 467 l381 666l8 102h-325z" />
<glyph unicode="&#xd9;" horiz-adv-x="847" d="M74 143l98 1250h178l-102 -1237h270l98 1237h179l-103 -1237h94l-8 -129q-70 -41 -155 -41q-102 0 -103 80v26q-164 -109 -289 -108q-76 0 -116.5 35.5t-40.5 123.5zM301 1688h174l78 -220h-123z" />
<glyph unicode="&#xda;" horiz-adv-x="847" d="M74 143l98 1250h178l-102 -1237h270l98 1237h179l-103 -1237h94l-8 -129q-70 -41 -155 -41q-102 0 -103 80v26q-164 -109 -289 -108q-76 0 -116.5 35.5t-40.5 123.5zM430 1468l111 220h174l-162 -220h-123z" />
<glyph unicode="&#xdb;" horiz-adv-x="847" d="M74 143l98 1250h178l-102 -1237h270l98 1237h179l-103 -1237h94l-8 -129q-70 -41 -155 -41q-102 0 -103 80v26q-164 -109 -289 -108q-76 0 -116.5 35.5t-40.5 123.5zM248 1468l184 220h146l143 -220h-113l-108 107l-140 -107h-112z" />
<glyph unicode="&#xdc;" horiz-adv-x="847" d="M78 143l98 1250h178l-102 -1237h270l99 1237h174l-103 -1237h94l-8 -129q-70 -41 -151 -41q-102 0 -103 80v26q-172 -109 -288 -108q-76 0 -117 35.5t-41 123.5zM276 1511l15 177h145l-14 -177h-146zM559 1511l14 177h146l-14 -177h-146z" />
<glyph unicode="&#xdd;" horiz-adv-x="710" d="M70 1393h186l102 -777q53 119 129 351.5t123 425.5h183q-70 -231 -179.5 -508t-205.5 -459l-31 -426h-178l43 430zM356 1468l111 220h174l-162 -220h-123z" />
<glyph unicode="&#xde;" horiz-adv-x="772" d="M66 0l110 1393h178l-16 -201h111q82 0 139 -25.5t87 -59.5t45 -87t18 -88t3 -82q0 -59 -6 -122.5t-28.5 -153t-60.5 -157t-110.5 -115.5t-168.5 -48h-107l-16 -254h-178zM272 410h242l47 624h-242z" />
<glyph unicode="&#xdf;" horiz-adv-x="815" d="M-80 -293h152l88 1194h-103l11 143h102l16 218q6 66 21.5 115.5t50.5 100t103.5 78t168.5 27.5q147 0 215 -80q41 -47 41 -137q0 -104 -81 -264l-152 -297l133 -309q90 -209 90 -295q0 -215 -250 -215q-80 0 -170 14l13 143h282l-178 432q-49 117 -49 205q0 86 51 199 l201 442h-311l-117 -1546q-10 -125 -67.5 -217t-172.5 -92q-53 0 -88 18v123z" />
<glyph unicode="&#xe0;" horiz-adv-x="770" d="M68 315q0 162 41 350.5t133 284.5q119 115 286 115q80 0 162 -35l-69 -887h96l-8 -116q-66 -47 -148 -47q-100 0 -100 81v35q-86 -117 -193 -116q-200 -1 -200 335zM225 143h232l59 758h-231zM309 1393h174l78 -244h-123z" />
<glyph unicode="&#xe1;" horiz-adv-x="770" d="M68 315q0 162 41 350.5t133 284.5q119 115 286 115q80 0 162 -35l-69 -887h96l-8 -116q-66 -47 -148 -47q-100 0 -100 81v35q-86 -117 -193 -116q-200 -1 -200 335zM225 143h232l59 758h-231zM428 1149l111 244h174l-162 -244h-123z" />
<glyph unicode="&#xe2;" horiz-adv-x="770" d="M68 315q0 162 41 350.5t133 284.5q119 115 286 115q80 0 162 -35l-69 -887h96l-8 -116q-66 -47 -148 -47q-100 0 -100 81v35q-86 -117 -193 -116q-200 -1 -200 335zM225 143h232l59 758h-231zM246 1149l184 244h145l144 -244h-113l-108 131l-140 -131h-112z" />
<glyph unicode="&#xe3;" horiz-adv-x="770" d="M68 315q0 162 41 350.5t133 284.5q119 115 286 115q80 0 162 -35l-69 -887h96l-8 -116q-66 -47 -148 -47q-100 0 -100 81v35q-86 -117 -193 -116q-200 -1 -200 335zM225 143h232l59 758h-231zM229 1198q0 90 31 139t111 49q43 0 100 -22l127 -51l6 80h125 q0 -96 -29.5 -143.5t-111.5 -47.5q-43 0 -101 23l-127 51l-6 -78h-125z" />
<glyph unicode="&#xe4;" horiz-adv-x="770" d="M72 315q0 162 41 350.5t133 284.5q119 115 286 115q76 0 158 -35l-65 -887h92l-8 -116q-66 -47 -144 -47q-104 0 -104 81v35q-86 -117 -189 -116q-200 -1 -200 335zM229 143h228l63 758h-231zM274 1217l15 176h145l-14 -176h-146zM557 1217l14 176h146l-15 -176h-145z " />
<glyph unicode="&#xe5;" horiz-adv-x="770" d="M68 315q0 162 41 350.5t133 284.5q119 115 286 115q80 0 162 -35l-69 -887h96l-8 -116q-66 -47 -148 -47q-100 0 -100 81v35q-86 -117 -193 -116q-200 -1 -200 335zM225 143h232l59 758h-231zM309 1264v2q0 82 49.5 139t145.5 57q90 0 129 -47t39 -106q0 -86 -47 -141.5 t-144 -55.5q-90 0 -131 46.5t-41 105.5zM406 1204h157l12 162h-157z" />
<glyph unicode="&#xe6;" horiz-adv-x="1083" d="M68 315q0 162 41 350.5t133 284.5q119 115 286 115q66 0 156 -14l-10 -105q80 117 198 117q57 0 96.5 -21.5t56.5 -57.5t23.5 -65.5t6.5 -62.5q0 -92 -35 -186.5t-105 -149.5q-106 -86 -268 -86l-22 -291h352l-8 -116q-102 -47 -211 -47q-168 0 -246 137 q-129 -137 -244 -137q-200 -1 -200 335zM225 143h232l59 758h-231zM653 580h224l26 321h-225z" />
<glyph unicode="&#xe7;" horiz-adv-x="577" d="M68 356q0 395 141 592q82 115 225 115q80 0 150 -16l-11 -146h-280l-60 -758h293l-10 -116q-68 -39 -158 -39l-26 -64h22q98 0 99 -96q0 -84 -74 -120t-178 -36v101h118l11 84h-119l49 133q-192 38 -192 366z" />
<glyph unicode="&#xe8;" horiz-adv-x="679" d="M68 352q0 399 157 590q98 121 228 121q199 0 198 -207q0 -92 -34.5 -186.5t-104.5 -149.5q-109 -86 -268 -86l-23 -291h352l-8 -116q-102 -47 -209 -47q-80 0 -136 27.5t-85 64.5t-45 94t-19 96t-3 90zM250 580h223l27 321h-224zM250 1393h174l78 -244h-123z" />
<glyph unicode="&#xe9;" horiz-adv-x="679" d="M68 352q0 399 157 590q98 121 228 121q199 0 198 -207q0 -92 -34.5 -186.5t-104.5 -149.5q-109 -86 -268 -86l-23 -291h352l-8 -116q-102 -47 -209 -47q-80 0 -136 27.5t-85 64.5t-45 94t-19 96t-3 90zM250 580h223l27 321h-224zM379 1149l110 244h175l-162 -244h-123z " />
<glyph unicode="&#xea;" horiz-adv-x="679" d="M68 352q0 399 157 590q98 121 228 121q199 0 198 -207q0 -92 -34.5 -186.5t-104.5 -149.5q-109 -86 -268 -86l-23 -291h352l-8 -116q-102 -47 -209 -47q-80 0 -136 27.5t-85 64.5t-45 94t-19 96t-3 90zM197 1149l184 244h145l144 -244h-113l-108 131l-140 -131h-112z M250 580h223l27 321h-224z" />
<glyph unicode="&#xeb;" horiz-adv-x="679" d="M68 352q0 399 157 590q98 121 228 121q199 0 198 -207q0 -92 -34.5 -186.5t-104.5 -149.5q-109 -86 -268 -86l-23 -291h357l-13 -116q-102 -47 -209 -47q-80 0 -136 27.5t-85 64.5t-45 94t-19 96t-3 90zM233 1217l15 176h145l-14 -176h-146zM250 580h223l27 321h-224z M516 1217l14 176h146l-14 -176h-146z" />
<glyph unicode="&#xec;" horiz-adv-x="401" d="M61 1393h175l77 -244h-123zM72 94l78 950h180l-82 -901h94l-8 -116q-66 -41 -156 -41q-49 0 -77.5 22.5t-28.5 85.5z" />
<glyph unicode="&#xed;" horiz-adv-x="401" d="M72 94l78 950h180l-82 -901h94l-8 -116q-66 -41 -156 -41q-49 0 -77.5 22.5t-28.5 85.5zM178 1149l111 244h174l-162 -244h-123z" />
<glyph unicode="&#xee;" horiz-adv-x="401" d="M8 1149l185 244h145l143 -244h-112l-109 131l-139 -131h-113zM72 94l78 950h180l-82 -901h94l-8 -116q-66 -41 -156 -41q-49 0 -77.5 22.5t-28.5 85.5z" />
<glyph unicode="&#xef;" horiz-adv-x="401" d="M70 1217l14 176h145l-14 -176h-145zM76 94l74 950h184l-86 -901h98l-8 -116q-66 -41 -160 -41q-102 -1 -102 108zM311 1217l15 176h145l-14 -176h-146z" />
<glyph unicode="&#xf0;" horiz-adv-x="751" d="M68 348q0 129 23.5 284.5t66.5 248.5q78 164 340 163l-117 203l-215 -143l12 153l146 89l-131 221h141q63 -55 117 -137l163 108l-14 -154l-82 -55q178 -283 178 -616q0 -156 -26.5 -335t-83.5 -265q-90 -133 -246 -133q-272 -1 -272 368zM225 143h252l60 758h-252z" />
<glyph unicode="&#xf1;" horiz-adv-x="796" d="M70 0l82 1044h172l-9 -100q49 45 128 83t151 38q119 0 119 -150l-70 -772h94l-8 -116q-70 -41 -156 -41q-49 0 -77.5 22.5t-28.5 85.5l72 807h-222l-69 -901h-178zM213 1198q0 90 30.5 139t110.5 49q43 0 101 -22l127 -51l6 80h125q0 -96 -30 -143.5t-112 -47.5 q-43 0 -100 23l-127 51l-6 -78h-125z" />
<glyph unicode="&#xf2;" horiz-adv-x="765" d="M68 348v2q0 129 23.5 287t68.5 250q86 178 258 178q279 0 278 -379q0 -135 -27.5 -311t-84.5 -264q-86 -131 -244 -131q-272 -1 -272 368zM225 143h252l60 758h-252zM246 1393h174l78 -244h-123z" />
<glyph unicode="&#xf3;" horiz-adv-x="765" d="M68 348v2q0 129 23.5 287t68.5 250q86 178 258 178q279 0 278 -379q0 -135 -27.5 -311t-84.5 -264q-86 -131 -244 -131q-272 -1 -272 368zM225 143h252l60 758h-252zM375 1149l110 244h174l-161 -244h-123z" />
<glyph unicode="&#xf4;" horiz-adv-x="765" d="M68 348v2q0 129 23.5 287t68.5 250q86 178 258 178q279 0 278 -379q0 -135 -27.5 -311t-84.5 -264q-86 -131 -244 -131q-272 -1 -272 368zM203 1149l184 244h145l144 -244h-113l-108 131l-140 -131h-112zM225 143h252l60 758h-252z" />
<glyph unicode="&#xf5;" horiz-adv-x="765" d="M68 348v2q0 129 23.5 287t68.5 250q86 178 258 178q279 0 278 -379q0 -135 -27.5 -311t-84.5 -264q-86 -131 -244 -131q-272 -1 -272 368zM193 1198q0 90 30.5 139t110.5 49q43 0 100 -22l127 -51l6 80h125q0 -96 -29.5 -143.5t-111.5 -47.5q-43 0 -100 23l-127 51 l-7 -78h-124zM225 143h252l60 758h-252z" />
<glyph unicode="&#xf6;" horiz-adv-x="765" d="M72 348v2q0 129 23.5 287t68.5 250q86 178 254 178q279 0 278 -379q0 -135 -27.5 -311t-84.5 -264q-78 -131 -244 -131q-268 -1 -268 368zM221 1217l15 176h145l-14 -176h-146zM229 143h252l60 758h-252zM504 1217l14 176h146l-15 -176h-145z" />
<glyph unicode="&#xf7;" d="M98 539v131h830v-131h-830zM410 295q0 43 29.5 72.5t72.5 29.5h2q41 0 70.5 -29.5t29.5 -72.5t-29.5 -72.5t-72.5 -29.5t-72.5 29.5t-29.5 72.5zM410 913q0 43 29.5 73t72.5 30h2q41 0 70.5 -30t29.5 -73t-29.5 -72.5t-72.5 -29.5t-72.5 29.5t-29.5 72.5z" />
<glyph unicode="&#xf8;" horiz-adv-x="765" d="M-31 0l121 195q-20 82 -20 176q0 330 90 516q86 178 258 178q127 0 194 -94l41 73h138l-119 -186q18 -88 18 -190q0 -139 -24.5 -304t-81.5 -253q-86 -131 -244 -131q-127 0 -195 92l-45 -72h-131zM225 143h260l45 537l-301 -483zM233 373l302 481l2 47h-261z" />
<glyph unicode="&#xf9;" horiz-adv-x="792" d="M72 143l71 901h174l-73 -901h221l76 901h174l-80 -901h96l-10 -116q-66 -41 -150 -41q-102 0 -102 80v26q-43 -41 -114.5 -76.5t-141.5 -35.5q-141 -1 -141 163zM256 1393h174l78 -244h-123z" />
<glyph unicode="&#xfa;" horiz-adv-x="792" d="M72 143l71 901h174l-73 -901h221l76 901h174l-80 -901h96l-10 -116q-66 -41 -150 -41q-102 0 -102 80v26q-43 -41 -114.5 -76.5t-141.5 -35.5q-141 -1 -141 163zM385 1149l111 244h174l-162 -244h-123z" />
<glyph unicode="&#xfb;" horiz-adv-x="792" d="M72 143l71 901h174l-73 -901h221l76 901h174l-80 -901h96l-10 -116q-66 -41 -150 -41q-102 0 -102 80v26q-43 -41 -114.5 -76.5t-141.5 -35.5q-141 -1 -141 163zM203 1149l184 244h145l144 -244h-113l-108 131l-140 -131h-112z" />
<glyph unicode="&#xfc;" horiz-adv-x="792" d="M76 143l71 901h170l-69 -901h221l76 901h170l-80 -901h96l-10 -116q-66 -41 -146 -41q-102 0 -102 80v26q-129 -113 -256 -112q-141 -1 -141 163zM225 1217l15 176h145l-14 -176h-146zM508 1217l14 176h146l-15 -176h-145z" />
<glyph unicode="&#xfd;" horiz-adv-x="729" d="M51 -293h164q29 53 73 164t66 195q-78 -66 -151 -66q-90 0 -90 143v901h184l-35 -901h109q33 92 96 422t84 479h182q-45 -244 -136 -618.5t-163 -579.5q-63 -174 -111.5 -227t-125.5 -53q-72 0 -146 35v106zM360 1149l111 244h174l-162 -244h-123z" />
<glyph unicode="&#xfe;" horiz-adv-x="751" d="M27 -434l159 2001h172l-57 -629q25 41 76 73.5t110 32.5q201 0 201 -317q0 -84 -8 -185.5t-47 -248t-105 -209.5q-51 -49 -98 -66.5t-125 -17.5h-78l-32 -434h-168zM238 143h233l59 758h-233z" />
<glyph unicode="&#xff;" horiz-adv-x="729" d="M51 -293h164q29 53 73 164t66 195q-78 -66 -151 -66q-90 0 -90 143v901h184l-35 -901h109q33 92 99.5 424t84.5 477h178q-45 -244 -136 -618.5t-163 -579.5q-63 -174 -111.5 -227t-125.5 -53q-72 0 -146 35v106zM231 1217l15 176h145l-14 -176h-146zM514 1217l14 176h146 l-15 -176h-145z" />
<glyph unicode="&#x152;" horiz-adv-x="1073" d="M78 453q0 193 32.5 429t96.5 349q94 162 285 162h600l-15 -158h-284l-35 -438h241l-10 -152h-241l-39 -489h301l-27 -156h-635q-74 0 -126 27.5t-79.5 66.5t-43 105.5t-18.5 120t-3 133.5zM244 156h291l88 1079h-291z" />
<glyph unicode="&#x153;" horiz-adv-x="1101" d="M68 348q0 127 24.5 282.5t69.5 250.5q88 184 260 184q152 0 219 -137q43 61 106.5 98t126.5 37q82 0 130.5 -40t58.5 -80t10 -87q0 -94 -34.5 -187.5t-104.5 -148.5q-109 -86 -268 -86l-21 -291h350l-8 -116q-98 -47 -209 -47q-96 0 -143 29.5t-80 84.5 q-80 -115 -221 -114q-266 -1 -266 368zM225 143h252l60 758h-252zM672 580h225l27 321h-226z" />
<glyph unicode="&#x178;" horiz-adv-x="710" d="M74 1393h186l98 -777q55 127 132 358.5t120 418.5h183q-72 -238 -180.5 -513.5t-204.5 -453.5l-31 -426h-174l43 430zM221 1511l15 177h145l-14 -177h-146zM504 1511l14 177h146l-15 -177h-145z" />
<glyph unicode="&#x2c6;" d="M319 1149l185 244h145l144 -244h-113l-109 131l-139 -131h-113z" />
<glyph unicode="&#x2dc;" d="M317 1198q0 90 31 139t111 49q45 0 100 -22l127 -51l6 80h125q0 -96 -29.5 -143.5t-111.5 -47.5q-45 0 -101 23l-126 51l-7 -78h-125z" />
<glyph unicode="&#x2000;" horiz-adv-x="894" />
<glyph unicode="&#x2001;" horiz-adv-x="1789" />
<glyph unicode="&#x2002;" horiz-adv-x="894" />
<glyph unicode="&#x2003;" horiz-adv-x="1789" />
<glyph unicode="&#x2004;" horiz-adv-x="595" />
<glyph unicode="&#x2005;" horiz-adv-x="446" />
<glyph unicode="&#x2006;" horiz-adv-x="296" />
<glyph unicode="&#x2007;" horiz-adv-x="296" />
<glyph unicode="&#x2008;" horiz-adv-x="223" />
<glyph unicode="&#x2009;" horiz-adv-x="356" />
<glyph unicode="&#x200a;" horiz-adv-x="98" />
<glyph unicode="&#x2010;" horiz-adv-x="468" d="M61 498l15 161h344l-14 -161h-345z" />
<glyph unicode="&#x2011;" horiz-adv-x="468" d="M61 498l15 161h344l-14 -161h-345z" />
<glyph unicode="&#x2012;" horiz-adv-x="468" d="M61 498l15 161h344l-14 -161h-345z" />
<glyph unicode="&#x2013;" horiz-adv-x="681" d="M59 537l11 122h577l-10 -122h-578z" />
<glyph unicode="&#x2014;" d="M59 537l11 122h903l-10 -122h-904z" />
<glyph unicode="&#x2018;" horiz-adv-x="313" d="M121 1128l43 222q43 219 129 219h22l-39 -441h-155z" />
<glyph unicode="&#x2019;" horiz-adv-x="313" d="M121 1126l39 441h155l-43 -221q-43 -219 -129 -220h-22z" />
<glyph unicode="&#x201a;" horiz-adv-x="313" d="M29 -94l39 440h155l-43 -221q-43 -219 -129 -219h-22z" />
<glyph unicode="&#x201c;" horiz-adv-x="530" d="M102 1128l43 222q43 219 129 219h23l-39 -441h-156zM338 1128l43 222q43 219 129 219h22l-38 -441h-156z" />
<glyph unicode="&#x201d;" horiz-adv-x="530" d="M121 1126l39 441h155l-43 -221q-43 -219 -129 -220h-22zM356 1126l39 441h156l-43 -221q-43 -219 -129 -220h-23z" />
<glyph unicode="&#x201e;" horiz-adv-x="530" d="M29 -94l39 440h155l-43 -221q-43 -219 -129 -219h-22zM264 -94l39 440h156l-43 -221q-43 -219 -129 -219h-23z" />
<glyph unicode="&#x2022;" d="M274 700v2q0 119 66 196t195 77q84 0 136 -43t68.5 -91t16.5 -100q0 -123 -66.5 -199.5t-193.5 -76.5q-66 0 -112 23.5t-68.5 62.5t-32 74.5t-9.5 74.5z" />
<glyph unicode="&#x2026;" horiz-adv-x="1153" d="M61 0l17 205h184l-16 -205h-185zM440 0l17 205h184l-16 -205h-185zM819 0l17 205h184l-16 -205h-185z" />
<glyph unicode="&#x202f;" horiz-adv-x="356" />
<glyph unicode="&#x2039;" horiz-adv-x="405" d="M45 559l205 385h137l-180 -385l112 -354h-126z" />
<glyph unicode="&#x203a;" horiz-adv-x="405" d="M12 205l181 385l-115 356h129l147 -356l-207 -385h-135z" />
<glyph unicode="&#x205f;" horiz-adv-x="446" />
<glyph unicode="&#x20ac;" horiz-adv-x="735" d="M47 535l10 120h68q0 31 8 84h-70l11 121h71q29 252 86 365q51 100 122 144t186 44q47 0 166 -20l-13 -158h-338l-28 -375h352l-10 -121h-353l-6 -84h355l-11 -120h-352l-29 -379h390l-11 -138q-139 -45 -248 -45q-78 0 -131 28t-83.5 72t-47 121.5t-21.5 152.5t-5 188 h-68z" />
<glyph unicode="&#x2122;" horiz-adv-x="886" d="M106 1313l7 80h262l-13 -80h-73l-29 -359h-100l28 359h-82zM352 954l88 439h140l10 -353h10l76 353h145v-439h-98l12 334h-10l-61 -254q-20 -80 -89 -80q-25 0 -55 11l-12 323h-10l-56 -334h-90z" />
<glyph unicode="&#xe000;" horiz-adv-x="1055" d="M0 1055h1055v-1055h-1055v1055z" />
<glyph unicode="&#xfb01;" horiz-adv-x="841" d="M-80 -293h152l88 1194h-103l11 143h102l16 218q4 57 19.5 109t46.5 102.5t87 80t132 29.5q61 0 102 -18l-12 -144h-192l-31 -377h424l-82 -901h96l-8 -116q-70 -41 -156 -41q-49 0 -78.5 22.5t-29.5 85.5l74 807h-248l-80 -1026q-10 -125 -68.5 -217t-173.5 -92 q-51 0 -88 18v123zM610 1235l17 213h176l-19 -213h-174z" />
<glyph unicode="&#xfb02;" horiz-adv-x="821" d="M-80 -293h152l88 1194h-103l11 143h102l16 218q23 322 328 321q158 0 272 -37l-108 -1403h98l-8 -116q-70 -41 -156 -41q-49 0 -78.5 22.5t-29.5 85.5l82 928l-80 -121h-176l-80 -1026q-10 -125 -68.5 -217t-173.5 -92q-51 0 -88 18v123zM338 1044h250l28 377h-247z" />
<glyph unicode="&#xfb03;" horiz-adv-x="1253" d="M-80 -293h152l88 1194h-103l11 143h102l16 218q6 57 17.5 99t37 86t77 67.5t124.5 23.5q115 0 201 -43q78 88 229 88q78 0 119 -18l-12 -144h-193l-30 -377h424l-82 -901h96l-8 -116q-70 -41 -156 -41q-49 0 -78.5 22.5t-29.5 85.5l73 807h-247l-89 -1180h-167l86 1180 h-248l-80 -1026q-10 -125 -68.5 -217t-173.5 -92q-51 0 -88 18v123zM338 1044h254l26 349h-251zM1028 1235l16 213h177l-19 -213h-174z" />
<glyph unicode="&#xfb04;" horiz-adv-x="1239" d="M-80 -293h152l88 1194h-103l11 143h102l16 218q6 57 17.5 99t37 86t77 67.5t124.5 23.5q109 0 201 -43q61 88 256 88q190 0 305 -37l-108 -1403h98l-8 -116q-70 -41 -156 -41q-49 0 -78.5 22.5t-29.5 85.5l82 928l-80 -121h-176l-89 -1180h-167l86 1180h-248l-80 -1026 q-10 -125 -68.5 -217t-173.5 -92q-51 0 -88 18v123zM338 1044h250l26 349h-247zM756 1044h250l28 377h-248z" />
</font>
</defs>
</svg>
