<?xml version="1.0" standalone="no"?>
<!DOCTYPE svg PUBLIC "-//W3C//DTD SVG 1.1//EN" "http://www.w3.org/Graphics/SVG/1.1/DTD/svg11.dtd" >
<svg xmlns="http://www.w3.org/2000/svg">
<metadata>
This is a custom SVG webfont generated by Font Squirrel.
Copyright   : Copyright  2000 Adobe Systems Incorporated  All Rights Reserved Patent Des pending
Designer    : Akira Kobayashi
Foundry URL : httpwwwadobecomtype
</metadata>
<defs>
<font id="CalciteProBlack" horiz-adv-x="1024" >
<font-face units-per-em="2048" ascent="1587" descent="-461" />
<missing-glyph horiz-adv-x="337" />
<glyph unicode=" "  horiz-adv-x="337" />
<glyph unicode="&#x09;" horiz-adv-x="337" />
<glyph unicode="&#xa0;" horiz-adv-x="337" />
<glyph unicode="!" horiz-adv-x="618" d="M92 0l27 342h373l-27 -342h-373zM137 455l39 938h426l-117 -938h-348z" />
<glyph unicode="&#x22;" horiz-adv-x="727" d="M150 1128v439h249l-55 -439h-194zM479 1128v439h248l-55 -439h-193z" />
<glyph unicode="#" d="M96 537l17 174h116l29 204h-129l14 175h146l45 303h207l-47 -303h139l45 303h205l-43 -303h121l-15 -175h-131l-31 -204h154l-14 -174h-164l-51 -338h-207l51 338h-145l-56 -338h-205l56 338h-107zM434 711h144l30 204h-143z" />
<glyph unicode="$" horiz-adv-x="983" d="M119 84l22 289h332l6 45l-188 262q-111 156 -111 285q0 106 34 185t89 119t100.5 58.5t92.5 26.5l6 121h188l-6 -119q72 0 229 -23l-22 -291h-287l-6 -47l156 -213q152 -205 151 -342q0 -102 -29.5 -178t-80 -118t-100.5 -62.5t-107 -28.5l-13 -135h-190l12 133 q-149 4 -278 33z" />
<glyph unicode="%" horiz-adv-x="1433" d="M61 967q0 229 97 348q78 96 233 96h838v-162l-797 -1249h-262l797 1233h-299q18 -37 18 -115q0 -262 -113 -366q-76 -72 -217 -72q-90 0 -151.5 26.5t-91 72.5t-41 91.5t-11.5 96.5zM322 870h77l27 363h-78zM801 258v2q0 227 96 346q86 104 233 105q84 0 144.5 -27 t92.5 -72t45 -95t13 -107q0 -260 -112 -367q-76 -72 -217 -72q-295 0 -295 287zM1061 160h76l28 362h-78z" />
<glyph unicode="&#x26;" horiz-adv-x="1116" d="M23 342q0 117 58 217t157 168q-119 127 -119 303q0 70 31.5 145.5t87.5 124.5q121 109 399 109q145 0 285 -31l-27 -305h-369l-18 -209h72l-25 -309h-80l-18 -254h145l41 563h510l-55 -311h-84l-33 -442q-207 -139 -532 -140q-68 0 -131.5 13.5t-135 49.5t-115.5 114.5 t-44 193.5z" />
<glyph unicode="'" horiz-adv-x="399" d="M150 1128v439h249l-55 -439h-194z" />
<glyph unicode="(" horiz-adv-x="528" d="M66 399q0 303 70.5 607.5t191.5 488.5h202q-88 -211 -140 -522t-52 -565q0 -479 82 -795h-203q-70 131 -110.5 348t-40.5 438z" />
<glyph unicode=")" horiz-adv-x="528" d="M29 -385q88 213 140 523.5t52 563.5q0 479 -82 795h203q70 -133 111 -350t41 -436q0 -303 -71 -607.5t-192 -488.5h-202z" />
<glyph unicode="*" horiz-adv-x="534" d="M76 1118l141 49l-135 47q4 35 29.5 79t52.5 63l96 -86l-18 137q33 18 96 18q47 0 84 -18l-45 -143l112 94q25 -20 44.5 -65.5t19.5 -84.5l-139 -43l131 -45q0 -37 -25.5 -88t-54.5 -65l-100 100l24 -147q-37 -20 -100 -21q-51 0 -82 21l39 145l-111 -98q-59 51 -59 151z " />
<glyph unicode="+" d="M88 483v254h295v295h262v-295h295v-254h-295v-295h-262v295h-295z" />
<glyph unicode="," horiz-adv-x="546" d="M25 -276l79 655h355l-70 -273q-20 -82 -43.5 -142t-60.5 -119.5t-90.5 -90t-122.5 -30.5h-47z" />
<glyph unicode="-" horiz-adv-x="512" d="M59 475l19 246h391l-18 -246h-392z" />
<glyph unicode="." horiz-adv-x="569" d="M72 0l30 379h365l-31 -379h-364z" />
<glyph unicode="/" horiz-adv-x="638" d="M-16 0l475 1393h235l-477 -1393h-233z" />
<glyph unicode="0" horiz-adv-x="983" d="M47 551v2q0 190 39 379.5t129 310.5q137 184 336 184q84 0 150.5 -22.5t109.5 -56t73.5 -89t46 -101.5t24 -112.5t9.5 -105.5t1 -96q0 -199 -41 -400.5t-125 -308.5q-135 -170 -342 -170q-410 0 -410 586zM414 301h123l61 791h-123z" />
<glyph unicode="1" horiz-adv-x="983" d="M219 1094l29 299h534l-106 -1393h-420l90 1094h-127z" />
<glyph unicode="2" horiz-adv-x="983" d="M35 0l20 250l406 694l10 129h-315l30 311q154 37 338 37q180 0 288 -80.5t108 -257.5q0 -109 -36 -200.5t-114 -216.5l-217 -347h348l-55 -319h-811z" />
<glyph unicode="3" horiz-adv-x="983" d="M78 12l24 307h361l16 234h-278l26 307h254l17 213h-330l25 311q172 27 309 27q432 0 432 -338q0 -231 -234 -350q96 -47 153.5 -132t57.5 -194q0 -209 -155 -327q-121 -92 -350 -93q-138 0 -328 35z" />
<glyph unicode="4" horiz-adv-x="983" d="M20 453q0 51 15 155l119 785h340l-101 -820h105l73 820h379l-63 -820h121l-56 -311h-84l-24 -262h-385l20 262h-274q-82 0 -133.5 53.5t-51.5 137.5z" />
<glyph unicode="5" horiz-adv-x="983" d="M96 12l29 307h364l17 234h-193q-90 0 -136 43t-46 143l72 654h739l-53 -320h-332l-33 -219h62q80 0 141 -27.5t96 -67.5t57.5 -93.5t30 -97.5t7.5 -87q0 -121 -42 -230.5t-112 -168.5q-119 -102 -371 -102q-133 -1 -297 32z" />
<glyph unicode="6" horiz-adv-x="983" d="M35 494q0 199 50 417.5t159 350.5q70 84 164 122.5t245 38.5q174 0 273 -30l-25 -320h-399l-10 -131h32q432 0 432 -422q0 -127 -38.5 -241.5t-100.5 -182.5q-117 -127 -330 -127q-121 0 -209 37t-134 88t-71.5 130t-31.5 136.5t-6 133.5zM430 301h111l28 371h-110z" />
<glyph unicode="7" horiz-adv-x="983" d="M102 0l379 1073h-358l29 320h819l-23 -219l-385 -1174h-461z" />
<glyph unicode="8" horiz-adv-x="983" d="M14 303q0 246 211 393q-141 141 -141 314q0 195 137 313q117 100 338 100q131 0 222 -34.5t132 -93t57.5 -112t16.5 -112.5v-2q0 -119 -58.5 -218t-137.5 -151q164 -139 163 -342q0 -182 -125 -288q-131 -109 -370 -109q-225 0 -335 96t-110 246zM416 283h129l20 276 h-127zM446 838h129l19 254h-127z" />
<glyph unicode="9" horiz-adv-x="983" d="M53 852q0 137 39 255t101 185q125 131 333 131q446 0 447 -522q0 -211 -44 -428t-145 -336q-133 -160 -417 -160q-166 0 -297 33l24 309h410l10 134h-65q-113 0 -195 35.5t-123 97t-59.5 126t-18.5 140.5zM442 719h109l29 373h-109z" />
<glyph unicode=":" horiz-adv-x="565" d="M82 59l27 342h331l-26 -342h-332zM127 645l27 342h331l-26 -342h-332z" />
<glyph unicode=";" horiz-adv-x="565" d="M37 -254l80 655h319l-59 -272q-86 -383 -293 -383h-47zM127 645l27 342h331l-26 -342h-332z" />
<glyph unicode="&#x3c;" d="M131 494v223l756 319v-315l-357 -117l357 -117v-313z" />
<glyph unicode="=" d="M111 287v262h802v-262h-802zM111 672v262h802v-262h-802z" />
<glyph unicode="&#x3e;" d="M137 174v313l357 117l-357 117v315l756 -319v-223z" />
<glyph unicode="?" horiz-adv-x="813" d="M102 1073l25 311q139 43 309 43q76 0 142.5 -14t132 -48t103.5 -102.5t38 -166.5q0 -209 -195 -396l-159 -151l-6 -94h-361l23 213l225 288l12 117h-289zM104 0l27 342h373l-27 -342h-373z" />
<glyph unicode="@" horiz-adv-x="1482" d="M61 506q0 199 57.5 407.5t170.5 321.5q197 197 579 197q598 0 598 -560q0 -137 -44 -275t-119 -222q-51 -55 -133.5 -94t-172.5 -39q-82 0 -125 27.5t-67 88.5q-94 -115 -199 -114q-94 0 -134 82t-40 196q0 156 46 306.5t136 240.5q94 94 269 94q119 0 221 -49l-62 -647 h123l62 739h-807l-84 -1018h883l-15 -161q-260 -78 -520 -78q-328 0 -467 127q-156 139 -156 430zM713 467h86l39 461h-86z" />
<glyph unicode="A" horiz-adv-x="1034" d="M-41 0l317 1393h687v-1393h-410v342h-133l-47 -342h-414zM451 608h110v488h-45z" />
<glyph unicode="B" horiz-adv-x="1073" d="M70 174l96 1219h541q90 0 157.5 -22.5t104.5 -55.5t59.5 -78t28.5 -80t6 -72q0 -246 -215 -350q76 -45 131 -132t55 -200q0 -176 -108.5 -289.5t-354.5 -113.5h-299q-202 0 -202 174zM477 301h125l23 287h-127zM518 827h119l22 265h-120z" />
<glyph unicode="C" horiz-adv-x="868" d="M51 498q0 481 213 727q174 197 441 196q111 0 196 -28l-31 -320h-317l-59 -754h325l-24 -305q-113 -47 -258 -47q-121 0 -212.5 36t-141.5 89t-81.5 129t-41 140.5t-9.5 136.5z" />
<glyph unicode="D" horiz-adv-x="1157" d="M70 174l96 1219h516q446 0 446 -545q0 -455 -151 -674q-135 -174 -393 -174h-312q-202 0 -202 174zM500 301h137l61 791h-135z" />
<glyph unicode="E" horiz-adv-x="847" d="M70 174l96 1219h698l-24 -320h-285l-18 -223h241l-22 -297h-240l-18 -234h317l-55 -319h-486q-98 0 -151 46t-53 128z" />
<glyph unicode="F" horiz-adv-x="804" d="M61 0l105 1393h688l-25 -320h-274l-23 -287h226l-25 -311h-217l-35 -475h-420z" />
<glyph unicode="G" horiz-adv-x="1052" d="M51 498q0 483 211 727q174 197 469 196q158 0 279 -28l-31 -320h-432l-60 -772h140l18 238h-76l21 299h436l-59 -746q-156 -119 -410 -119q-506 1 -506 525z" />
<glyph unicode="H" horiz-adv-x="1161" d="M61 0l111 1393h414l-43 -541h131l45 541h416l-109 -1393h-414l43 555h-135l-43 -555h-416z" />
<glyph unicode="I" horiz-adv-x="618" d="M61 0l109 1393h422l-109 -1393h-422z" />
<glyph unicode="J" horiz-adv-x="620" d="M-92 -80h147l115 1473h424l-111 -1411q-18 -152 -110 -238t-312 -86q-111 0 -153 16v246z" />
<glyph unicode="K" horiz-adv-x="1124" d="M61 0l111 1393h403l-55 -586h60q35 88 80 274.5t61 311.5h444q-31 -152 -110.5 -357t-149.5 -297q100 -57 101 -235v-203h86l-25 -274q-102 -49 -254 -50q-205 0 -205 158v410h-98l-45 -545h-404z" />
<glyph unicode="L" horiz-adv-x="811" d="M70 174l96 1219h424l-92 -1074h303l-58 -319h-471q-202 0 -202 174z" />
<glyph unicode="M" horiz-adv-x="1593" d="M-16 0l258 1393h524v-924h14l187 924h544v-1393h-413l35 870h-15l-110 -551q-61 -319 -297 -319q-88 0 -191 33l-45 837h-14l-105 -870h-372z" />
<glyph unicode="N" horiz-adv-x="1193" d="M61 0l111 1393h504l100 -938h15l26 938h350l-104 -1366q-135 -49 -262 -50q-119 0 -189.5 44.5t-85.5 160.5l-82 666h-14l-27 -848h-342z" />
<glyph unicode="O" horiz-adv-x="1161" d="M66 551v2q0 178 45 369.5t135 310.5q80 102 177 148t234 46q123 0 214.5 -42t140.5 -102t77.5 -146t36 -151.5t7.5 -141.5q0 -199 -44.5 -397.5t-136.5 -307.5q-150 -176 -393 -176q-129 0 -223 39t-144.5 96.5t-80 142.5t-37.5 154.5t-8 155.5zM502 301h135l61 791h-135 z" />
<glyph unicode="P" horiz-adv-x="1083" d="M61 0l109 1393h539q98 0 172.5 -30t112.5 -72t61.5 -99t30 -99t6.5 -87q0 -96 -19.5 -187.5t-68 -190t-149.5 -158.5t-247 -60h-96l-29 -410h-422zM522 713h121l31 379h-121z" />
<glyph unicode="Q" horiz-adv-x="1161" d="M66 553q0 182 44 371.5t136 308.5q80 102 177 148t234 46q123 0 214.5 -42t140.5 -102t77.5 -146t36 -151.5t7.5 -141.5q0 -195 -50.5 -393.5t-152.5 -305.5q-100 -102 -234 -133l-8 -67h262l-45 -252q-123 -45 -307 -45q-285 0 -285 202q0 86 52 170q-299 99 -299 533z M502 301h135l61 791h-135z" />
<glyph unicode="R" horiz-adv-x="1112" d="M61 0l111 1393h524q102 0 177 -23.5t114 -54.5t60.5 -78t26.5 -80t5 -72q0 -244 -207 -352q133 -49 134 -227v-205h86l-25 -274q-102 -49 -254 -50q-205 0 -205 158v371h-94l-37 -506h-416zM518 782h121l27 310h-123z" />
<glyph unicode="S" horiz-adv-x="876" d="M35 6l24 313h336l8 72l-190 281q-119 174 -119 315q0 113 33 195t79 125t114.5 68.5t122 31.5t120.5 6q156 0 283 -20l-27 -320h-291l-8 -69l158 -232q162 -238 162 -381q0 -418 -461 -418q-172 0 -344 33z" />
<glyph unicode="T" horiz-adv-x="854" d="M39 1069l24 324h893l-57 -324h-217l-72 -1069h-420l80 1069h-231z" />
<glyph unicode="U" horiz-adv-x="1150" d="M70 219l92 1174h413l-83 -1092h120l86 1092h416l-86 -1092h84l-22 -250q-127 -74 -293 -74q-188 0 -189 115v17q-57 -53 -144 -91t-167 -38q-41 0 -74 7t-71.5 29.5t-60 73.5t-21.5 129z" />
<glyph unicode="V" horiz-adv-x="1085" d="M119 31v1362h424l-37 -1086h20q49 180 101.5 510t72.5 576h433q-35 -264 -117 -624.5t-162 -528.5q-61 -129 -150.5 -200t-248.5 -71q-158 1 -336 62z" />
<glyph unicode="W" horiz-adv-x="1619" d="M119 33v1360h422l-37 -1086h18q45 135 100.5 506t63.5 580h391l-37 -1086h21q51 188 103.5 518t66.5 568h436q-35 -264 -117 -624.5t-161 -528.5q-127 -270 -373 -271q-131 0 -238 62l10 444h-14q-25 -209 -96 -346q-82 -160 -293 -160q-61 0 -142 19.5t-124 44.5z" />
<glyph unicode="X" horiz-adv-x="1038" d="M-47 0q29 145 114 374.5t169 373.5l-148 645h447l51 -523q74 276 100 523h406q-29 -160 -112 -388.5t-161 -353.5l82 -350h107l-25 -274q-106 -49 -256 -50q-184 0 -211 177l-51 329q-59 -211 -96 -483h-416z" />
<glyph unicode="Y" horiz-adv-x="1003" d="M45 1393h455l53 -617q35 96 82 296t67 321h416q-53 -186 -181 -493.5t-243 -483.5l-35 -416h-426l48 424z" />
<glyph unicode="Z" horiz-adv-x="942" d="M-14 162q0 80 65 200l393 711h-309l25 320h631q186 0 186 -172q0 -78 -72 -209l-385 -693h381l-57 -319h-686q-70 0 -121 37t-51 125z" />
<glyph unicode="[" horiz-adv-x="552" d="M27 -295l133 1708q8 57 25.5 75.5t58.5 18.5h319l-10 -155h-129l-127 -1583h149l-12 -156h-323q-43 0 -63.5 18.5t-20.5 73.5z" />
<glyph unicode="\" horiz-adv-x="638" d="M104 1393h236l223 -1393h-233z" />
<glyph unicode="]" horiz-adv-x="552" d="M6 -387l10 156h129l127 1583h-149l12 155h324q43 0 63.5 -19.5t20.5 -74.5l-133 -1708q-8 -57 -25.5 -74.5t-58.5 -17.5h-320z" />
<glyph unicode="^" d="M80 580l319 755h224l319 -755h-313l-117 356l-117 -356h-315z" />
<glyph unicode="_" d="M-135 -256l20 102h1024l-20 -102h-1024z" />
<glyph unicode="`" d="M260 1393h369l110 -250h-260z" />
<glyph unicode="a" horiz-adv-x="1060" d="M41 340q0 162 48 323.5t153 258.5q78 72 177 107.5t263 35.5q174 0 313 -39l-63 -762h100l-20 -237q-117 -49 -269 -50q-201 0 -200 119v13q-102 -131 -256 -132q-78 0 -130.5 38t-76 100.5t-31.5 116t-8 108.5zM434 264h107l41 516h-107z" />
<glyph unicode="b" horiz-adv-x="1030" d="M55 84l117 1483h401l-61 -576q113 76 233 76q76 0 130.5 -39t77 -100.5t31.5 -112.5t9 -100q0 -184 -42 -356.5t-130 -262.5q-129 -135 -356 -135q-127 0 -239 35t-171 88zM455 264h106l41 516h-106z" />
<glyph unicode="c" horiz-adv-x="729" d="M41 397q0 338 164 535q123 150 327 149q123 0 218 -37l-21 -264h-242l-41 -516h250l-20 -237q-27 -27 -111 -46.5t-141 -19.5q-102 0 -177 32t-113 75t-60.5 108.5t-27.5 113.5t-5 107z" />
<glyph unicode="d" horiz-adv-x="1048" d="M41 340q0 164 48 324.5t153 257.5q137 131 360 131l37 514h397l-104 -1303h100l-20 -237q-117 -49 -269 -50q-201 0 -200 119v13q-102 -131 -256 -132q-78 0 -130.5 38t-76 100.5t-31.5 116t-8 108.5zM434 264h107l41 516h-107z" />
<glyph unicode="e" horiz-adv-x="903" d="M35 391q0 319 160 516q141 178 372 178q332 0 332 -303q0 -219 -139 -313q-113 -78 -318 -78l-10 -127h383l-20 -237q-162 -66 -344 -66q-127 0 -214 40t-128 109.5t-57.5 136t-16.5 144.5zM451 573h124l17 207h-125z" />
<glyph unicode="f" horiz-adv-x="651" d="M-86 -434l4 246h154l73 968h-104l20 264h101l10 146q6 63 15.5 108t37 103.5t70.5 94.5t121 61.5t182 25.5q70 0 197 -20l-27 -277h-201l-18 -242h194l-43 -264h-165l-64 -841q-10 -154 -106.5 -276t-288.5 -122q-84 0 -162 25z" />
<glyph unicode="g" horiz-adv-x="1028" d="M-76 -281q0 84 68.5 138.5t162 75t207.5 22.5l-10 -139h148l24 276q-106 -82 -231 -82q-74 0 -127 34t-79 87t-36 104.5t-10 104.5q0 162 48 323.5t153 258.5q78 74 176 108.5t264 34.5q147 0 313 -39l-69 -874q-23 -293 -148 -431q-154 -166 -497 -165q-357 -1 -357 163 zM434 264h107l41 516h-107z" />
<glyph unicode="h" horiz-adv-x="1087" d="M51 0l125 1567h399l-51 -611q145 109 293 109q201 0 201 -195l-57 -606h98l-21 -237q-125 -49 -270 -50q-39 0 -66.5 4.5t-64.5 17.5t-57.5 48t-20.5 88l53 645h-98l-61 -780h-402z" />
<glyph unicode="i" horiz-adv-x="589" d="M61 135l74 909h400l-72 -780h98l-20 -237q-121 -49 -271 -50q-41 0 -68.5 4.5t-64.5 17.5t-56.5 48t-19.5 88zM141 1167l23 281h405l-22 -281h-406z" />
<glyph unicode="j" horiz-adv-x="581" d="M-121 -440l4 252h156l92 1232h406l-88 -1107q-6 -72 -32 -138.5t-75 -126t-132 -95.5t-192 -36q-92 1 -139 19zM139 1167l23 281h405l-22 -281h-406z" />
<glyph unicode="k" horiz-adv-x="1017" d="M51 0l125 1567h389l-78 -877h101l39 354h374l-18 -167q-10 -119 -32.5 -181.5t-69.5 -99.5l51 -332h74l-23 -237q-111 -49 -223 -50q-199 0 -203 158l-8 332l-66 -23l-39 -444h-393z" />
<glyph unicode="l" horiz-adv-x="598" d="M57 135l113 1432h416l-115 -1303h100l-20 -237q-139 -49 -285 -50q-41 0 -68.5 4.5t-64.5 17.5t-56.5 48t-19.5 88z" />
<glyph unicode="m" horiz-adv-x="1568" d="M51 0l82 1044h397l-6 -88q145 109 293 109t189 -109q150 109 292 109q201 0 201 -195l-57 -606h98l-20 -237q-125 -49 -271 -50q-39 0 -66.5 4.5t-64.5 17.5t-57.5 48t-20.5 88l54 645h-99l-61 -780h-381l59 780h-98l-61 -780h-402z" />
<glyph unicode="n" horiz-adv-x="1087" d="M51 0l82 1044h397l-6 -88q145 109 293 109q201 0 201 -195l-57 -606h98l-21 -237q-125 -49 -270 -50q-39 0 -66.5 4.5t-64.5 17.5t-57.5 48t-20.5 88l53 645h-98l-61 -780h-402z" />
<glyph unicode="o" horiz-adv-x="1050" d="M49 430v2q0 315 160 502q129 147 344 147q115 0 202 -36.5t133 -89t74.5 -125t37 -131t8.5 -119.5q0 -303 -138 -465q-135 -154 -354 -154q-119 0 -208 34t-137 83t-76.5 117.5t-37 122t-8.5 112.5zM453 264h116l43 516h-116z" />
<glyph unicode="p" horiz-adv-x="1019" d="M8 -434l115 1438q231 70 430 69q430 0 430 -399q0 -172 -44 -330t-134 -244q-51 -49 -128 -74.5t-140 -25.5h-93l-30 -434h-406zM444 264h107l41 516h-107z" />
<glyph unicode="q" horiz-adv-x="1038" d="M41 340q0 164 48 324.5t153 257.5q76 74 174 108.5t266 34.5q162 0 313 -39l-123 -1460h-399l51 520q-109 -109 -237 -109q-78 0 -130.5 38t-76 100.5t-31.5 116t-8 108.5zM434 264h107l41 516h-107z" />
<glyph unicode="r" horiz-adv-x="710" d="M51 0l82 1044h365l-9 -96q111 164 308 164l-35 -332h-244l-59 -780h-408z" />
<glyph unicode="s" horiz-adv-x="727" d="M25 0l26 264h258l-114 156q-129 178 -129 307q0 59 15 112.5t55 107.5t122 86t199 32q135 0 243 -21l-22 -264h-236l86 -123q86 -123 123 -198.5t37 -155.5q0 -326 -385 -326q-145 0 -278 23z" />
<glyph unicode="t" horiz-adv-x="673" d="M53 780l25 264h88l78 275h321l-24 -275h184l-23 -264h-172l-20 -258l-23 -258h156l-25 -237q-117 -49 -294 -50q-51 0 -84 4.5t-74 17.5t-61.5 48t-20.5 88l27 324l26 321h-84z" />
<glyph unicode="u" horiz-adv-x="1087" d="M55 174l72 870h403l-65 -780h98l62 780h395l-64 -780h101l-21 -237q-121 -49 -268 -50q-201 0 -201 119v13q-135 -131 -309 -132q-203 0 -203 197z" />
<glyph unicode="v" horiz-adv-x="995" d="M100 27v1017h410l-41 -780h18q35 106 78 351t62 429h389q-29 -221 -98.5 -486t-129.5 -380q-109 -209 -356 -209q-178 1 -332 58z" />
<glyph unicode="w" horiz-adv-x="1474" d="M100 27v1017h410l-43 -780h18q39 109 85 370t57 410h360l-39 -780h19q35 106 77.5 351t61.5 429h389q-29 -221 -98.5 -486t-128.5 -380q-106 -209 -344 -209q-45 0 -110.5 15.5t-104.5 35.5l10 293h-14q-25 -139 -80 -217q-82 -127 -273 -127q-51 0 -130 17.5t-122 40.5z " />
<glyph unicode="x" horiz-adv-x="985" d="M-20 0q18 98 91.5 284.5t137.5 295.5l-49 200h-80l20 248q23 12 90.5 25.5t110.5 13.5q115 0 159 -46t54 -126l23 -209q55 119 98 358h364q-18 -115 -85.5 -275.5t-141.5 -256.5l66 -248h104l-22 -237q-102 -49 -240 -50q-113 0 -152 41t-53 148l-24 199 q-66 -158 -99 -365h-372z" />
<glyph unicode="y" horiz-adv-x="983" d="M90 170v874h406l-35 -796h39q29 135 64.5 387t47.5 409h389q-23 -227 -111.5 -642.5t-168.5 -622.5q-49 -125 -116.5 -186.5t-203.5 -61.5q-115 0 -280 49v232h248q53 109 90 256q-88 -68 -201 -68q-53 0 -90 18.5t-52.5 48t-20.5 53t-5 50.5z" />
<glyph unicode="z" horiz-adv-x="845" d="M29 152q0 80 49 163l276 465h-248l29 264h516q82 0 126 -44t44 -115q0 -92 -80 -219l-241 -402h299l-47 -264h-566q-61 0 -109 37t-48 115z" />
<glyph unicode="{" horiz-adv-x="540" d="M-29 483l13 166h59q55 0 79.5 25.5t33.5 99.5l22 541q10 184 129 184h246l-12 -156h-107l-39 -608q-20 -152 -135 -164q63 -14 85 -52t22 -116l-52 -634h119l-10 -156h-240q-76 0 -106.5 30.5t-30.5 102.5l70 641q0 55 -13.5 75.5t-62.5 20.5h-70z" />
<glyph unicode="|" horiz-adv-x="512" d="M139 -510v2048h234v-2048h-234z" />
<glyph unicode="}" horiz-adv-x="540" d="M6 -387l10 156h107l41 608q20 152 135 164q-63 14 -86 52t-23 116l54 634h-121l12 156h240q76 0 106.5 -30.5t30.5 -102.5l-70 -618q0 -55 13.5 -77t62.5 -22h70l-15 -166h-57q-57 0 -79.5 -24.5t-28.5 -98.5l-23 -563q-10 -184 -133 -184h-246z" />
<glyph unicode="~" d="M84 532q8 121 76.5 207t181.5 86q90 0 186 -63q102 -70 148 -70q84 0 108 125l174 -137q-6 -121 -74.5 -206t-181.5 -85q-90 0 -186 64q-102 70 -147 69q-80 0 -99 -123z" />
<glyph unicode="&#xa1;" horiz-adv-x="618" d="M49 -283l117 938h348l-39 -938h-426zM160 768l26 342h373l-27 -342h-372z" />
<glyph unicode="&#xa2;" horiz-adv-x="983" d="M143 575q0 322 162 531q33 45 87 79t95 48l13 143h186l-10 -123q100 0 176 -28l-21 -267h-237l-41 -514h246l-21 -237q-31 -20 -98.5 -36.5t-101.5 -16.5l-9 -138h-182l12 144q-256 53 -256 415z" />
<glyph unicode="&#xa3;" horiz-adv-x="983" d="M90 573l19 269h112l2 41q8 150 42 239.5t106 167.5q113 125 352 125q106 0 221 -18l-22 -287h-267l-24 -268h231l-20 -269h-234l-20 -254h360l-55 -319h-748l54 573h-109z" />
<glyph unicode="&#xa4;" d="M18 279l129 131q-55 98 -55 208q0 117 58 213l-132 132l154 155l133 -133q94 53 207 53t207 -53l133 133l154 -155l-132 -132q57 -96 58 -213q0 -111 -55 -208l129 -131l-154 -156l-131 131q-98 -55 -209 -55t-209 55l-131 -131zM317 618.5q0 -79.5 57.5 -137 t137.5 -57.5t137.5 57.5t57.5 137t-57.5 137t-137.5 57.5h-2q-78 0 -135.5 -57.5t-57.5 -137z" />
<glyph unicode="&#xa5;" horiz-adv-x="983" d="M37 1393h426l80 -580q94 256 153 580h406q-37 -125 -130 -327t-153 -304h119l-16 -193h-228l-10 -127h229l-16 -192h-229l-19 -250h-403l28 250h-208l16 192h205l12 127h-209l16 193h127z" />
<glyph unicode="&#xa6;" horiz-adv-x="512" d="M139 358h234v-716h-234v716zM139 666v716h234v-716h-234z" />
<glyph unicode="&#xa7;" horiz-adv-x="999" d="M76 16l22 263h260l-186 389q-82 172 -82 321q0 102 28.5 180t75 124t116 74t139 37t155.5 9q139 0 354 -20l-24 -281h-250l158 -315q115 -225 114 -396q0 -127 -36.5 -214t-105.5 -130t-144.5 -59t-173.5 -16q-176 -1 -420 34zM360 887l310 -684l26 289l-311 669z" />
<glyph unicode="&#xa8;" d="M260 1143l21 250h268l-21 -250h-268zM618 1143l21 250h268l-20 -250h-269z" />
<glyph unicode="&#xa9;" horiz-adv-x="1218" d="M78 465v2q0 629 192 821q121 121 414 121q246 0 350 -96q61 -57 90 -143.5t29 -237.5q0 -659 -188 -836q-123 -115 -416 -114q-246 0 -352 100q-61 57 -90 143t-29 240zM219 475q0 -225 82 -295q76 -66 254 -65q129 0 195.5 18.5t117.5 67.5q143 139 144 717 q0 225 -82 296q-76 66 -252 66q-217 0 -311 -86q-147 -135 -148 -717v-2zM311 573q0 305 138 467q111 123 276 123q96 0 162 -20l-25 -244h-198l-31 -407h205l-21 -224q-84 -37 -199 -37q-94 0 -159.5 34t-95 90.5t-41 108.5t-11.5 109z" />
<glyph unicode="&#xaa;" horiz-adv-x="808" d="M86 932q0 102 37 212.5t110 172.5q104 86 299 86q147 0 250 -25l-39 -471h66l-16 -180q-96 -31 -166 -31q-166 0 -166 88v9q-27 -37 -80 -67t-109 -30q-186 0 -186 236zM381 907h80l22 287h-80z" />
<glyph unicode="&#xab;" horiz-adv-x="792" d="M35 559l205 385h225l-174 -385l108 -354h-217zM389 559l174 385h225l-143 -385l78 -354h-217z" />
<glyph unicode="&#xac;" d="M109 598v270h784v-561h-287v291h-497z" />
<glyph unicode="&#xad;" horiz-adv-x="512" d="M59 475l19 246h391l-18 -246h-392z" />
<glyph unicode="&#xae;" horiz-adv-x="614" d="M72 1010v2q0 270 94 354q59 53 213 53q133 0 186 -45q63 -53 64 -176q0 -266 -92 -350q-66 -59 -213 -60q-141 0 -196.5 49.5t-55.5 172.5zM158 1016q0 -94 37 -123q33 -25 127 -25q113 0 157 39q63 55 64 287q0 100 -43 129q-37 25 -125 25q-109 0 -154 -35 q-63 -51 -63 -295v-2zM211 922l33 370h151q92 0 92 -80q0 -82 -55 -108q33 -12 33 -53v-52h22l-8 -71q-20 -12 -61 -13q-53 0 -53 46v90h-35l-11 -129h-108zM332 1128h45l6 86h-45z" />
<glyph unicode="&#xaf;" d="M303 1176l19 217h526l-19 -217h-526z" />
<glyph unicode="&#x2c9;" d="M303 1176l19 217h526l-19 -217h-526z" />
<glyph unicode="&#xb0;" horiz-adv-x="716" d="M106 1151q0 123 86.5 206t210.5 83h3q123 0 208.5 -83t85.5 -206t-86 -206t-210.5 -83t-211 83t-86.5 206zM276 1151q0 -55 36 -94t91.5 -39t91 39t35.5 94t-35.5 94t-91.5 39h-2q-53 0 -89 -39t-36 -94z" />
<glyph unicode="&#xb1;" d="M111 160v258h802v-258h-802zM111 729v240h270v241h262v-241h270v-240h-270v-252h-262v252h-270z" />
<glyph unicode="&#xb2;" horiz-adv-x="634" d="M76 672l10 131l242 344l6 51h-187l19 178q88 27 219 27q96 0 162.5 -47t66.5 -137q0 -121 -77 -215l-119 -148h180l-39 -184h-483z" />
<glyph unicode="&#xb3;" horiz-adv-x="634" d="M98 676l15 186h186l8 94h-145l14 162h131l8 82h-170l15 189q82 14 159 14q115 0 193 -41t78 -135q0 -117 -121 -183q109 -53 109 -167q0 -109 -82 -170q-57 -47 -199 -48q-115 1 -199 17z" />
<glyph unicode="&#xb4;" d="M336 1143l149 250h369l-258 -250h-260z" />
<glyph unicode="&#xb5;" horiz-adv-x="1110" d="M12 -258l115 1302h403l-61 -780h117l59 780h399l-63 -780h98l-24 -237q-117 -49 -267 -50q-174 0 -174 95v8q-37 -80 -125 -80q-35 0 -53 8l-12 -266h-412z" />
<glyph unicode="&#x3bc;" horiz-adv-x="1110" d="M12 -258l115 1302h403l-61 -780h117l59 780h399l-63 -780h98l-24 -237q-117 -49 -267 -50q-174 0 -174 95v8q-37 -80 -125 -80q-35 0 -53 8l-12 -266h-412z" />
<glyph unicode="&#xb6;" horiz-adv-x="870" d="M57 467q0 160 46.5 327t134.5 257q135 139 368 139q135 0 232 -43l-7 -103h-98l-74 -911h121l-6 -96q-98 -55 -293 -55q-113 0 -195.5 33.5t-125.5 81.5t-67.5 120t-30 126t-5.5 124zM434 133h119l74 911h-119z" />
<glyph unicode="&#xb7;" horiz-adv-x="569" d="M98 406l31 378h365l-31 -378h-365z" />
<glyph unicode="&#x2219;" horiz-adv-x="569" d="M98 406l31 378h365l-31 -378h-365z" />
<glyph unicode="&#xb8;" d="M299 -207h121l8 64h-119l56 143h161l-30 -68h22q39 0 74 -22.5t35 -77.5q0 -61 -54.5 -102t-125 -56.5t-148.5 -15.5v135z" />
<glyph unicode="&#xb9;" horiz-adv-x="634" d="M186 1217l17 176h336l-54 -721h-274l43 545h-68z" />
<glyph unicode="&#xba;" horiz-adv-x="808" d="M86 997v2q0 209 104 320q94 100 252 100q178 0 259 -97t81 -228q0 -211 -102 -308q-98 -94 -252 -94q-100 0 -171 28t-106.5 75t-50 96t-14.5 106zM381 913h88l23 287h-89z" />
<glyph unicode="&#xbb;" horiz-adv-x="792" d="M27 205l143 385l-78 354h217l117 -354l-174 -385h-225zM350 205l174 385l-108 354h217l147 -354l-205 -385h-225z" />
<glyph unicode="&#xbc;" horiz-adv-x="1503" d="M186 1217l17 176h336l-54 -721h-274l43 545h-68zM229 0l748 1393h229l-747 -1393h-230zM827 236q0 47 7 79l90 410h192l-43 -397h60l36 397h226l-31 -397h63l-30 -193h-47l-9 -135h-235l12 135h-162q-129 1 -129 101z" />
<glyph unicode="&#xbd;" horiz-adv-x="1503" d="M186 1217l17 176h336l-54 -721h-274l43 545h-68zM229 0l748 1393h229l-747 -1393h-230zM838 0l10 131l242 344l2 51h-183l19 179q88 27 219 26q96 0 162.5 -47t66.5 -137q0 -121 -78 -215l-118 -148h192l-33 -184h-501z" />
<glyph unicode="&#xbe;" horiz-adv-x="1503" d="M98 676l15 186h186l8 94h-145l14 162h131l8 82h-170l15 189q82 14 159 14q115 0 193 -41t78 -135q0 -117 -121 -183q109 -53 109 -167q0 -109 -82 -170q-57 -47 -199 -48q-115 1 -199 17zM229 0l748 1393h229l-747 -1393h-230zM829 236q0 47 7 79l90 410h192l-43 -397h60 l36 397h226l-31 -397h64l-31 -193h-47l-9 -135h-235l12 135h-162q-129 1 -129 101z" />
<glyph unicode="&#xbf;" horiz-adv-x="813" d="M-12 16q0 209 194 396l160 151l6 94h361l-23 -213l-225 -288l-12 -117h288l-24 -311q-139 -43 -310 -43q-76 0 -142 14t-132 48t-103.5 102.5t-37.5 166.5zM336 770l26 342h373l-26 -342h-373z" />
<glyph unicode="&#xc0;" horiz-adv-x="1034" d="M-41 0l317 1393h687v-1393h-410v342h-133l-47 -342h-414zM281 1737h368l111 -269h-260zM451 608h110v488h-45z" />
<glyph unicode="&#xc1;" horiz-adv-x="1034" d="M-41 0l317 1393h687v-1393h-410v342h-133l-47 -342h-414zM451 608h110v488h-45zM479 1468l150 269h368l-258 -269h-260z" />
<glyph unicode="&#xc2;" horiz-adv-x="1034" d="M-41 0l317 1393h687v-1393h-410v342h-133l-47 -342h-414zM299 1468l205 269h280l160 -269h-205l-110 101l-125 -101h-205zM451 608h110v488h-45z" />
<glyph unicode="&#xc3;" horiz-adv-x="1034" d="M-41 0l317 1393h687v-1393h-410v342h-133l-47 -342h-414zM328 1473q0 287 186 286q63 0 131 -35l107 -51l8 86h196q0 -63 -5 -106t-20.5 -90t-51 -72t-91.5 -25q-70 0 -157 41l-107 49l-8 -83h-188zM451 608h110v488h-45z" />
<glyph unicode="&#xc4;" horiz-adv-x="1034" d="M-41 0l317 1393h687v-1393h-410v342h-133l-47 -342h-414zM305 1481l21 256h268l-21 -256h-268zM451 608h110v488h-45zM664 1481l20 256h268l-20 -256h-268z" />
<glyph unicode="&#xc5;" horiz-adv-x="1034" d="M-41 0l317 1393h687v-1393h-410v342h-133l-47 -342h-414zM391 1595v2q0 92 62.5 155t183.5 63q113 0 163 -52.5t50 -117.5q0 -94 -60.5 -156t-181.5 -62q-115 0 -166 51t-51 117zM451 608h110v488h-45zM563 1567h105l8 106h-105z" />
<glyph unicode="&#xc6;" horiz-adv-x="1269" d="M-51 0l358 1393h979l-24 -320h-285l-19 -223h242l-22 -297h-240l-18 -234h317l-55 -319h-426q-98 0 -151.5 46t-53.5 128l14 168h-147l-70 -342h-399zM471 608h117l39 488h-41z" />
<glyph unicode="&#xc7;" horiz-adv-x="868" d="M51 498q0 481 213 727q174 197 441 196q111 0 196 -28l-31 -320h-317l-59 -754h325l-24 -305q-100 -35 -230 -39l-16 -43h22q39 0 74 -22.5t35 -77.5q0 -61 -54.5 -102t-125 -56.5t-148.5 -15.5v135h121l8 64h-119l50 129q-361 68 -361 512z" />
<glyph unicode="&#xc8;" horiz-adv-x="847" d="M70 174l96 1219h698l-24 -320h-285l-18 -223h241l-22 -297h-240l-18 -234h317l-55 -319h-486q-98 0 -151 46t-53 128zM186 1737h369l111 -269h-260z" />
<glyph unicode="&#xc9;" horiz-adv-x="847" d="M70 174l96 1219h698l-24 -320h-285l-18 -223h241l-22 -297h-240l-18 -234h317l-55 -319h-486q-98 0 -151 46t-53 128zM385 1468l150 269h368l-258 -269h-260z" />
<glyph unicode="&#xca;" horiz-adv-x="847" d="M70 174l96 1219h698l-24 -320h-285l-18 -223h241l-22 -297h-240l-18 -234h317l-55 -319h-486q-98 0 -151 46t-53 128zM207 1468l205 269h280l160 -269h-205l-110 101l-125 -101h-205z" />
<glyph unicode="&#xcb;" horiz-adv-x="847" d="M70 174l96 1219h698l-24 -320h-285l-18 -223h241l-22 -297h-240l-18 -234h317l-55 -319h-486q-98 0 -151 46t-53 128zM211 1481l20 256h269l-21 -256h-268zM569 1481l21 256h268l-20 -256h-269z" />
<glyph unicode="&#xcc;" horiz-adv-x="618" d="M47 1737h369l110 -269h-260zM61 0l109 1393h422l-109 -1393h-422z" />
<glyph unicode="&#xcd;" horiz-adv-x="618" d="M61 0l109 1393h422l-109 -1393h-422zM246 1468l149 269h369l-258 -269h-260z" />
<glyph unicode="&#xce;" horiz-adv-x="618" d="M61 0l109 1393h422l-109 -1393h-422zM68 1468l204 269h281l160 -269h-205l-111 101l-125 -101h-204z" />
<glyph unicode="&#xcf;" horiz-adv-x="618" d="M61 0l109 1393h422l-109 -1393h-422zM72 1481l20 256h268l-20 -256h-268zM430 1481l21 256h268l-21 -256h-268z" />
<glyph unicode="&#xd0;" horiz-adv-x="1161" d="M29 573l18 269h80l43 551h516q446 0 447 -545q0 -455 -152 -674q-135 -174 -393 -174h-312q-203 0 -202 174l30 399h-75zM504 301h137l61 791h-135l-20 -250h71l-20 -269h-72z" />
<glyph unicode="&#xd1;" horiz-adv-x="1193" d="M61 0l111 1393h504l100 -938h15l26 938h350l-104 -1366q-135 -49 -262 -50q-119 0 -189.5 44.5t-85.5 160.5l-82 666h-14l-27 -848h-342zM406 1473q0 287 186 286q63 0 131 -35l106 -51l9 86h196q0 -63 -5 -106t-20.5 -90t-51 -72t-91.5 -25q-70 0 -157 41l-107 49 l-8 -83h-188z" />
<glyph unicode="&#xd2;" horiz-adv-x="1161" d="M66 551v2q0 178 45 369.5t135 310.5q80 102 177 148t234 46q123 0 214.5 -42t140.5 -102t77.5 -146t36 -151.5t7.5 -141.5q0 -199 -44.5 -397.5t-136.5 -307.5q-150 -176 -393 -176q-129 0 -223 39t-144.5 96.5t-80 142.5t-37.5 154.5t-8 155.5zM301 1737h369l110 -269 h-260zM502 301h135l61 791h-135z" />
<glyph unicode="&#xd3;" horiz-adv-x="1161" d="M66 551v2q0 178 45 369.5t135 310.5q80 102 177 148t234 46q123 0 214.5 -42t140.5 -102t77.5 -146t36 -151.5t7.5 -141.5q0 -199 -44.5 -397.5t-136.5 -307.5q-150 -176 -393 -176q-129 0 -223 39t-144.5 96.5t-80 142.5t-37.5 154.5t-8 155.5zM502 301h135l61 791h-135 zM514 1468l150 269h368l-258 -269h-260z" />
<glyph unicode="&#xd4;" horiz-adv-x="1161" d="M66 551v2q0 178 45 369.5t135 310.5q80 102 177 148t234 46q123 0 214.5 -42t140.5 -102t77.5 -146t36 -151.5t7.5 -141.5q0 -199 -44.5 -397.5t-136.5 -307.5q-150 -176 -393 -176q-129 0 -223 39t-144.5 96.5t-80 142.5t-37.5 154.5t-8 155.5zM334 1468l205 269h280 l160 -269h-205l-110 101l-125 -101h-205zM502 301h135l61 791h-135z" />
<glyph unicode="&#xd5;" horiz-adv-x="1161" d="M66 551v2q0 178 45 369.5t135 310.5q80 102 177 148t234 46q123 0 214.5 -42t140.5 -102t77.5 -146t36 -151.5t7.5 -141.5q0 -199 -44.5 -397.5t-136.5 -307.5q-150 -176 -393 -176q-129 0 -223 39t-144.5 96.5t-80 142.5t-37.5 154.5t-8 155.5zM356 1473q0 287 187 286 q63 0 131 -35l106 -51l8 86h197q0 -63 -5 -106t-20.5 -90t-51.5 -72t-91 -25q-70 0 -158 41l-106 49l-8 -83h-189zM502 301h135l61 791h-135z" />
<glyph unicode="&#xd6;" horiz-adv-x="1161" d="M66 551v2q0 178 45 369.5t135 310.5q80 102 177 148t234 46q123 0 214.5 -42t140.5 -102t77.5 -146t36 -151.5t7.5 -141.5q0 -199 -44.5 -397.5t-136.5 -307.5q-150 -176 -393 -176q-129 0 -223 39t-144.5 96.5t-80 142.5t-37.5 154.5t-8 155.5zM346 1481l21 256h268 l-21 -256h-268zM502 301h135l61 791h-135zM705 1481l20 256h268l-20 -256h-268z" />
<glyph unicode="&#xd7;" d="M123 399l209 209l-209 207l186 186l207 -208l209 208l180 -180l-209 -209l209 -206l-186 -187l-207 209l-209 -209z" />
<glyph unicode="&#xd8;" horiz-adv-x="1161" d="M14 0l129 184q-78 135 -77 367q0 180 45 371.5t135 310.5q80 102 177 148t234 46q201 0 299 -112l54 78h176l-139 -191q86 -139 86 -358q0 -199 -44.5 -397.5t-136.5 -307.5q-150 -176 -393 -176q-205 0 -326 111l-51 -74h-168zM502 301h147l33 451l-170 -295zM520 659 l168 293l10 140h-145z" />
<glyph unicode="&#xd9;" horiz-adv-x="1150" d="M70 219l92 1174h413l-83 -1092h120l86 1092h416l-86 -1092h84l-22 -250q-127 -74 -293 -74q-188 0 -189 115v17q-57 -53 -144 -91t-167 -38q-41 0 -74 7t-71.5 29.5t-60 73.5t-21.5 129zM317 1737h369l111 -269h-260z" />
<glyph unicode="&#xda;" horiz-adv-x="1150" d="M70 219l92 1174h413l-83 -1092h120l86 1092h416l-86 -1092h84l-22 -250q-127 -74 -293 -74q-188 0 -189 115v17q-57 -53 -144 -91t-167 -38q-41 0 -74 7t-71.5 29.5t-60 73.5t-21.5 129zM516 1468l150 269h368l-258 -269h-260z" />
<glyph unicode="&#xdb;" horiz-adv-x="1150" d="M70 219l92 1174h413l-83 -1092h120l86 1092h416l-86 -1092h84l-22 -250q-127 -74 -293 -74q-188 0 -189 115v17q-57 -53 -144 -91t-167 -38q-41 0 -74 7t-71.5 29.5t-60 73.5t-21.5 129zM326 1468l204 269h281l160 -269h-205l-111 101l-125 -101h-204z" />
<glyph unicode="&#xdc;" horiz-adv-x="1150" d="M70 219l92 1174h413l-83 -1092h120l86 1092h416l-86 -1092h84l-22 -250q-127 -74 -293 -74q-188 0 -189 115v17q-57 -53 -144 -91t-167 -38q-41 0 -74 7t-71.5 29.5t-60 73.5t-21.5 129zM328 1481l20 256h268l-20 -256h-268zM686 1481l21 256h268l-21 -256h-268z" />
<glyph unicode="&#xdd;" horiz-adv-x="1003" d="M45 1393h455l53 -617q35 96 82 296t67 321h416q-53 -186 -181 -493.5t-243 -483.5l-35 -416h-426l48 424zM442 1468l150 269h369l-259 -269h-260z" />
<glyph unicode="&#xde;" horiz-adv-x="1091" d="M61 0l109 1393h422l-12 -187h116q98 0 173 -29.5t113 -71.5t61.5 -99.5t29.5 -99.5t6 -87q0 -96 -19.5 -187t-67.5 -189.5t-149.5 -159t-246.5 -60.5h-96l-17 -223h-422zM510 526h121l31 379h-121z" />
<glyph unicode="&#xdf;" horiz-adv-x="1155" d="M-86 -188h158l69 968h-104l20 264h101l14 183q6 74 30.5 131t78 111.5t157 84t250.5 29.5q248 0 359 -88q109 -88 108 -240q0 -150 -86 -303l-104 -184l73 -139q104 -199 105 -336q0 -96 -29 -161.5t-83 -97.5t-110.5 -44.5t-129.5 -12.5q-113 0 -228 23l21 264h178 l-125 256q-49 111 -49 201q0 98 59 246l125 319h-205l-94 -1352q-4 -70 -25.5 -133t-65.5 -124.5t-124 -98.5t-186 -37q-88 0 -158 25v246z" />
<glyph unicode="&#xe0;" horiz-adv-x="1060" d="M41 340q0 162 48 323.5t153 258.5q78 72 177 107.5t263 35.5q174 0 313 -39l-63 -762h100l-20 -237q-117 -49 -269 -50q-201 0 -200 119v13q-102 -131 -256 -132q-78 0 -130.5 38t-76 100.5t-31.5 116t-8 108.5zM328 1393h368l111 -250h-260zM434 264h107l41 516h-107z " />
<glyph unicode="&#xe1;" horiz-adv-x="1060" d="M41 340q0 162 48 323.5t153 258.5q78 72 177 107.5t263 35.5q174 0 313 -39l-63 -762h100l-20 -237q-117 -49 -269 -50q-201 0 -200 119v13q-102 -131 -256 -132q-78 0 -130.5 38t-76 100.5t-31.5 116t-8 108.5zM434 264h107l41 516h-107zM498 1143l149 250h369 l-258 -250h-260z" />
<glyph unicode="&#xe2;" horiz-adv-x="1060" d="M41 340q0 162 48 323.5t153 258.5q78 72 177 107.5t263 35.5q174 0 313 -39l-63 -762h100l-20 -237q-117 -49 -269 -50q-201 0 -200 119v13q-102 -131 -256 -132q-78 0 -130.5 38t-76 100.5t-31.5 116t-8 108.5zM317 1143l199 250h295l152 -250h-226l-90 92l-108 -92 h-222zM434 264h107l41 516h-107z" />
<glyph unicode="&#xe3;" horiz-adv-x="1060" d="M41 340q0 162 48 323.5t153 258.5q78 72 177 107.5t263 35.5q174 0 313 -39l-63 -762h100l-20 -237q-117 -49 -269 -50q-201 0 -200 119v13q-102 -131 -256 -132q-78 0 -130.5 38t-76 100.5t-31.5 116t-8 108.5zM317 1137q0 287 187 286q63 0 131 -34l106 -52l9 86h196 q0 -63 -5 -106t-20.5 -90t-51 -72t-91.5 -25q-70 0 -157 41l-107 50l-8 -84h-189zM434 264h107l41 516h-107z" />
<glyph unicode="&#xe4;" horiz-adv-x="1060" d="M41 340q0 162 48 323.5t153 258.5q78 72 177 107.5t263 35.5q174 0 313 -39l-63 -762h100l-20 -237q-117 -49 -269 -50q-201 0 -200 119v13q-102 -131 -256 -132q-78 0 -130.5 38t-76 100.5t-31.5 116t-8 108.5zM324 1143l20 250h268l-20 -250h-268zM434 264h107l41 516 h-107zM682 1143l20 250h269l-21 -250h-268z" />
<glyph unicode="&#xe5;" horiz-adv-x="1060" d="M41 340q0 162 48 323.5t153 258.5q78 72 177 107.5t263 35.5q174 0 313 -39l-63 -762h100l-20 -237q-117 -49 -269 -50q-201 0 -200 119v13q-102 -131 -256 -132q-78 0 -130.5 38t-76 100.5t-31.5 116t-8 108.5zM416 1294v2q0 92 62.5 154.5t183.5 62.5q113 0 162.5 -52 t49.5 -118q0 -94 -60 -155.5t-181 -61.5q-115 0 -166 51t-51 117zM434 264h107l41 516h-107zM588 1266h104l8 106h-104z" />
<glyph unicode="&#xe6;" horiz-adv-x="1400" d="M41 342q0 160 48 321.5t153 258.5q154 143 434 143q98 0 174 -14l-14 -131q133 141 307 141q131 0 192.5 -82t61.5 -197q0 -217 -140 -313q-113 -78 -305 -78l-8 -127h367l-17 -237q-176 -66 -346 -66q-256 0 -364 148q-125 -129 -293 -129q-66 0 -114 27.5t-72.5 66.5 t-40 92t-19.5 93t-4 83zM434 264h107l41 516h-107zM965 573h110l17 207h-111z" />
<glyph unicode="&#xe7;" horiz-adv-x="729" d="M41 397q0 338 164 535q123 150 327 149q123 0 218 -37l-21 -264h-242l-41 -516h250l-20 -237q-31 -20 -98.5 -37t-118.5 -19l-17 -39h23q39 0 73.5 -22.5t34.5 -77.5q0 -61 -54 -102t-124.5 -56.5t-148.5 -15.5v135h121l8 64h-119l47 123q-262 57 -262 417z" />
<glyph unicode="&#xe8;" horiz-adv-x="903" d="M35 391q0 319 160 516q141 178 372 178q332 0 332 -303q0 -219 -139 -313q-113 -78 -318 -78l-10 -127h383l-20 -237q-162 -66 -344 -66q-127 0 -214 40t-128 109.5t-57.5 136t-16.5 144.5zM223 1393h369l110 -250h-260zM451 573h124l17 207h-125z" />
<glyph unicode="&#xe9;" horiz-adv-x="903" d="M35 391q0 319 160 516q141 178 372 178q332 0 332 -303q0 -219 -139 -313q-113 -78 -318 -78l-10 -127h383l-20 -237q-162 -66 -344 -66q-127 0 -214 40t-128 109.5t-57.5 136t-16.5 144.5zM406 1143l149 250h369l-258 -250h-260zM451 573h124l17 207h-125z" />
<glyph unicode="&#xea;" horiz-adv-x="903" d="M35 391q0 319 160 516q141 178 372 178q332 0 332 -303q0 -219 -139 -313q-113 -78 -318 -78l-10 -127h383l-20 -237q-162 -66 -344 -66q-127 0 -214 40t-128 109.5t-57.5 136t-16.5 144.5zM240 1143l198 250h295l152 -250h-226l-90 92l-108 -92h-221zM451 573h124 l17 207h-125z" />
<glyph unicode="&#xeb;" horiz-adv-x="903" d="M35 391q0 319 160 516q141 178 372 178q332 0 332 -303q0 -219 -139 -313q-113 -78 -318 -78l-10 -127h383l-20 -237q-162 -66 -344 -66q-127 0 -214 40t-128 109.5t-57.5 136t-16.5 144.5zM231 1143l21 250h268l-20 -250h-269zM451 573h124l17 207h-125zM590 1143 l20 250h269l-21 -250h-268z" />
<glyph unicode="&#xec;" horiz-adv-x="589" d="M43 1393h369l110 -250h-260zM57 135l74 909h404l-72 -780h98l-20 -237q-121 -49 -275 -50q-41 0 -68.5 4.5t-64.5 17.5t-56.5 48t-19.5 88z" />
<glyph unicode="&#xed;" horiz-adv-x="589" d="M57 135l74 909h404l-72 -780h98l-20 -237q-121 -49 -275 -50q-41 0 -68.5 4.5t-64.5 17.5t-56.5 48t-19.5 88zM201 1143l149 250h369l-258 -250h-260z" />
<glyph unicode="&#xee;" horiz-adv-x="589" d="M29 1143l198 250h295l152 -250h-225l-91 92l-108 -92h-221zM57 135l74 909h404l-72 -780h98l-20 -237q-121 -49 -275 -50q-41 0 -68.5 4.5t-64.5 17.5t-56.5 48t-19.5 88z" />
<glyph unicode="&#xef;" horiz-adv-x="589" d="M57 135l74 909h404l-72 -780h98l-20 -237q-121 -49 -275 -50q-41 0 -68.5 4.5t-64.5 17.5t-56.5 48t-19.5 88zM72 1143l20 250h252l-20 -250h-252zM387 1143l21 250h251l-20 -250h-252z" />
<glyph unicode="&#xf0;" horiz-adv-x="1048" d="M45 430q0 336 170 498q121 117 373 116l-105 144l-274 -115l16 234l142 51l-152 209h328q66 -45 119 -105l280 113l-18 -234l-119 -49q199 -248 199 -622q0 -406 -144 -564q-135 -145 -348 -145q-467 0 -467 469zM449 264h116l43 516h-116z" />
<glyph unicode="&#xf1;" horiz-adv-x="1087" d="M51 0l82 1044h397l-6 -88q145 109 293 109q201 0 201 -195l-57 -606h98l-21 -237q-125 -49 -270 -50q-39 0 -66.5 4.5t-64.5 17.5t-57.5 48t-20.5 88l53 645h-98l-61 -780h-402zM299 1137q0 287 186 286q63 0 131 -34l107 -52l8 86h197q0 -63 -5 -106t-20.5 -90 t-51.5 -72t-91 -25q-70 0 -158 41l-106 50l-9 -84h-188z" />
<glyph unicode="&#xf2;" horiz-adv-x="1050" d="M49 430v2q0 315 160 502q129 147 344 147q115 0 202 -36.5t133 -89t74.5 -125t37 -131t8.5 -119.5q0 -303 -138 -465q-135 -154 -354 -154q-119 0 -208 34t-137 83t-76.5 117.5t-37 122t-8.5 112.5zM236 1393h368l111 -250h-260zM453 264h116l43 516h-116z" />
<glyph unicode="&#xf3;" horiz-adv-x="1050" d="M49 430v2q0 315 160 502q129 147 344 147q115 0 202 -36.5t133 -89t74.5 -125t37 -131t8.5 -119.5q0 -303 -138 -465q-135 -154 -354 -154q-119 0 -208 34t-137 83t-76.5 117.5t-37 122t-8.5 112.5zM428 1143l150 250h368l-258 -250h-260zM453 264h116l43 516h-116z" />
<glyph unicode="&#xf4;" horiz-adv-x="1050" d="M49 430v2q0 315 160 502q129 147 344 147q115 0 202 -36.5t133 -89t74.5 -125t37 -131t8.5 -119.5q0 -303 -138 -465q-135 -154 -354 -154q-119 0 -208 34t-137 83t-76.5 117.5t-37 122t-8.5 112.5zM242 1143l198 250h295l152 -250h-225l-91 92l-108 -92h-221zM453 264 h116l43 516h-116z" />
<glyph unicode="&#xf5;" horiz-adv-x="1050" d="M49 430v2q0 315 160 502q129 147 344 147q115 0 202 -36.5t133 -89t74.5 -125t37 -131t8.5 -119.5q0 -303 -138 -465q-135 -154 -354 -154q-119 0 -208 34t-137 83t-76.5 117.5t-37 122t-8.5 112.5zM258 1137q0 287 186 286q63 0 131 -34l107 -52l8 86h197q0 -63 -5 -106 t-20.5 -90t-51.5 -72t-91 -25q-70 0 -158 41l-106 50l-9 -84h-188zM453 264h116l43 516h-116z" />
<glyph unicode="&#xf6;" horiz-adv-x="1050" d="M49 430v2q0 315 160 502q129 147 344 147q115 0 202 -36.5t133 -89t74.5 -125t37 -131t8.5 -119.5q0 -303 -138 -465q-135 -154 -354 -154q-119 0 -208 34t-137 83t-76.5 117.5t-37 122t-8.5 112.5zM254 1143l20 250h269l-21 -250h-268zM453 264h116l43 516h-116z M612 1143l21 250h268l-20 -250h-269z" />
<glyph unicode="&#xf7;" d="M98 477v254h830v-254h-830zM373 278.5q0 57.5 41 98.5t98 41h2q57 0 97 -41t40 -98.5t-41 -98.5t-98 -41t-98 41t-41 98.5zM373 929.5q0 57.5 41 98.5t98 41h2q57 0 97 -41t40 -98.5t-41 -98t-98 -40.5t-98 40.5t-41 98z" />
<glyph unicode="&#xf8;" horiz-adv-x="1050" d="M27 0l108 129q-86 113 -86 301q0 317 160 504q129 147 344 147q168 0 283 -94l41 57h157l-116 -141q90 -123 90 -323q0 -303 -138 -465q-135 -154 -354 -154q-168 0 -297 90l-37 -51h-155zM453 264h125l20 285l-139 -215zM463 500l145 223l4 57h-125z" />
<glyph unicode="&#xf9;" horiz-adv-x="1087" d="M55 174l72 870h403l-65 -780h98l62 780h395l-64 -780h101l-21 -237q-121 -49 -268 -50q-201 0 -201 119v13q-135 -131 -309 -132q-203 0 -203 197zM258 1393h369l110 -250h-260z" />
<glyph unicode="&#xfa;" horiz-adv-x="1087" d="M55 174l72 870h403l-65 -780h98l62 780h395l-64 -780h101l-21 -237q-121 -49 -268 -50q-201 0 -201 119v13q-135 -131 -309 -132q-203 0 -203 197zM451 1143l149 250h369l-258 -250h-260z" />
<glyph unicode="&#xfb;" horiz-adv-x="1087" d="M55 174l72 870h403l-65 -780h98l62 780h395l-64 -780h101l-21 -237q-121 -49 -268 -50q-201 0 -201 119v13q-135 -131 -309 -132q-203 0 -203 197zM272 1143l199 250h295l152 -250h-226l-90 92l-108 -92h-222z" />
<glyph unicode="&#xfc;" horiz-adv-x="1087" d="M55 174l72 870h403l-65 -780h98l62 780h395l-64 -780h101l-21 -237q-121 -49 -268 -50q-201 0 -201 119v13q-135 -131 -309 -132q-203 0 -203 197zM276 1143l21 250h268l-20 -250h-269zM635 1143l20 250h269l-21 -250h-268z" />
<glyph unicode="&#xfd;" horiz-adv-x="983" d="M90 170v874h406l-35 -796h39q29 135 64.5 387t47.5 409h389q-23 -227 -111.5 -642.5t-168.5 -622.5q-49 -125 -116.5 -186.5t-203.5 -61.5q-115 0 -280 49v232h248q53 109 90 256q-88 -68 -201 -68q-53 0 -90 18.5t-52.5 48t-20.5 53t-5 50.5zM410 1143l147 250h369 l-258 -250h-258z" />
<glyph unicode="&#xfe;" horiz-adv-x="1032" d="M14 -434l158 2001h397l-55 -576q109 76 227 76q61 0 109.5 -27.5t73 -67.5t41 -95.5t20.5 -97.5t4 -87q0 -446 -174 -592q-53 -45 -131 -72.5t-137 -27.5h-92l-31 -434h-410zM451 264h106l41 516h-106z" />
<glyph unicode="&#xff;" horiz-adv-x="993" d="M90 170v874h406l-35 -796h41q29 135 64.5 387t47.5 409h387q-23 -227 -111.5 -642.5t-168.5 -622.5q-49 -125 -116.5 -186.5t-203.5 -61.5q-115 0 -280 49v232h248q53 109 90 256q-88 -68 -201 -68q-53 0 -90 18.5t-52.5 48t-20.5 53t-5 50.5zM244 1143l20 250h268 l-20 -250h-268zM602 1143l21 250h268l-21 -250h-268z" />
<glyph unicode="&#x152;" horiz-adv-x="1384" d="M66 545q0 442 163 659q143 188 389 189h783l-25 -320h-284l-19 -223h242l-23 -297h-239l-19 -234h318l-56 -319h-766q-137 0 -234 49t-144.5 133t-66.5 172.5t-19 190.5zM504 301h135l63 791h-137z" />
<glyph unicode="&#x153;" horiz-adv-x="1433" d="M49 430q0 317 160 504q129 147 344 147q94 0 171 -37.5t114 -95.5q49 57 126.5 97t165.5 40q154 0 227 -85t73 -218q0 -219 -140 -313q-113 -78 -305 -78l-8 -127h369l-21 -237q-135 -66 -291 -66q-94 0 -166.5 34t-105.5 79q-47 -49 -126 -81t-159 -32q-135 0 -227 48 t-132 128t-54.5 147.5t-14.5 145.5zM453 264h116l43 516h-116zM983 573h123l18 207h-127z" />
<glyph unicode="&#x178;" horiz-adv-x="1003" d="M45 1393h455l53 -617q35 96 82 296t67 321h416q-53 -186 -181 -493.5t-243 -483.5l-35 -416h-426l48 424zM293 1481l20 256h269l-21 -256h-268zM651 1481l21 256h268l-20 -256h-269z" />
<glyph unicode="&#x2c6;" d="M242 1143l198 250h295l152 -250h-225l-91 92l-108 -92h-221z" />
<glyph unicode="&#x2dc;" d="M258 1137q0 287 186 286q63 0 131 -34l107 -52l8 86h197q0 -63 -5 -106t-20.5 -90t-51.5 -72t-91 -25q-70 0 -158 41l-106 50l-9 -84h-188z" />
<glyph unicode="&#x2000;" horiz-adv-x="907" />
<glyph unicode="&#x2001;" horiz-adv-x="1814" />
<glyph unicode="&#x2002;" horiz-adv-x="907" />
<glyph unicode="&#x2003;" horiz-adv-x="1814" />
<glyph unicode="&#x2004;" horiz-adv-x="604" />
<glyph unicode="&#x2005;" horiz-adv-x="452" />
<glyph unicode="&#x2006;" horiz-adv-x="301" />
<glyph unicode="&#x2007;" horiz-adv-x="301" />
<glyph unicode="&#x2008;" horiz-adv-x="225" />
<glyph unicode="&#x2009;" horiz-adv-x="362" />
<glyph unicode="&#x200a;" horiz-adv-x="100" />
<glyph unicode="&#x2010;" horiz-adv-x="512" d="M59 475l19 246h391l-18 -246h-392z" />
<glyph unicode="&#x2011;" horiz-adv-x="512" d="M59 475l19 246h391l-18 -246h-392z" />
<glyph unicode="&#x2012;" horiz-adv-x="512" d="M59 475l19 246h391l-18 -246h-392z" />
<glyph unicode="&#x2013;" horiz-adv-x="681" d="M55 475l19 246h565l-18 -246h-566z" />
<glyph unicode="&#x2014;" d="M55 475l21 246h905l-20 -246h-906z" />
<glyph unicode="&#x2018;" horiz-adv-x="395" d="M94 1112l45 217q49 238 254 238h35l-43 -455h-291z" />
<glyph unicode="&#x2019;" horiz-adv-x="395" d="M119 1112l43 455h291l-45 -217q-49 -238 -254 -238h-35z" />
<glyph unicode="&#x201a;" horiz-adv-x="395" d="M18 -96l43 454h291l-45 -217q-49 -238 -254 -237h-35z" />
<glyph unicode="&#x201c;" horiz-adv-x="737" d="M94 1112l56 217q12 49 27.5 85t44 74t74.5 58.5t107 20.5h21l-53 -455h-277zM451 1112l45 217q49 238 254 238h20l-43 -455h-276z" />
<glyph unicode="&#x201d;" horiz-adv-x="737" d="M119 1112l43 455h276l-45 -217q-49 -238 -254 -238h-20zM465 1112l53 455h277l-56 -217q-12 -49 -27.5 -85t-44 -74t-74.5 -58.5t-108 -20.5h-20z" />
<glyph unicode="&#x201e;" horiz-adv-x="737" d="M18 -94l43 454h277l-45 -217q-49 -238 -254 -237h-21zM365 -94l53 454h276l-55 -217q-12 -49 -27.5 -84.5t-44 -73.5t-75 -58.5t-107.5 -20.5h-20z" />
<glyph unicode="&#x2022;" d="M236 696v2q0 143 78.5 235.5t234.5 92.5q76 0 131 -28.5t81.5 -74.5t39 -90.5t12.5 -87.5q0 -147 -80 -239t-231 -92q-78 0 -134.5 28.5t-83 73.5t-37.5 90t-11 90z" />
<glyph unicode="&#x2026;" horiz-adv-x="1708" d="M72 0l30 379h365l-31 -379h-364zM641 0l31 379h364l-30 -379h-365zM1210 0l31 379h365l-31 -379h-365z" />
<glyph unicode="&#x202f;" horiz-adv-x="362" />
<glyph unicode="&#x2039;" horiz-adv-x="483" d="M35 559l205 385h239l-143 -385l78 -354h-232z" />
<glyph unicode="&#x203a;" horiz-adv-x="483" d="M27 205l143 383l-78 356h234l145 -356l-205 -383h-239z" />
<glyph unicode="&#x205f;" horiz-adv-x="452" />
<glyph unicode="&#x20ac;" horiz-adv-x="983" d="M20 465l15 190h102q2 43 13 84h-107l14 191h133q61 193 177 307q178 178 389 178q115 0 231 -39l-24 -303h-353l-12 -143h363l-15 -191h-360l-8 -84h362l-14 -190h-361l-16 -146h366l-22 -292q-111 -55 -287 -56q-201 0 -336 124t-135 370h-115z" />
<glyph unicode="&#x2122;" horiz-adv-x="1056" d="M102 1260l11 133h346l-15 -133h-82l-24 -306h-170l25 306h-91zM434 954l76 439h221v-265h10l39 265h242l2 -439h-158l11 271h-11l-41 -185q-20 -92 -120 -92q-27 0 -72 13l-15 264h-10l-26 -271h-148z" />
<glyph unicode="&#xe000;" horiz-adv-x="1065" d="M0 1065h1065v-1065h-1065v1065z" />
<glyph unicode="&#xfb01;" horiz-adv-x="1185" d="M-86 -434l4 246h154l73 968h-104l20 264h101l10 146q6 80 20.5 137t50.5 121.5t112.5 99.5t191.5 35q72 0 174 -18l-25 -279h-129l-18 -242h581l-71 -780h98l-20 -237q-121 -49 -275 -50q-41 0 -68.5 4.5t-64.5 17.5t-56.5 48t-19.5 88l60 645h-178l-64 -841 q-4 -68 -27.5 -133.5t-67.5 -127t-123 -99.5t-181 -38q-88 0 -158 25zM760 1167l22 281h383l-22 -281h-383z" />
<glyph unicode="&#xfb02;" horiz-adv-x="1179" d="M-86 -188h154l73 968h-104l20 264h101l12 146q6 55 12 91t24.5 87t53.5 85t87 65.5t136 48t195 16.5q252 0 489 -57l-114 -1262h100l-23 -237q-121 -49 -274 -50q-41 0 -68.5 4.5t-64.5 17.5t-56.5 48t-19.5 88l90 860l-96 -215h-106l-64 -841q-4 -68 -27.5 -133.5 t-67.5 -127t-123 -99.5t-181 -38q-88 0 -158 25v246zM549 1044h192l19 242h-193z" />
<glyph unicode="&#xfb03;" horiz-adv-x="1757" d="M-86 -188h154l73 968h-104l20 264h101l10 146q6 74 24.5 129t60.5 108.5t121 82t193 28.5q133 0 254 -35q88 80 297 80q72 0 174 -18l-24 -279h-131l-19 -242h584l-72 -780h99l-21 -237q-121 -49 -274 -50q-41 0 -69 4.5t-64.5 17.5t-56 48t-19.5 88l59 645h-178 l-70 -1067h-405l82 1067h-178l-64 -841q-4 -68 -27.5 -133.5t-67.5 -127t-123 -99.5t-181 -38q-88 0 -158 25v246zM543 1044h188l17 209h-189zM1331 1167l23 281h383l-23 -281h-383z" />
<glyph unicode="&#xfb04;" horiz-adv-x="1751" d="M-86 -188h154l73 968h-104l20 264h101l10 146q6 74 24.5 129t60.5 108.5t121 82t193 28.5q156 0 287 -47q98 92 395 92q252 0 490 -57l-115 -1262h100l-22 -237q-121 -49 -275 -50q-41 0 -68.5 4.5t-64.5 17.5t-56 48t-19 88l90 860l-97 -215h-106l-70 -1067h-405 l82 1067h-178l-64 -841q-4 -68 -27.5 -133.5t-67.5 -127t-123 -99.5t-181 -38q-88 0 -158 25v246zM543 1044h188l17 209h-189zM1122 1044h191l18 242h-190z" />
</font>
</defs>
</svg>
